<svg id="Layer_10" data-name="Layer 10" xmlns="http://www.w3.org/2000/svg" viewBox="0 0 305.9 449.8"><defs><style>.cls-1,.cls-11{fill:#424449;stroke-width:0.25px;}.cls-1,.cls-12,.cls-22,.cls-24,.cls-8,.cls-9{stroke:#050606;}.cls-1,.cls-10,.cls-11,.cls-12,.cls-16,.cls-17,.cls-18,.cls-19,.cls-22,.cls-24,.cls-4,.cls-6,.cls-7,.cls-8,.cls-9{stroke-miterlimit:10;}.cls-19,.cls-2,.cls-7{fill:#63544b;}.cls-10,.cls-3,.cls-6{fill:#816756;}.cls-4{fill:#fcfcc0;}.cls-10,.cls-11,.cls-4,.cls-6,.cls-7{stroke:#222;}.cls-5{fill:#e0deaf;}.cls-12,.cls-17,.cls-24,.cls-6,.cls-7{stroke-width:0.5px;}.cls-23,.cls-8{fill:#635578;}.cls-18,.cls-9{fill:none;}.cls-18,.cls-22,.cls-9{stroke-width:0.75px;}.cls-12{fill:#b0afb4;}.cls-13{fill:#2b4748;}.cls-14{fill:#050606;}.cls-15,.cls-16{fill:#fbfbf8;}.cls-16,.cls-17{stroke:#000;}.cls-17{fill:#5d7b3b;}.cls-18{stroke:#010101;}.cls-19{stroke:#63544b;}.cls-20{fill:#473d37;}.cls-21{fill:#2f3e1e;}.cls-22,.cls-24{fill:#837090;}.cls-25{fill:#2f3030;}.cls-26{fill:#010101;}</style></defs><title>Totoro_umbrella</title><path class="cls-1" d="M260.9,399.11c-1-1.3-.07-22.06,4.18-20.36S261.91,400.41,260.9,399.11Z" transform="translate(-248.23 -60.2)"/><path class="cls-1" d="M261.9,405.11c-1-1.3-.07-22.06,4.18-20.36S262.91,406.41,261.9,405.11Z" transform="translate(-248.23 -60.2)"/><path class="cls-1" d="M265.9,407.11c-1-1.3-.07-22.06,4.18-20.36S266.91,408.41,265.9,407.11Z" transform="translate(-248.23 -60.2)"/><path class="cls-1" d="M273,410.32c-1.24-1.07-4.51-21.59,0-20.78S274.24,411.39,273,410.32Z" transform="translate(-248.23 -60.2)"/><ellipse class="cls-2" cx="293.44" cy="318.22" rx="79.31" ry="40.67" transform="translate(-344.4 446.64) rotate(-73.15)"/><ellipse class="cls-2" cx="110.66" cy="321.99" rx="82.55" ry="125.14"/><ellipse class="cls-3" cx="205.43" cy="321.99" rx="82.55" ry="125.14"/><path class="cls-2" d="M321.15,491.05s7.76,12.22,9.83,14.52,66.22,1.72,71.08.71c5.95-1.25,15-20,5.95-13.53" transform="translate(-248.23 -60.2)"/><path class="cls-3" d="M491.12,491s-4.36,13.43-6.38,13.93c-14.14,3.56-68.31,2.45-73.45,1.36-5.87-1.25-14.76-20.06-5.87-13.59" transform="translate(-248.23 -60.2)"/><path class="cls-1" d="M323.71,507.11c0.47-1.36,13.43-7.18,13.75-2.65S323.24,508.47,323.71,507.11Z" transform="translate(-248.23 -60.2)"/><path class="cls-1" d="M331.24,508.65c0.62-1.41,17.06-8.43,17.37-3.88S330.61,510.06,331.24,508.65Z" transform="translate(-248.23 -60.2)"/><path class="cls-1" d="M341.72,509.11c0.66-1.39,17.15-7.9,17.33-3.34S341.06,510.5,341.72,509.11Z" transform="translate(-248.23 -60.2)"/><path class="cls-2" d="M338.83,171.64c-27.75,21.06-38.49,57.1-38.49,57.1L281,276.83C255.75,330.42,275,391,275,391s10,41.63,47.13,73.38,80.23,31.08,80.23,31.08a17.83,17.83,0,0,0,2.06,4.54,21.14,21.14,0,0,0,6.33,6c4.77,2.9,61.88,2.3,74.44-1.94a7.09,7.09,0,0,0,2.5-4.12c0.57-2.06,1.58-3.69,2-5.19A31.26,31.26,0,0,1,482.5,489a26,26,0,0,1-5-7.25,23.45,23.45,0,0,1-.92-15.08c-8.86,1.64-79.17,13.5-131.65-34.25-49.07-44.64-62-122.72-28.51-190.11a138.22,138.22,0,0,1,24.24-71.64l0.43-.57Z" transform="translate(-248.23 -60.2)"/><path class="cls-1" d="M493,506.11c-0.47-1.36-13.43-7.18-13.75-2.65S493.51,507.47,493,506.11Z" transform="translate(-248.23 -60.2)"/><path class="cls-1" d="M486.51,507.65c-0.62-1.41-17.06-8.43-17.37-3.88S487.14,509.06,486.51,507.65Z" transform="translate(-248.23 -60.2)"/><path class="cls-1" d="M476,508.11c-0.66-1.39-17.15-7.9-17.33-3.34S476.69,509.5,476,508.11Z" transform="translate(-248.23 -60.2)"/><path class="cls-3" d="M527.57,267.4l-15-35.87c-18-54.58-51.22-71.33-75.86-75.77a134.34,134.34,0,0,0-62,0c-21.43,3.82-49.38,16.93-68.21,56.22h0a160.56,160.56,0,0,0-6.24,15L280.29,275l-0.63,1.5h0a160.4,160.4,0,0,0-11.9,61c0,82.76,61.74,149.86,137.9,149.86s137.9-67.09,137.9-149.86A159.62,159.62,0,0,0,527.57,267.4Z" transform="translate(-248.23 -60.2)"/><path class="cls-2" d="M475.33,173.5c-8.57,3.93-27.37,14-40.67,35.5a91.24,91.24,0,0,0-11.92,30.5c-85.67,38.56-111.52,131.27-79.39,182.7,22.66,36.26,75.54,54.24,129.89,44.39-1.69,9.6-5.56,15.1-8.25,18.08-13.19,14.66-37.63,13.45-66.33,10.92a138.38,138.38,0,0,1-28.54-5.08A134.48,134.48,0,0,1,327.25,469c-18.67-14.09-28.65-29.43-33.87-37.62-4.59-7.21-24-38.9-25.87-84.62-2-48.6,16.91-84.85,25.94-99.89,2.48-13.19,10.83-47.38,41.31-71.91a136.72,136.72,0,0,1,24.44-14.76C409.28,136.58,464.85,162.75,475.33,173.5Z" transform="translate(-248.23 -60.2)"/><ellipse class="cls-4" cx="157.43" cy="304.73" rx="119.43" ry="126.11"/><path class="cls-5" d="M422.33,240.33C418.65,246.08,372.07,321.56,408,398c19.21,40.87,52.4,61.57,66.75,69.38-2.19,1.59-5.26,3.72-9.05,6a119.63,119.63,0,0,1-25.45,11.8c-40.93,13.68-77.31-2.59-82.75-5.44-1.09.41-61.28-27-69.67-98.75-0.15-1.28-.33-2.66-0.33-2.66-4.61-40.72,13.63-73.07,16.5-78,5.16-8.88,20.92-35.1,54.33-50.33A119.59,119.59,0,0,1,422.33,240.33Z" transform="translate(-248.23 -60.2)"/><path class="cls-6" d="M415.36,305.47a23.64,23.64,0,0,0-8.46-4.93c-1.76-1-6.45,1.2-11.09,5.36-5.07,4.56-8.14,9.71-6.85,11.5,0.64,0.89,5.38-1.58,8-3,8.7-5.86,16.66-.92,17.72-0.38,2.57,1.3,7.07,3.4,7.66,2.52C423.56,314.68,420.44,309.75,415.36,305.47Z" transform="translate(-248.23 -60.2)"/><path class="cls-6" d="M458.46,307.77a23.64,23.64,0,0,0-8.31-5.19c-1.73-1.07-6.49,1-11.24,5-5.21,4.4-8.43,9.46-7.19,11.29,0.61,0.91,5.42-1.42,8.09-2.8,8.88-5.59,16.68-.41,17.72.15,2.53,1.38,7,3.62,7.58,2.76C466.38,317.22,463.4,312.19,458.46,307.77Z" transform="translate(-248.23 -60.2)"/><path class="cls-3" d="M502.63,316.34a23.64,23.64,0,0,0-8-5.66c-1.66-1.17-6.53.63-11.52,4.36-5.45,4.09-9,9-7.84,10.85,0.56,0.94,5.5-1.1,8.23-2.33,9.19-5.07,16.68.55,17.69,1.18,2.45,1.52,6.74,4,7.41,3.19C510,326.24,507.31,321,502.63,316.34Z" transform="translate(-248.23 -60.2)"/><path class="cls-7" d="M353,307.77a23.64,23.64,0,0,1,8.31-5.19c1.73-1.07,6.49,1,11.24,5,5.21,4.4,8.43,9.46,7.19,11.29-0.61.91-5.42-1.42-8.09-2.8-8.88-5.59-16.68-.41-17.72.15-2.53,1.38-7,3.62-7.58,2.76C345,317.22,348,312.19,353,307.77Z" transform="translate(-248.23 -60.2)"/><path class="cls-7" d="M308.79,314.34a23.64,23.64,0,0,1,8-5.66c1.66-1.17,6.53.63,11.52,4.36,5.45,4.09,9,9,7.84,10.85-0.56.94-5.5-1.1-8.23-2.33-9.19-5.07-16.68.55-17.69,1.18-2.45,1.52-6.74,4-7.41,3.19C301.43,324.24,304.11,319,308.79,314.34Z" transform="translate(-248.23 -60.2)"/><path class="cls-7" d="M392.36,267.47a23.64,23.64,0,0,0-8.46-4.93c-1.76-1-6.45,1.2-11.09,5.36-5.07,4.56-8.14,9.71-6.85,11.5,0.64,0.89,5.38-1.58,8-3,8.7-5.86,16.66-.92,17.72-0.38,2.57,1.3,7.07,3.4,7.66,2.52C400.56,276.68,397.44,271.75,392.36,267.47Z" transform="translate(-248.23 -60.2)"/><path class="cls-7" d="M348.36,276.47a23.64,23.64,0,0,0-8.46-4.93c-1.76-1-6.45,1.2-11.09,5.36-5.07,4.56-8.14,9.71-6.85,11.5,0.64,0.89,5.38-1.58,8-3,8.7-5.86,16.66-.92,17.72-0.38,2.57,1.3,7.07,3.4,7.66,2.52C356.56,285.68,353.44,280.75,348.36,276.47Z" transform="translate(-248.23 -60.2)"/><path class="cls-6" d="M437.36,267.47a23.64,23.64,0,0,0-8.46-4.93c-1.76-1-6.45,1.2-11.09,5.36-5.07,4.56-8.14,9.71-6.85,11.5,0.64,0.89,5.38-1.58,8-3,8.7-5.86,16.66-.92,17.72-0.38,2.57,1.3,7.07,3.4,7.66,2.52C445.56,276.68,442.44,271.75,437.36,267.47Z" transform="translate(-248.23 -60.2)"/><path class="cls-3" d="M480.36,276.47a23.64,23.64,0,0,0-8.46-4.93c-1.76-1-6.45,1.2-11.09,5.36-5.07,4.56-8.14,9.71-6.85,11.5,0.64,0.89,5.38-1.58,8-3,8.7-5.86,16.66-.92,17.72-0.38,2.57,1.3,7.07,3.4,7.66,2.52C488.56,285.68,485.44,280.75,480.36,276.47Z" transform="translate(-248.23 -60.2)"/><path class="cls-7" d="M397.65,304.35s-10.39,8.41-8.69,13c0,0,.37,1.08,7-2.47" transform="translate(-248.23 -60.2)"/><path class="cls-8" d="M520,106.75s-13.25,1.25-13.79,1.91c-36.47-8.59-68.47.18-68.47,0.18-55.85-11.09-90.81,1.44-90.81,1.44s-9.37-6.47-30.27,0q0.79,0.53,1.62,1.05c6.2,3.88,15.46,8,29,9.75,0,0,54.05-2.89,70.63,9.25,0,0,20.18-12.14,85-8.38a91.85,91.85,0,0,1,11.28-4.89,114.76,114.76,0,0,1,18.24-4.5c9.17-1.73,11.88-1.58,11.92-2.31C544.83,107.78,520.47,106,520,106.75Z" transform="translate(-248.23 -60.2)"/><path class="cls-9" d="M417.92,130.33a82.53,82.53,0,0,1,3.69-24.25" transform="translate(-248.23 -60.2)"/><path class="cls-9" d="M497.47,106.9a23.59,23.59,0,0,1,5.5,15" transform="translate(-248.23 -60.2)"/><ellipse class="cls-3" cx="484.4" cy="306.8" rx="39.66" ry="76.52" transform="translate(-330.8 332.14) rotate(-40.93)"/><path class="cls-10" d="M529.38,374.19c-2.68-1.33-8.43-2.94-16.4-4.3-43.13-7.36-81.45-51.73-86.74-94.69-1.49-12.06,1.23-19.47,5.44-24.6,3.14-3.83,16.58-17.32,80.83,14.25h0" transform="translate(-248.23 -60.2)"/><path class="cls-10" d="M334.92,107.71" transform="translate(-248.23 -60.2)"/><path class="cls-2" d="M432.67,249.59a190.61,190.61,0,0,0,16.81,51.26,193.36,193.36,0,0,0,54.19,66.27c-8.7-.49-49.65-21.79-67.17-60.19-4-8.7-10.61-21-10-36.65C426.85,261.16,430.32,254,432.67,249.59Z" transform="translate(-248.23 -60.2)"/><path class="cls-11" d="M420.64,253.89c0.19-1.39,10.73-8.64,11.8-4.23S420.45,255.27,420.64,253.89Z" transform="translate(-248.23 -60.2)"/><path class="cls-12" d="M429.17,230.75c0.63-.31-1.49,1-1.91,4.75,2.68-2,5.07-1.69,7.28,0-0.12-4.08-2.77-4.62-2.77-4.62Z" transform="translate(-248.23 -60.2)"/><path class="cls-13" d="M427.42,235.5c-1.5,5.67,3.69,29.75-6.92,31.83-5.08-.33-6.85-5.68-6.17-10.5,0.25-1.78-2.19-3.22-3.83-3.13s-3.5,1.41-3.5,3V265c2,5.19,7,10.13,12.31,10.2s10.16-4.62,13.31-11.2c2-4.24,1.52-18.36,1.85-28.5C434.48,235.5,431.33,231.5,427.42,235.5Z" transform="translate(-248.23 -60.2)"/><path class="cls-14" d="M427.18,235.43c-0.78,3.24-.23,6.91-0.12,10.21,0.16,4.67.34,9.51-.71,14.09a11.48,11.48,0,0,1-2.71,5.66c-2.5,2.49-6.09,1.73-7.89-1.25a10.17,10.17,0,0,1-1.3-4.77c-0.06-1.19.42-2.6,0-3.72a4,4,0,0,0-3.73-2.18c-4.29.3-3.44,5.24-3.44,8.15a11.61,11.61,0,0,0,.3,4.16A17.28,17.28,0,0,0,413,272.9c9.26,7.18,19.65-3.31,21-12.71,1-7,.63-14.3.75-21.4,0-2.18.62-3.41-1.32-4.6-2.23-1.36-4.36-.52-6.15,1.12a0.25,0.25,0,0,0,.35.35c1.87-1.72,6.07-2.58,6.68.54a24,24,0,0,1-.08,4.5c0,1.57,0,3.13,0,4.7-0.05,5.34.17,11-.93,16.21-1,4.87-5.11,10.35-9.65,12.44a9.47,9.47,0,0,1-9.1-.72c-2.63-1.62-6.09-5.18-6.71-8.38a21.45,21.45,0,0,1,0-3.84,26.45,26.45,0,0,1,0-4.33,3.28,3.28,0,0,1,5.56-1.84c1.24,1.32.55,3.44,0.69,5.05a9.76,9.76,0,0,0,1.79,5.1c1.93,2.52,5.09,3.17,7.6,1.18,2.28-1.8,3.19-4.85,3.68-7.59a60,60,0,0,0,.51-12.54c-0.11-3.4-.72-7.24.08-10.58A0.25,0.25,0,0,0,427.18,235.43Z" transform="translate(-248.23 -60.2)"/><path class="cls-11" d="M421,247.65c1.21-.67,15.85,2.12,19.05,5.38,0.6,0.61.07,2.3-.19,2.44C436,257.58,419.7,248.4,421,247.65Z" transform="translate(-248.23 -60.2)"/><path class="cls-11" d="M421.34,247c1.09-.82,15.6-0.17,19.47,2.51,0.79,0.54.17,2.73-.48,2.93C435.48,253.9,420.19,247.86,421.34,247Z" transform="translate(-248.23 -60.2)"/><path class="cls-11" d="M418.56,259.05c1.14-1,17.18.44,15.29,4.58S417.41,260,418.56,259.05Z" transform="translate(-248.23 -60.2)"/><path class="cls-11" d="M417.16,258.38c0.89-1,14.64-3.1,19.29-1.44,1.07,0.38,1.34,2.27,1.19,2.46C434.88,262.87,416.13,259.54,417.16,258.38Z" transform="translate(-248.23 -60.2)"/><ellipse class="cls-15" cx="102.45" cy="136.97" rx="1.39" ry="1.44"/><ellipse class="cls-15" cx="101.9" cy="139.8" rx="0.77" ry="0.8"/><path class="cls-15" d="M364,199.21c0.43,7.29-5.53,13.6-13.31,14.1s-14.44-5-14.87-12.32,5.53-13.6,13.31-14.1S363.57,191.92,364,199.21Z" transform="translate(-248.23 -60.2)"/><path class="cls-15" d="M449.74,199.21c-0.43,7.29,5.53,13.6,13.31,14.1s14.44-5,14.87-12.32-5.53-13.6-13.31-14.1S450.17,191.92,449.74,199.21Z" transform="translate(-248.23 -60.2)"/><circle class="cls-14" cx="103.84" cy="139.8" r="4.67"/><ellipse class="cls-15" cx="106.6" cy="139.47" rx="0.8" ry="0.77"/><circle class="cls-14" cx="213.92" cy="139.47" r="4.67"/><ellipse class="cls-15" cx="216.6" cy="139.26" rx="0.8" ry="0.77"/><path class="cls-16" d="M416.43,163.3" transform="translate(-248.23 -60.2)"/><path class="cls-17" d="M372.23,149.18" transform="translate(-248.23 -60.2)"/><path class="cls-18" d="M403.57,231.38c3.47-1.2,6.44-1.44,7.38-.63a0.93,0.93,0,0,1,.33.74" transform="translate(-248.23 -60.2)"/><path class="cls-14" d="M545.37,201.2L483.8,216.85l-8.72,2.22a0.5,0.5,0,0,0,.27,1l61.57-15.66,8.72-2.22a0.5,0.5,0,0,0-.27-1h0Z" transform="translate(-248.23 -60.2)"/><path class="cls-14" d="M553.5,216.07l-62.89,9-8.91,1.27c-0.63.09-.36,1.05,0.27,1l62.89-9,8.91-1.27c0.63-.09.36-1.05-0.27-1h0Z" transform="translate(-248.23 -60.2)"/><path class="cls-14" d="M553.38,235.25H480.85a0.5,0.5,0,0,0,0,1h72.53a0.5,0.5,0,0,0,0-1h0Z" transform="translate(-248.23 -60.2)"/><path class="cls-14" d="M265.93,203.11l61.57,15.66,8.72,2.22a0.5,0.5,0,0,0,.27-1l-61.57-15.66-8.72-2.22a0.5,0.5,0,0,0-.27,1h0Z" transform="translate(-248.23 -60.2)"/><path class="cls-14" d="M257.79,218l62.89,9,8.91,1.27c0.63,0.09.9-.87,0.27-1l-62.89-9L258.06,217c-0.63-.09-0.9.87-0.27,1h0Z" transform="translate(-248.23 -60.2)"/><path class="cls-14" d="M258.18,237.2h72.53a0.5,0.5,0,0,0,0-1H258.18a0.5,0.5,0,0,0,0,1h0Z" transform="translate(-248.23 -60.2)"/><path class="cls-19" d="M344.31,88.79c-8-.09-20.47,67.08-9.92,69.59l2.92,0.67c2.13,0.62,4.74,1.69,5.39,3.36l-0.59.4,0.69-.12s0,0.06,0,.09h0l0.09,0.46-0.81.56,0.89-.15,0.14,0.72-0.94.71,1-.22,0.14,0.72-1,.88,1.14-.32,0.12,0.61-1.1,1.06,1.23-.42,0.07,0.36L342.59,169l1.35-.5,1.25,6.45L356,169.07l-1.62-6.94,0.2-.12-0.22,0-0.1-.43,0.48-.26-0.52.07-0.08-.34,0.75-.34-0.82.05-0.07-.29s0-.06,0-0.09l1-.39-0.88,0a3,3,0,0,1,.5-0.86L355,159h-0.26c0.78-.91,2.35-2.16,5.5-3.75C369,151.24,352.33,88.89,344.31,88.79Z" transform="translate(-248.23 -60.2)"/><path class="cls-19" d="M469.76,89.79c8-.09,20.47,67.08,9.92,69.59l-2.92.67c-2.13.62-4.74,1.69-5.39,3.36l0.59,0.4-0.69-.12s0,0.06,0,.09h0l-0.09.46,0.81,0.56-0.89-.15-0.14.72,0.94,0.71-1-.22-0.14.72,1,0.88-1.14-.32-0.12.61,1.1,1.06-1.23-.42-0.07.36,1.21,1.23-1.35-.5-1.25,6.45L458,170.07l1.62-6.94-0.2-.12,0.22,0,0.1-.43-0.48-.26,0.52,0.07,0.08-.34-0.75-.34L460,161.8l0.07-.29s0-.06,0-0.09l-1-.39,0.88,0a3,3,0,0,0-.5-0.86l-0.38-.16h0.26c-0.78-.91-2.35-2.16-5.5-3.75C445,152.24,461.74,89.89,469.76,89.79Z" transform="translate(-248.23 -60.2)"/><path class="cls-2" d="M338.54,160s-4.28-8.42-3.53-24.63c0,0-1.29,16.17.68,23.86" transform="translate(-248.23 -60.2)"/><path class="cls-2" d="M342.75,88.79s-4,3-7.83,18.92c-0.39,1.64-.79,3.42-1.17,5.35-4.12,20.63-4.75,35.06-2.69,41.81,0,0,.88,4.13,4.62,4.31C335.69,159.19,331.25,127.08,342.75,88.79Z" transform="translate(-248.23 -60.2)"/><path class="cls-2" d="M468.31,89.78c-8.09,16.55-14.83,38.18-12.22,62.56q0.34,3.22.88,6.29l-2.31-1.37a13.85,13.85,0,0,1-1.57-.83c-0.41-.3-2.81-1.77-2.16-11.5a135.55,135.55,0,0,1,5.17-27.67s4-14.62,8.71-23.12c0.1-.18.32-0.54,0.56-0.92a12,12,0,0,1,2.25-2.89A7.5,7.5,0,0,1,468.31,89.78Z" transform="translate(-248.23 -60.2)"/><path class="cls-20" d="M355.62,108.6a70.08,70.08,0,0,0-8.72,2.09h0c-4.94-3.19-12-3-12-3q-0.93,4.09-1.78,8.46-0.73,3.78-1.3,7.39a39.15,39.15,0,0,1,25.56-9.22Z" transform="translate(-248.23 -60.2)"/><path class="cls-20" d="M459.63,105.6c3.61-.21,7.46-0.31,11.51-0.25q3.64,0.06,7,.27,1,3.45,2,7.21,0.61,2.49,1.13,4.88a57.13,57.13,0,0,0-23.41-6.36Z" transform="translate(-248.23 -60.2)"/><path class="cls-17" d="M432,173.33c-8.67-.67-15.57-10-15.57-10-8.26-3.8-19.1,11.74-31.76,5.64a15.41,15.41,0,0,1-5.08-4c-4-5.07-1.87-11-5.67-13.22a7.76,7.76,0,0,0-3.37-.77c0-.34,7.08-1.15,40.74-3.33" transform="translate(-248.23 -60.2)"/><path class="cls-17" d="M369.94,151.42a3.81,3.81,0,0,1,2.27-.5c1.94,0.22,3.65,2.15,4.14,4.83a22.67,22.67,0,0,0-3.84,0c-1.18.1-2.17,0.28-2.84,0.41-0.83.15-1.54,0.31-2.06,0.44a5.25,5.25,0,0,1,.09-1.88c1.53-6.39,15.49-8.89,25-8.67l1,0a170.51,170.51,0,0,1,17.52,1.58c8.72,1.19,6.22-.62,18.22-1.63s22.83,6.11,22.83,6.11c-0.15,12-9.76,21.27-20.33,21.21-8.86-.05-17.12-6.65-19.5-16.17" transform="translate(-248.23 -60.2)"/><path class="cls-17" d="M409.33,147.92s2.42-.8,2.42-11.67c0,0,.17-1.33.83-0.92s-0.42,11.92,0,12.58,1,1.5,1,1.5" transform="translate(-248.23 -60.2)"/><path class="cls-21" d="M367.81,156.44a5.92,5.92,0,0,1,.88-3.5,5.77,5.77,0,0,1,1.67-1.71,4.4,4.4,0,0,1,2.44.05,5.12,5.12,0,0,1,3.23,4.25A31,31,0,0,0,367.81,156.44Z" transform="translate(-248.23 -60.2)"/><path class="cls-22" d="M316.67,110.28s19.6-6.58,30.27,0c0,0,40.55-12.43,90.81-1.44,0,0,30.51-8.52,68.47-.18,0,0,19.12-5.14,38,1.35,0,0-9.58-43-113.79-43S316.67,110.28,316.67,110.28Z" transform="translate(-248.23 -60.2)"/><path class="cls-23" d="M487.79,105.62c-33.29-5.29-51-24.41-51-24.41-18.15,2.88-34.6-9.65-37.82-12.28-0.37-.31-1.28-0.16-2.8.09-11.88,1.92-67.42,8.3-79.47,41.26,0,0,18.74-6.56,30.27,0,0,0,37.48-12.43,90.81-1.44C452.25,105.12,469.05,104.2,487.79,105.62Z" transform="translate(-248.23 -60.2)"/><path class="cls-9" d="M370.34,73.14s-19.26,7.55-22.24,32.61" transform="translate(-248.23 -60.2)"/><path class="cls-24" d="M430,61l-1.76,6,3.92-.07Z" transform="translate(-248.23 -60.2)"/><path class="cls-9" d="M433.24,69.25s4.86,6.5,4.86,32.42" transform="translate(-248.23 -60.2)"/><path class="cls-22" d="M492.88,74.5s11.35,12.83,13.33,25.83" transform="translate(-248.23 -60.2)"/><polygon class="cls-23" points="183.2 48.32 183.77 170.8 180.77 170.8 180.77 48.07 180.77 47.17 183.2 48.32"/><path class="cls-14" d="M431.44,108.27l0.11,42.88,0.17,66.44,0,9.34c0,0.72.41,2.93,0,3.57,0.3-.47-2.27-0.4-2,0a1.56,1.56,0,0,1,0-.34,8.22,8.22,0,0,1,0-2V113.33a41.75,41.75,0,0,0,0-4.89,2.46,2.46,0,0,1,0-.41c0.09-.62-0.38-0.4.38-0.14,0.51,0.17,1,.41,1.5.62,0.3,0.12.43-.36,0.13-0.48l-2.19-.9a0.25,0.25,0,0,0-.32.24V230.5a0.25,0.25,0,0,0,.25.25H432a0.25,0.25,0,0,0,.25-0.25l-0.11-41.21-0.17-66,0-15.06A0.25,0.25,0,0,0,431.44,108.27Z" transform="translate(-248.23 -60.2)"/><path class="cls-25" d="M395.63,204.22c-0.74-4.72,28.07-6.06,27.61.51C422.86,210.07,396.37,208.93,395.63,204.22Z" transform="translate(-248.23 -60.2)"/><path class="cls-26" d="M398.45,206.83c-1.15-.71-0.62-1-0.57-1.6,0.44-5.32,26.17-3,24.8,0s-6,2.17-7.72,3.18c-1.5.88-2.44,1.61-4.05,1.74-2.07.17-2.37-1.09-5.33-1.63C401.89,207.84,399.59,207.53,398.45,206.83Z" transform="translate(-248.23 -60.2)"/></svg>