<?xml version="1.0" encoding="utf-8"?>
<!-- Generator: Adobe Illustrator 19.2.1, SVG Export Plug-In . SVG Version: 6.00 Build 0)  -->
<svg version="1.1" xmlns="http://www.w3.org/2000/svg" xmlns:xlink="http://www.w3.org/1999/xlink" x="0px" y="0px"
	 viewBox="0 0 960 560" style="enable-background:new 0 0 960 560;" xml:space="preserve">
<style type="text/css">
	.st0{fill:#CCCCCC;stroke:#000000;stroke-miterlimit:10;}
	.st1{fill:#62965A;}
	.st2{fill:#3E6039;}
	.st3{fill:#424449;stroke:#050606;stroke-width:0.25;stroke-miterlimit:10;}
	.st4{fill:#63544B;}
	.st5{fill:#816756;}
	.st6{fill:#FCFCC0;}
	.st7{fill:#E0DEAF;}
	.st8{fill:#FBFBF8;}
	.st9{fill:#050606;}
	.st10{fill:none;stroke:#010101;stroke-width:0.75;stroke-miterlimit:10;}
	.st11{fill:#816756;stroke:#816756;stroke-miterlimit:10;}
	.st12{fill:#2F3030;}
	.st13{fill:#010101;}
</style>
<g id="Background">
	<rect class="st0" width="960" height="560"/>
	<path class="st1" d="M-0.2,560l-0.2-259.5c0,0,139.2-91.2,475.3,0C714.2,365.5,959,317,959,317v243"/>
	<path class="st2" d="M207.5,461c-76.3-2.8-103.4-9.5-125.1,8c-7.6,6.2-7.7,9.8-7.7,10.8c0.6,20.2,87.9,31.2,87.9,31.2
		s40.2,3.9,80.2,2.3c35.3-1.4,79.4-19.4,78.4-30.5c-1.2-14.4-78.6-20.2-85.3-20.7C226.6,461.3,226.9,461.7,207.5,461z"/>
</g>
<g id="Layer_1">
	<path class="st3" d="M79.9,374.1c-1-1.3-0.1-22.1,4.2-20.4C88.3,355.4,80.9,375.4,79.9,374.1z"/>
	<path class="st3" d="M80.9,380.1c-1-1.3-0.1-22.1,4.2-20.4C89.3,361.4,81.9,381.4,80.9,380.1z"/>
	<path class="st3" d="M84.9,382.1c-1-1.3-0.1-22.1,4.2-20.4C93.3,363.4,85.9,383.4,84.9,382.1z"/>
	<path class="st3" d="M92,385.3c-1.2-1.1-4.5-21.6,0-20.8C96.5,365.3,93.2,386.4,92,385.3z"/>
	
		<ellipse transform="matrix(0.2898 -0.9571 0.9571 0.2898 -200.7782 315.8542)" class="st4" cx="112.4" cy="293.2" rx="79.3" ry="40.7"/>
	<path class="st3" d="M370.9,374.1c1-1.3,0.1-22.1-4.2-20.4C362.5,355.4,369.9,375.4,370.9,374.1z"/>
	<path class="st3" d="M369.9,380.1c1-1.3,0.1-22.1-4.2-20.4C361.5,361.4,368.9,381.4,369.9,380.1z"/>
	<path class="st3" d="M365.9,382.1c1-1.3,0.1-22.1-4.2-20.4C357.5,363.4,364.9,383.4,365.9,382.1z"/>
	<path class="st3" d="M358.8,385.3c1.2-1.1,4.5-21.6,0-20.8C354.3,365.3,357.6,386.4,358.8,385.3z"/>
	
		<ellipse transform="matrix(0.9571 -0.2898 0.2898 0.9571 -70.3839 111.1085)" class="st5" cx="339.9" cy="293.2" rx="40.7" ry="79.3"/>
	<ellipse class="st4" cx="177.9" cy="357.2" rx="82.6" ry="125.1"/>
	<ellipse class="st5" cx="272.7" cy="357.2" rx="82.6" ry="125.1"/>
	<path class="st4" d="M140.2,466.1c0,0,7.8,12.2,9.8,14.5c2.1,2.3,66.2,1.7,71.1,0.7c5.9-1.2,15-20,5.9-13.5"/>
	<path class="st5" d="M310.1,466c0,0-4.4,13.4-6.4,13.9c-14.1,3.6-68.3,2.5-73.4,1.4c-5.9-1.3-14.8-20.1-5.9-13.6"/>
	<path class="st3" d="M162.7,483.1c0.7-1.4,17.1-7.9,17.3-3.3C180.2,484.3,162.1,484.5,162.7,483.1z"/>
	<path class="st3" d="M143.7,481.1c0.5-1.4,13.4-7.2,13.8-2.7C157.8,483,143.2,482.5,143.7,481.1z"/>
	<path class="st3" d="M150.2,482.7c0.6-1.4,17.1-8.4,17.4-3.9C167.9,483.3,149.6,484.1,150.2,482.7z"/>
	<path class="st3" d="M292,482.1c-0.7-1.4-17.1-7.9-17.3-3.3C274.5,483.3,292.7,483.5,292,482.1z"/>
	<path class="st3" d="M311,480.1c-0.5-1.4-13.4-7.2-13.8-2.7C297,482,311.5,481.5,311,480.1z"/>
	<path class="st3" d="M304.5,481.7c-0.6-1.4-17.1-8.4-17.4-3.9C286.8,482.3,305.1,483.1,304.5,481.7z"/>
	<path class="st4" d="M157.8,146.6c-27.7,21.1-38.5,57.1-38.5,57.1L100,251.8C74.8,305.4,94,366,94,366s10,41.6,47.1,73.4
		s80.2,31.1,80.2,31.1c0.6,2,1.4,3.5,2.1,4.5c0.6,1,1.8,2.9,3.9,4.5c0,0,1.1,0.7,2.2,1.5c1.9,1.2,30.3,1.3,30.3,1.3
		c-5.7-14.2,5.5-18.6,5.5-18.6c-18.1-3.4-65.3-14.7-101.5-56.3c-43.2-49.7-53.6-122.8-28.5-190.1c0.6-11.1,2.7-26.7,9.5-44
		c4.5-11.3,9.9-20.5,14.7-27.6l0.4-0.6L157.8,146.6z"/>
	<path class="st5" d="M346.6,245.2l-15-36.7c-18-55.9-51.2-73.1-75.9-77.6c-9.4-2.4-19.9-3.7-31-3.7c-11.1,0-21.5,1.3-30.9,3.7
		c-21.4,3.9-49.4,17.3-68.2,57.6l0,0c-2.2,4.7-4.3,9.8-6.2,15.3L99.3,253c-0.2,0.5-0.4,1-0.6,1.5l0,0C91,273.6,86.8,294.8,86.8,317
		c0,84.8,61.7,153.5,137.9,153.5S362.6,401.8,362.6,317C362.6,291.1,356.8,266.6,346.6,245.2z"/>
	<path class="st4" d="M157.8,146.6C138,172.9,140.7,221,140.7,221c-29.4,60.1-20.4,130.4,21.7,176.2c49.5,53.8,120.9,48,129.4,47.2
		c-10.2,11.1-20.5,16.8-26.9,19.6c-18.6,8.3-35.5,7.2-47.2,6.6c-3.3-0.2-14.5-1-28.5-5.1c-21.2-6.2-35.9-16.3-42.9-21.5
		c-18.7-14.1-28.7-29.4-33.9-37.6c-4.6-7.2-24-38.9-25.9-84.6c-2-48.6,16.9-84.8,25.9-99.9c0,0,15.2-51.9,41.3-71.9
		c0.6-0.5,1.2-1,1.8-1.5C156.3,147.8,157.1,147.2,157.8,146.6z"/>
	<ellipse class="st6" cx="224.7" cy="339.9" rx="119.4" ry="126.1"/>
	<path class="st7" d="M125.4,269.9c0,0,2.9,174.9,166.4,174.5c0,0-51.4,41.6-116.6,10.3s-69.3-100.3-69.3-100.3
		S99.7,308.9,125.4,269.9z"/>
	<path class="st5" d="M234.4,280.5c-3.1-2.6-6.2-4.4-8.5-4.9c-1.8-1-6.5,1.2-11.1,5.4c-5.1,4.6-8.1,9.7-6.9,11.5
		c0.6,0.9,5.4-1.6,8-3c8.7-5.9,16.7-0.9,17.7-0.4c2.6,1.3,7.1,3.4,7.7,2.5C242.6,289.7,239.4,284.7,234.4,280.5z"/>
	<path class="st5" d="M277.5,282.8c-3-2.7-6.1-4.6-8.3-5.2c-1.7-1.1-6.5,1-11.2,5c-5.2,4.4-8.4,9.5-7.2,11.3
		c0.6,0.9,5.4-1.4,8.1-2.8c8.9-5.6,16.7-0.4,17.7,0.2c2.5,1.4,7,3.6,7.6,2.8C285.4,292.2,282.4,287.2,277.5,282.8z"/>
	<path class="st5" d="M321.6,291.3c-2.9-2.9-5.8-4.9-8-5.7c-1.7-1.2-6.5,0.6-11.5,4.4c-5.5,4.1-9,9-7.8,10.9
		c0.6,0.9,5.5-1.1,8.2-2.3c9.2-5.1,16.7,0.6,17.7,1.2c2.4,1.5,6.7,4,7.4,3.2C329,301.2,326.3,296,321.6,291.3z"/>
	<path class="st5" d="M172,282.8c3-2.7,6.1-4.6,8.3-5.2c1.7-1.1,6.5,1,11.2,5c5.2,4.4,8.4,9.5,7.2,11.3c-0.6,0.9-5.4-1.4-8.1-2.8
		c-8.9-5.6-16.7-0.4-17.7,0.2c-2.5,1.4-7,3.6-7.6,2.8C164,292.2,167,287.2,172,282.8z"/>
	<path class="st5" d="M127.8,289.3c2.9-2.9,5.8-4.9,8-5.7c1.7-1.2,6.5,0.6,11.5,4.4c5.5,4.1,9,9,7.8,10.9c-0.6,0.9-5.5-1.1-8.2-2.3
		c-9.2-5.1-16.7,0.6-17.7,1.2c-2.4,1.5-6.7,4-7.4,3.2C120.4,299.2,123.1,294,127.8,289.3z"/>
	<path class="st5" d="M211.4,242.5c-3.1-2.6-6.2-4.4-8.5-4.9c-1.8-1-6.5,1.2-11.1,5.4c-5.1,4.6-8.1,9.7-6.9,11.5
		c0.6,0.9,5.4-1.6,8-3c8.7-5.9,16.7-0.9,17.7-0.4c2.6,1.3,7.1,3.4,7.7,2.5C219.6,251.7,216.4,246.7,211.4,242.5z"/>
	<path class="st5" d="M167.4,251.5c-3.1-2.6-6.2-4.4-8.5-4.9c-1.8-1-6.5,1.2-11.1,5.4c-5.1,4.6-8.1,9.7-6.9,11.5
		c0.6,0.9,5.4-1.6,8-3c8.7-5.9,16.7-0.9,17.7-0.4c2.6,1.3,7.1,3.4,7.7,2.5C175.6,260.7,172.4,255.7,167.4,251.5z"/>
	<path class="st5" d="M256.4,242.5c-3.1-2.6-6.2-4.4-8.5-4.9c-1.8-1-6.5,1.2-11.1,5.4c-5.1,4.6-8.1,9.7-6.9,11.5
		c0.6,0.9,5.4-1.6,8-3c8.7-5.9,16.7-0.9,17.7-0.4c2.6,1.3,7.1,3.4,7.7,2.5C264.6,251.7,261.4,246.7,256.4,242.5z"/>
	<path class="st5" d="M299.4,251.5c-3.1-2.6-6.2-4.4-8.5-4.9c-1.8-1-6.5,1.2-11.1,5.4c-5.1,4.6-8.1,9.7-6.9,11.5
		c0.6,0.9,5.4-1.6,8-3c8.7-5.9,16.7-0.9,17.7-0.4c2.6,1.3,7.1,3.4,7.7,2.5C307.6,260.7,304.4,255.7,299.4,251.5z"/>
	<path class="st4" d="M127.2,289.9l1.3,8.2c0,0-5.4,3.4-6.6,2.9C122,301.1,118.9,299,127.2,289.9z"/>
	<path class="st8" d="M180.1,173.9c0.4,6-4.6,11.3-11,11.7c-6.4,0.4-11.9-4.2-12.3-10.2c-0.4-6,4.6-11.3,11-11.7
		C174.3,163.3,179.8,167.9,180.1,173.9z"/>
	<ellipse class="st8" cx="169.7" cy="172.2" rx="1.4" ry="1.4"/>
	<ellipse class="st8" cx="169.1" cy="175" rx="0.8" ry="0.8"/>
	<path class="st8" d="M270.9,173.9c-0.4,6,4.6,11.3,11,11.7c6.4,0.4,11.9-4.2,12.3-10.2s-4.6-11.3-11-11.7
		C276.7,163.3,271.2,167.9,270.9,173.9z"/>
	<circle class="st9" cx="281" cy="173.9" r="5.3"/>
	<ellipse class="st8" cx="281.3" cy="172.2" rx="1.4" ry="1.4"/>
	<ellipse class="st8" cx="281.9" cy="175" rx="0.8" ry="0.8"/>
	<circle class="st9" cx="170.4" cy="173.9" r="5.3"/>
	<ellipse class="st8" cx="170.7" cy="172.2" rx="1.4" ry="1.4"/>
	<ellipse class="st8" cx="171.3" cy="175.1" rx="0.8" ry="0.8"/>
	<path class="st10" d="M222.6,206.4c3.5-1.2,6.4-1.4,7.4-0.6c0.2,0.2,0.3,0.4,0.3,0.7"/>
	<g>
		<g>
			<path class="st9" d="M364.2,175.7c-20.5,5.2-41,10.4-61.6,15.7c-2.9,0.7-5.8,1.5-8.7,2.2c-1.2,0.3-0.7,2.2,0.5,1.9
				c20.5-5.2,41-10.4,61.6-15.7c2.9-0.7,5.8-1.5,8.7-2.2C366,177.3,365.5,175.4,364.2,175.7L364.2,175.7z"/>
		</g>
	</g>
	<g>
		<g>
			<path class="st9" d="M372.4,190.6c-21,3-41.9,6-62.9,9c-3,0.4-5.9,0.8-8.9,1.3c-1.3,0.2-0.7,2.1,0.5,1.9c21-3,41.9-6,62.9-9
				c3-0.4,5.9-0.8,8.9-1.3C374.2,192.3,373.6,190.4,372.4,190.6L372.4,190.6z"/>
		</g>
	</g>
	<g>
		<g>
			<path class="st9" d="M372.4,209.8c-21.2,0-42.4,0-63.5,0c-3,0-6,0-9,0c-1.3,0-1.3,2,0,2c21.2,0,42.4,0,63.5,0c3,0,6,0,9,0
				C373.7,211.8,373.7,209.8,372.4,209.8L372.4,209.8z"/>
		</g>
	</g>
	<g>
		<g>
			<path class="st9" d="M84.8,178.6c20.5,5.2,41,10.4,61.6,15.7c2.9,0.7,5.8,1.5,8.7,2.2c1.2,0.3,1.8-1.6,0.5-1.9
				c-20.5-5.2-41-10.4-61.6-15.7c-2.9-0.7-5.8-1.5-8.7-2.2C84.1,176.4,83.5,178.3,84.8,178.6L84.8,178.6z"/>
		</g>
	</g>
	<g>
		<g>
			<path class="st9" d="M76.7,193.5c21,3,41.9,6,62.9,9c3,0.4,5.9,0.8,8.9,1.3c1.3,0.2,1.8-1.7,0.5-1.9c-21-3-41.9-6-62.9-9
				c-3-0.4-5.9-0.8-8.9-1.3C75.9,191.4,75.4,193.3,76.7,193.5L76.7,193.5z"/>
		</g>
	</g>
	<g>
		<g>
			<path class="st9" d="M77.2,212.7c21.2,0,42.4,0,63.5,0c3,0,6,0,9,0c1.3,0,1.3-2,0-2c-21.2,0-42.4,0-63.5,0c-3,0-6,0-9,0
				C75.9,210.7,75.9,212.7,77.2,212.7L77.2,212.7z"/>
		</g>
	</g>
	<path class="st11" d="M163.3,63.8c-8-0.1-20.5,67.1-9.9,69.6c1.1,0.3,2.1,0.5,2.9,0.7c2.1,0.6,4.7,1.7,5.4,3.4l-0.6,0.4l0.7-0.1
		c0,0,0,0.1,0,0.1l0,0l0.1,0.5l-0.8,0.6l0.9-0.1l0.1,0.7l-0.9,0.7l1-0.2l0.1,0.7l-1,0.9l1.1-0.3l0.1,0.6l-1.1,1.1l1.2-0.4l0.1,0.4
		l-1.2,1.2l1.3-0.5l1.3,6.4l10.8-5.9l-1.6-6.9l0.2-0.1l-0.2,0l-0.1-0.4l0.5-0.3l-0.5,0.1l-0.1-0.3l0.7-0.3l-0.8,0.1l-0.1-0.3
		c0,0,0-0.1,0-0.1l1-0.4l-0.9,0c0.1-0.2,0.2-0.5,0.5-0.9l0.4-0.2l-0.3,0c0.8-0.9,2.4-2.2,5.5-3.8C188,126.2,171.3,63.9,163.3,63.8z"
		/>
	<path class="st11" d="M288.8,64.8c8-0.1,20.5,67.1,9.9,69.6c-1.1,0.3-2.1,0.5-2.9,0.7c-2.1,0.6-4.7,1.7-5.4,3.4l0.6,0.4l-0.7-0.1
		c0,0,0,0.1,0,0.1l0,0l-0.1,0.5l0.8,0.6l-0.9-0.1l-0.1,0.7l0.9,0.7l-1-0.2l-0.1,0.7l1,0.9l-1.1-0.3l-0.1,0.6l1.1,1.1l-1.2-0.4
		l-0.1,0.4l1.2,1.2l-1.3-0.5l-1.3,6.4l-10.8-5.9l1.6-6.9l-0.2-0.1l0.2,0l0.1-0.4l-0.5-0.3l0.5,0.1l0.1-0.3l-0.7-0.3l0.8,0.1l0.1-0.3
		c0,0,0-0.1,0-0.1l-1-0.4l0.9,0c-0.1-0.2-0.2-0.5-0.5-0.9l-0.4-0.2l0.3,0c-0.8-0.9-2.4-2.2-5.5-3.8C264,127.2,280.7,64.9,288.8,64.8
		z"/>
	<path class="st4" d="M161.8,63.8c0,0-4.9,3.6-9,24.3s-4.8,35.1-2.7,41.8c0,0,0.9,4.1,4.6,4.3C154.7,134.2,150.2,102.1,161.8,63.8z"
		/>
	<path class="st4" d="M157.5,135c0,0-4.3-8.4-3.5-24.6c0,0-1.3,16.2,0.7,23.9"/>
	<path class="st4" d="M287.3,64.8c-8.1,16.5-14.8,38.2-12.2,62.6c0.2,2.1,0.5,4.2,0.9,6.3l-2.3-1.4c0,0-1.2-0.5-1.6-0.8
		c-0.4-0.3-2.8-1.8-2.2-11.5c0,0,0.6-12,5.2-27.7c0,0,4-14.6,8.7-23.1c0.1-0.2,0.3-0.5,0.6-0.9c1.3-2,2-2.6,2.3-2.9
		C286.9,65.1,287.1,64.9,287.3,64.8z"/>
	<path class="st12" d="M213.6,179.2c-0.7-4.7,28.1-6.1,27.6,0.5C240.9,185.1,214.4,183.9,213.6,179.2z"/>
	<path class="st13" d="M217.4,181.8c-1.1-0.7-0.6-1-0.6-1.6c0.4-5.3,26.2-3,24.8,0s-6,2.2-7.7,3.2c-1.5,0.9-2.4,1.6-4.1,1.7
		c-2.1,0.2-2.4-1.1-5.3-1.6C220.9,182.8,218.6,182.5,217.4,181.8z"/>
</g>
</svg>
