<svg id="Background" xmlns="http://www.w3.org/2000/svg" viewBox="0 0 961 561"><defs><style>.cls-1{fill:#6f7272;}.cls-1,.cls-19,.cls-20{stroke:#000;}.cls-1,.cls-10,.cls-11,.cls-12,.cls-13,.cls-14,.cls-15,.cls-19,.cls-20,.cls-21,.cls-22,.cls-25,.cls-27,.cls-4,.cls-7,.cls-9{stroke-miterlimit:10;}.cls-2{fill:#507a49;}.cls-3{fill:#3e8e9b;}.cls-14,.cls-4{fill:#424449;stroke-width:0.25px;}.cls-11,.cls-12,.cls-15,.cls-25,.cls-27,.cls-4{stroke:#050606;}.cls-10,.cls-22,.cls-5{fill:#63544b;}.cls-13,.cls-6,.cls-9{fill:#816756;}.cls-7{fill:#fcfcc0;}.cls-10,.cls-13,.cls-14,.cls-7,.cls-9{stroke:#222;}.cls-8{fill:#e0deaf;}.cls-10,.cls-15,.cls-20,.cls-27,.cls-9{stroke-width:0.5px;}.cls-11,.cls-26{fill:#635578;}.cls-12,.cls-21,.cls-30{fill:none;}.cls-12,.cls-21,.cls-25{stroke-width:0.75px;}.cls-15{fill:#b0afb4;}.cls-16{fill:#2b4748;}.cls-17{fill:#050606;}.cls-18,.cls-19{fill:#fbfbf8;}.cls-20{fill:#5d7b3b;}.cls-21{stroke:#010101;}.cls-22{stroke:#63544b;}.cls-23{fill:#473d37;}.cls-24{fill:#2f3e1e;}.cls-25,.cls-27{fill:#837090;}.cls-28{fill:#2f3030;}.cls-29{fill:#010101;}</style></defs><title>Totoro_raining</title><g id="Background-2" data-name="Background"><rect class="cls-1" x="0.5" y="0.5" width="960" height="560"/><path class="cls-2" d="M-0.2,560L-0.4,300.5s139.2-91.2,475.3,0C714.2,365.5,959,317,959,317V560" transform="translate(0.5 0.5)"/></g><path class="cls-3" d="M624.8,291.4c1.9,8,8.4,9.1,12.9,4.2s0-31,0-31S623.3,280.7,624.8,291.4Z" transform="translate(0.5 0.5)"/><path class="cls-3" d="M787.2,266.1c1.9,8,8.4,9.1,12.9,4.2s0-31,0-31S785.7,255.4,787.2,266.1Z" transform="translate(0.5 0.5)"/><path class="cls-3" d="M806.8,339.4c1.9,8,8.4,9.1,12.9,4.2s0-31,0-31S805.3,328.7,806.8,339.4Z" transform="translate(0.5 0.5)"/><path class="cls-3" d="M615.8,391.6c1.9,8,8.4,9.1,12.9,4.2s0-31,0-31S614.3,380.9,615.8,391.6Z" transform="translate(0.5 0.5)"/><path class="cls-3" d="M577.7,374.4c1.9,8,8.4,9.1,12.9,4.2s0-31,0-31S576.2,363.7,577.7,374.4Z" transform="translate(0.5 0.5)"/><path class="cls-3" d="M596,451.4c1.9,8,8.4,9.1,12.9,4.2s0-31,0-31S594.5,440.7,596,451.4Z" transform="translate(0.5 0.5)"/><path class="cls-3" d="M800.8,375.6c1.9,8,8.4,9.1,12.9,4.2s0-31,0-31S799.3,364.9,800.8,375.6Z" transform="translate(0.5 0.5)"/><path class="cls-3" d="M781,435.4c1.9,8,8.4,9.1,12.9,4.2s0-31,0-31S779.5,424.7,781,435.4Z" transform="translate(0.5 0.5)"/><g id="Totoro"><path class="cls-4" d="M561.9,396.1c-1-1.3-.1-22.1,4.2-20.4S562.9,397.4,561.9,396.1Z" transform="translate(0.5 0.5)"/><path class="cls-4" d="M562.9,402.1c-1-1.3-.1-22.1,4.2-20.4S563.9,403.4,562.9,402.1Z" transform="translate(0.5 0.5)"/><path class="cls-4" d="M566.9,404.1c-1-1.3-.1-22.1,4.2-20.4S567.9,405.4,566.9,404.1Z" transform="translate(0.5 0.5)"/><path class="cls-4" d="M574,407.3c-1.2-1.1-4.5-21.6,0-20.8S575.2,408.4,574,407.3Z" transform="translate(0.5 0.5)"/><ellipse class="cls-5" cx="594.41" cy="315.24" rx="79.3" ry="40.7" transform="translate(120.94 793.28) rotate(-73.15)"/><ellipse class="cls-5" cx="660.4" cy="379.7" rx="82.6" ry="125.1"/><ellipse class="cls-6" cx="755.2" cy="379.7" rx="82.6" ry="125.1"/><path class="cls-5" d="M622.2,488.1s7.8,12.2,9.8,14.5,66.2,1.7,71.1.7c5.9-1.2,15-20,5.9-13.5" transform="translate(0.5 0.5)"/><path class="cls-6" d="M792.1,488s-4.4,13.4-6.4,13.9c-14.1,3.6-68.3,2.5-73.4,1.4-5.9-1.3-14.8-20.1-5.9-13.6" transform="translate(0.5 0.5)"/><path class="cls-4" d="M624.7,504.1c0.5-1.4,13.4-7.2,13.8-2.7S624.2,505.5,624.7,504.1Z" transform="translate(0.5 0.5)"/><path class="cls-4" d="M632.2,505.7c0.6-1.4,17.1-8.4,17.4-3.9S631.6,507.1,632.2,505.7Z" transform="translate(0.5 0.5)"/><path class="cls-4" d="M642.7,506.1c0.7-1.4,17.1-7.9,17.3-3.3S642.1,507.5,642.7,506.1Z" transform="translate(0.5 0.5)"/><path class="cls-5" d="M639.8,168.6c-27.7,21.1-38.5,57.1-38.5,57.1L582,273.8c-25.2,53.6-6,114.2-6,114.2s10,41.6,47.1,73.4,80.2,31.1,80.2,31.1a16.18,16.18,0,0,0,2.1,4.5,21,21,0,0,0,6.3,6c4.8,2.9,61.9,2.3,74.4-1.9a7.53,7.53,0,0,0,2.5-4.1c0.6-2.1,1.6-3.7,2-5.2a29.24,29.24,0,0,1-7.2-5.8,26.4,26.4,0,0,1-5-7.2,23.77,23.77,0,0,1-.9-15.1c-8.9,1.6-79.2,13.5-131.6-34.2-49.1-44.6-62-122.7-28.5-190.1a140.91,140.91,0,0,1,9.5-44,144.93,144.93,0,0,1,14.7-27.6l0.4-.6Z" transform="translate(0.5 0.5)"/><path class="cls-4" d="M794,503.1c-0.5-1.4-13.4-7.2-13.8-2.7C780,505,794.5,504.5,794,503.1Z" transform="translate(0.5 0.5)"/><path class="cls-4" d="M787.5,504.7c-0.6-1.4-17.1-8.4-17.4-3.9S788.1,506.1,787.5,504.7Z" transform="translate(0.5 0.5)"/><path class="cls-4" d="M777,505.1c-0.7-1.4-17.1-7.9-17.3-3.3S777.7,506.5,777,505.1Z" transform="translate(0.5 0.5)"/><path class="cls-6" d="M828.6,264.4l-15-35.9c-18-54.6-51.2-71.3-75.9-75.8a134.84,134.84,0,0,0-61.9,0c-21.4,3.8-49.4,16.9-68.2,56.2h0a150.65,150.65,0,0,0-6.2,15L581.3,272l-0.6,1.5h0a161.34,161.34,0,0,0-11.9,61c0,82.8,61.7,149.9,137.9,149.9s137.9-67.1,137.9-149.9A159.75,159.75,0,0,0,828.6,264.4Z" transform="translate(0.5 0.5)"/><path class="cls-5" d="M776.3,170.5A93.43,93.43,0,0,0,735.6,206a90.2,90.2,0,0,0-11.9,30.5C638,275.1,612.2,367.8,644.3,419.2c22.7,36.3,75.5,54.2,129.9,44.4-1.7,9.6-5.6,15.1-8.2,18.1-13.2,14.7-37.6,13.5-66.3,10.9a139,139,0,0,1-28.5-5.1,133.13,133.13,0,0,1-76.8-59.1c-4.6-7.2-24-38.9-25.9-84.6-2-48.6,16.9-84.8,25.9-99.9,2.5-13.2,10.8-47.4,41.3-71.9a135.33,135.33,0,0,1,24.4-14.8C710.3,133.6,765.9,159.8,776.3,170.5Z" transform="translate(0.5 0.5)"/><ellipse class="cls-7" cx="707.2" cy="362.4" rx="119.4" ry="126.1"/><path class="cls-8" d="M723.3,237.3C719.6,243,673,318.5,709,395c19.2,40.9,52.4,61.6,66.8,69.4-2.2,1.6-5.3,3.7-9.1,6a117.7,117.7,0,0,1-25.4,11.8c-40.9,13.7-77.3-2.6-82.8-5.4-1.1.4-61.3-27-69.7-98.8-0.1-1.3-.3-2.7-0.3-2.7-4.6-40.7,13.6-73.1,16.5-78,5.2-8.9,20.9-35.1,54.3-50.3A120.8,120.8,0,0,1,723.3,237.3Z" transform="translate(0.5 0.5)"/><path class="cls-9" d="M716.4,302.5c-3.1-2.6-6.2-4.4-8.5-4.9-1.8-1-6.5,1.2-11.1,5.4-5.1,4.6-8.1,9.7-6.9,11.5,0.6,0.9,5.4-1.6,8-3,8.7-5.9,16.7-.9,17.7-0.4,2.6,1.3,7.1,3.4,7.7,2.5C724.6,311.7,721.4,306.7,716.4,302.5Z" transform="translate(0.5 0.5)"/><path class="cls-9" d="M759.5,304.8c-3-2.7-6.1-4.6-8.3-5.2-1.7-1.1-6.5,1-11.2,5-5.2,4.4-8.4,9.5-7.2,11.3,0.6,0.9,5.4-1.4,8.1-2.8,8.9-5.6,16.7-.4,17.7.2,2.5,1.4,7,3.6,7.6,2.8C767.4,314.2,764.4,309.2,759.5,304.8Z" transform="translate(0.5 0.5)"/><path class="cls-6" d="M803.6,313.3a24.46,24.46,0,0,0-8-5.7c-1.7-1.2-6.5.6-11.5,4.4-5.5,4.1-9,9-7.8,10.9,0.6,0.9,5.5-1.1,8.2-2.3,9.2-5.1,16.7.6,17.7,1.2,2.4,1.5,6.7,4,7.4,3.2C811,323.2,808.3,318,803.6,313.3Z" transform="translate(0.5 0.5)"/><path class="cls-10" d="M654,304.8c3-2.7,6.1-4.6,8.3-5.2,1.7-1.1,6.5,1,11.2,5,5.2,4.4,8.4,9.5,7.2,11.3-0.6.9-5.4-1.4-8.1-2.8-8.9-5.6-16.7-.4-17.7.2-2.5,1.4-7,3.6-7.6,2.8C646,314.2,649,309.2,654,304.8Z" transform="translate(0.5 0.5)"/><path class="cls-10" d="M609.8,311.3a24.46,24.46,0,0,1,8-5.7c1.7-1.2,6.5.6,11.5,4.4,5.5,4.1,9,9,7.8,10.9-0.6.9-5.5-1.1-8.2-2.3-9.2-5.1-16.7.6-17.7,1.2-2.4,1.5-6.7,4-7.4,3.2C602.4,321.2,605.1,316,609.8,311.3Z" transform="translate(0.5 0.5)"/><path class="cls-10" d="M693.4,264.5c-3.1-2.6-6.2-4.4-8.5-4.9-1.8-1-6.5,1.2-11.1,5.4-5.1,4.6-8.1,9.7-6.9,11.5,0.6,0.9,5.4-1.6,8-3,8.7-5.9,16.7-.9,17.7-0.4,2.6,1.3,7.1,3.4,7.7,2.5C701.6,273.7,698.4,268.7,693.4,264.5Z" transform="translate(0.5 0.5)"/><path class="cls-10" d="M649.4,273.5c-3.1-2.6-6.2-4.4-8.5-4.9-1.8-1-6.5,1.2-11.1,5.4-5.1,4.6-8.1,9.7-6.9,11.5,0.6,0.9,5.4-1.6,8-3,8.7-5.9,16.7-.9,17.7-0.4,2.6,1.3,7.1,3.4,7.7,2.5C657.6,282.7,654.4,277.7,649.4,273.5Z" transform="translate(0.5 0.5)"/><path class="cls-9" d="M738.4,264.5c-3.1-2.6-6.2-4.4-8.5-4.9-1.8-1-6.5,1.2-11.1,5.4-5.1,4.6-8.1,9.7-6.9,11.5,0.6,0.9,5.4-1.6,8-3,8.7-5.9,16.7-.9,17.7-0.4,2.6,1.3,7.1,3.4,7.7,2.5C746.6,273.7,743.4,268.7,738.4,264.5Z" transform="translate(0.5 0.5)"/><path class="cls-6" d="M781.4,273.5c-3.1-2.6-6.2-4.4-8.5-4.9-1.8-1-6.5,1.2-11.1,5.4-5.1,4.6-8.1,9.7-6.9,11.5,0.6,0.9,5.4-1.6,8-3,8.7-5.9,16.7-.9,17.7-0.4,2.6,1.3,7.1,3.4,7.7,2.5C789.6,282.7,786.4,277.7,781.4,273.5Z" transform="translate(0.5 0.5)"/><path class="cls-10" d="M698.6,301.4s-10.4,8.4-8.7,13c0,0,.4,1.1,7-2.5" transform="translate(0.5 0.5)"/><path class="cls-11" d="M821,103.8s-13.2,1.2-13.8,1.9c-36.5-8.6-68.5.2-68.5,0.2-55.9-11.1-90.8,1.4-90.8,1.4s-9.4-6.5-30.3,0c0.5,0.4,1.1.7,1.6,1.1,6.2,3.9,15.5,8,29,9.8,0,0,54.1-2.9,70.6,9.2,0,0,20.2-12.1,85-8.4a81.27,81.27,0,0,1,11.3-4.9,114.82,114.82,0,0,1,18.2-4.5c9.2-1.7,11.9-1.6,11.9-2.3C845.8,104.8,821.5,103,821,103.8Z" transform="translate(0.5 0.5)"/><path class="cls-12" d="M718.9,127.3a83.6,83.6,0,0,1,3.7-24.2" transform="translate(0.5 0.5)"/><path class="cls-12" d="M798.5,103.9a23.22,23.22,0,0,1,5.5,15" transform="translate(0.5 0.5)"/><ellipse class="cls-6" cx="785.37" cy="303.8" rx="39.7" ry="76.5" transform="translate(-6.52 589.28) rotate(-40.93)"/><path class="cls-13" d="M830.4,371.2c-2.7-1.3-8.4-2.9-16.4-4.3-43.1-7.4-81.5-51.7-86.7-94.7-1.5-12.1,1.2-19.5,5.4-24.6,3.1-3.8,16.6-17.3,80.8,14.3h0" transform="translate(0.5 0.5)"/><path class="cls-13" d="M635.9,104.7" transform="translate(0.5 0.5)"/><path class="cls-5" d="M733.7,246.6a191.79,191.79,0,0,0,16.8,51.3,194.15,194.15,0,0,0,54.2,66.3c-8.7-.5-49.7-21.8-67.2-60.2-4-8.7-10.6-21-10-36.6A47.48,47.48,0,0,1,733.7,246.6Z" transform="translate(0.5 0.5)"/><path class="cls-14" d="M721.6,250.9c0.2-1.4,10.7-8.6,11.8-4.2S721.5,252.3,721.6,250.9Z" transform="translate(0.5 0.5)"/><path class="cls-15" d="M730.2,227.8c0.6-.3-1.5,1-1.9,4.8,2.7-2,5.1-1.7,7.3,0-0.1-4.1-2.8-4.6-2.8-4.6Z" transform="translate(0.5 0.5)"/><path class="cls-16" d="M728.4,232.5c-1.5,5.7,3.7,29.8-6.9,31.8-5.1-.3-6.9-5.7-6.2-10.5,0.3-1.8-2.2-3.2-3.8-3.1s-3.5,1.4-3.5,3v8.2c2,5.2,7,10.1,12.3,10.2s10.2-4.6,13.3-11.2c2-4.2,1.5-18.4,1.9-28.5C735.5,232.5,732.3,228.5,728.4,232.5Z" transform="translate(0.5 0.5)"/><path class="cls-17" d="M728.2,232.4c-0.8,3.2-.2,6.9-0.1,10.2a55.43,55.43,0,0,1-.7,14.1,12.07,12.07,0,0,1-2.7,5.7c-2.5,2.5-6.1,1.7-7.9-1.2a9.85,9.85,0,0,1-1.3-4.8c-0.1-1.2.4-2.6,0-3.7a4,4,0,0,0-3.7-2.2c-4.3.3-3.4,5.2-3.4,8.2a11.94,11.94,0,0,0,.3,4.2,16.48,16.48,0,0,0,5.4,7.1c9.3,7.2,19.6-3.3,21-12.7,1-7,.6-14.3.8-21.4,0-2.2.6-3.4-1.3-4.6-2.2-1.4-4.4-.5-6.2,1.1a0.29,0.29,0,0,0,.4.4c1.9-1.7,6.1-2.6,6.7.5,0.3,1.4-.1,3.1-0.1,4.5v4.7c-0.1,5.3.2,11-.9,16.2-1,4.9-5.1,10.3-9.7,12.4a9.52,9.52,0,0,1-9.1-.7c-2.6-1.6-6.1-5.2-6.7-8.4a24.09,24.09,0,0,1,0-3.8,30.84,30.84,0,0,1,0-4.3,3.27,3.27,0,0,1,5.6-1.8c1.2,1.3.5,3.4,0.7,5.1a10.46,10.46,0,0,0,1.8,5.1c1.9,2.5,5.1,3.2,7.6,1.2,2.3-1.8,3.2-4.9,3.7-7.6a65.41,65.41,0,0,0,.5-12.5c-0.1-3.4-.7-7.2.1-10.6C728.7,232.3,728.3,232.1,728.2,232.4Z" transform="translate(0.5 0.5)"/><path class="cls-14" d="M722,244.7c1.2-.7,15.9,2.1,19.1,5.4a2.21,2.21,0,0,1-.2,2.4C737,254.6,720.7,245.4,722,244.7Z" transform="translate(0.5 0.5)"/><path class="cls-14" d="M722.3,244c1.1-.8,15.6-0.2,19.5,2.5,0.8,0.5.2,2.7-.5,2.9C736.5,250.9,721.2,244.9,722.3,244Z" transform="translate(0.5 0.5)"/><path class="cls-14" d="M719.6,256.1c1.1-1,17.2.4,15.3,4.6S718.4,257,719.6,256.1Z" transform="translate(0.5 0.5)"/><path class="cls-14" d="M718.2,255.4c0.9-1,14.6-3.1,19.3-1.4,1.1,0.4,1.3,2.3,1.2,2.5C735.9,259.9,717.1,256.5,718.2,255.4Z" transform="translate(0.5 0.5)"/><circle class="cls-18" cx="652.2" cy="194.7" r="1.4"/><circle class="cls-18" cx="651.6" cy="197.5" r="0.8"/><path class="cls-18" d="M665,196.2c0.4,7.3-5.5,13.6-13.3,14.1s-14.4-5-14.9-12.3,5.5-13.6,13.3-14.1S664.6,188.9,665,196.2Z" transform="translate(0.5 0.5)"/><path class="cls-18" d="M750.7,196.2c-0.4,7.3,5.5,13.6,13.3,14.1s14.4-5,14.9-12.3-5.5-13.6-13.3-14.1S751.2,188.9,750.7,196.2Z" transform="translate(0.5 0.5)"/><circle class="cls-17" cx="653.6" cy="197.5" r="4.7"/><circle class="cls-18" cx="656.3" cy="197.2" r="0.8"/><circle class="cls-17" cx="763.7" cy="197.2" r="4.7"/><circle class="cls-18" cx="766.3" cy="197" r="0.8"/><path class="cls-19" d="M717.4,160.3" transform="translate(0.5 0.5)"/><path class="cls-20" d="M673.2,146.2" transform="translate(0.5 0.5)"/><path class="cls-21" d="M704.6,228.4c3.5-1.2,6.4-1.4,7.4-.6a0.91,0.91,0,0,1,.3.7" transform="translate(0.5 0.5)"/><path class="cls-17" d="M846.2,197.7q-30.75,7.8-61.6,15.7c-2.9.7-5.8,1.5-8.7,2.2a1,1,0,0,0,.5,1.9q30.75-7.8,61.6-15.7c2.9-.7,5.8-1.5,8.7-2.2a1,1,0,1,0-.5-1.9h0Z" transform="translate(0.5 0.5)"/><path class="cls-17" d="M854.4,212.6l-62.9,9c-3,.4-5.9.8-8.9,1.3-1.3.2-.7,2.1,0.5,1.9l62.9-9c3-.4,5.9-0.8,8.9-1.3,1.3-.2.7-2.1-0.5-1.9h0Z" transform="translate(0.5 0.5)"/><path class="cls-17" d="M854.4,231.8H781.9a1,1,0,0,0,0,2h72.5a1,1,0,0,0,0-2h0Z" transform="translate(0.5 0.5)"/><path class="cls-17" d="M566.8,200.6q30.75,7.8,61.6,15.7c2.9,0.7,5.8,1.5,8.7,2.2a1,1,0,0,0,.5-1.9q-30.75-7.8-61.6-15.7c-2.9-.7-5.8-1.5-8.7-2.2a1,1,0,0,0-.5,1.9h0Z" transform="translate(0.5 0.5)"/><path class="cls-17" d="M558.7,215.5l62.9,9c3,0.4,5.9.8,8.9,1.3,1.3,0.2,1.8-1.7.5-1.9l-62.9-9c-3-.4-5.9-0.8-8.9-1.3-1.3-.2-1.8,1.7-0.5,1.9h0Z" transform="translate(0.5 0.5)"/><path class="cls-17" d="M559.2,234.7h72.5a1,1,0,0,0,0-2H559.2a1,1,0,0,0,0,2h0Z" transform="translate(0.5 0.5)"/><path class="cls-22" d="M645.3,85.8c-8-.1-20.5,67.1-9.9,69.6,1.1,0.3,2.1.5,2.9,0.7,2.1,0.6,4.7,1.7,5.4,3.4l-0.6.4,0.7-.1v0.1h0l0.1,0.5-0.8.6,0.9-.1,0.1,0.7-0.9.7,1-.2,0.1,0.7-1,.9,1.1-.3,0.1,0.6-1.1,1.1,1.2-.4,0.1,0.4-1.2,1.2,1.3-.5,1.3,6.4,10.8-5.9-1.6-6.9,0.2-.1h-0.2l-0.1-.4,0.5-.3-0.5.1-0.1-.3,0.7-.3-0.8.1-0.1-.3v-0.1l1-.4H655a4.38,4.38,0,0,1,.5-0.9l0.4-.2h-0.3a19.18,19.18,0,0,1,5.5-3.8C670,148.2,653.3,85.9,645.3,85.8Z" transform="translate(0.5 0.5)"/><path class="cls-22" d="M770.8,86.8c8-.1,20.5,67.1,9.9,69.6-1.1.3-2.1,0.5-2.9,0.7-2.1.6-4.7,1.7-5.4,3.4l0.6,0.4-0.7-.1v0.1h0l-0.1.5L773,162l-0.9-.1-0.1.7,0.9,0.7-1-.2-0.1.7,1,0.9-1.1-.3-0.1.6,1.1,1.1-1.2-.4-0.1.4,1.2,1.2-1.3-.5-1.3,6.4-10.8-5.9,1.6-6.9-0.2-.1h0.2l0.1-.4-0.5-.3,0.5,0.1,0.1-.3-0.7-.3,0.8,0.1,0.1-.3v-0.1l-1-.4h0.9a4.38,4.38,0,0,0-.5-0.9l-0.4-.2h0.3a19.18,19.18,0,0,0-5.5-3.8C746,149.2,762.7,86.9,770.8,86.8Z" transform="translate(0.5 0.5)"/><path class="cls-5" d="M639.5,157s-4.3-8.4-3.5-24.6c0,0-1.3,16.2.7,23.9" transform="translate(0.5 0.5)"/><path class="cls-5" d="M643.8,85.8s-4,3-7.8,18.9q-0.6,2.4-1.2,5.4c-4.1,20.6-4.8,35.1-2.7,41.8,0,0,.9,4.1,4.6,4.3C636.7,156.2,632.2,124.1,643.8,85.8Z" transform="translate(0.5 0.5)"/><path class="cls-5" d="M769.3,86.8c-8.1,16.5-14.8,38.2-12.2,62.6q0.3,3.15.9,6.3l-2.3-1.4a11.43,11.43,0,0,1-1.6-.8c-0.4-.3-2.8-1.8-2.2-11.5a132.86,132.86,0,0,1,5.2-27.7s4-14.6,8.7-23.1a6.78,6.78,0,0,1,.6-0.9,14.18,14.18,0,0,1,2.3-2.9A1.7,1.7,0,0,1,769.3,86.8Z" transform="translate(0.5 0.5)"/><path class="cls-23" d="M656.6,105.6a55.37,55.37,0,0,0-8.7,2.1h0c-4.9-3.2-12-3-12-3-0.6,2.7-1.2,5.5-1.8,8.5-0.5,2.5-.9,5-1.3,7.4a38.37,38.37,0,0,1,11.1-6.6,37.5,37.5,0,0,1,14.5-2.6C657.8,109.4,657.2,107.5,656.6,105.6Z" transform="translate(0.5 0.5)"/><path class="cls-23" d="M760.6,102.6c3.6-.2,7.5-0.3,11.5-0.2,2.4,0,4.8.1,7,.3,0.7,2.3,1.3,4.7,2,7.2,0.4,1.7.8,3.3,1.1,4.9a58.31,58.31,0,0,0-8.9-3.7,56.42,56.42,0,0,0-14.5-2.6C759.4,106.4,760,104.5,760.6,102.6Z" transform="translate(0.5 0.5)"/><path class="cls-20" d="M733,170.3c-8.7-.7-15.6-10-15.6-10-8.3-3.8-19.1,11.7-31.8,5.6a15.53,15.53,0,0,1-5.1-4c-4-5.1-1.9-11-5.7-13.2-1.7-1-3.4-.6-3.4-0.8s7.1-1.2,40.7-3.3" transform="translate(0.5 0.5)"/><path class="cls-20" d="M670.9,148.4a3.91,3.91,0,0,1,2.3-.5c1.9,0.2,3.7,2.1,4.1,4.8a23.64,23.64,0,0,0-3.8,0c-1.2.1-2.2,0.3-2.8,0.4-0.8.2-1.5,0.3-2.1,0.4a5.19,5.19,0,0,1,.1-1.9c1.5-6.4,15.5-8.9,25-8.7h1a164,164,0,0,1,17.5,1.6c8.7,1.2,6.2-.6,18.2-1.6s22.8,6.1,22.8,6.1c-0.1,12-9.8,21.3-20.3,21.2-8.9-.1-17.1-6.6-19.5-16.2" transform="translate(0.5 0.5)"/><path class="cls-20" d="M710.3,144.9s2.4-.8,2.4-11.7c0,0,.2-1.3.8-0.9s-0.4,11.9,0,12.6a17.36,17.36,0,0,0,1,1.5" transform="translate(0.5 0.5)"/><path class="cls-24" d="M668.8,153.4a6.51,6.51,0,0,1,.9-3.5,4.54,4.54,0,0,1,1.7-1.7,4,4,0,0,1,2.4.1,5.1,5.1,0,0,1,3.2,4.2,26.82,26.82,0,0,0-3.9.2A38.69,38.69,0,0,0,668.8,153.4Z" transform="translate(0.5 0.5)"/><path class="cls-25" d="M617.7,107.3s19.6-6.6,30.3,0c0,0,40.6-12.4,90.8-1.4,0,0,30.5-8.5,68.5-.2,0,0,19.1-5.1,38,1.4,0,0-9.6-43-113.8-43S617.7,107.3,617.7,107.3Z" transform="translate(0.5 0.5)"/><path class="cls-26" d="M788.8,102.6c-33.3-5.3-51-24.4-51-24.4-18.2,2.9-34.6-9.6-37.8-12.3-0.4-.3-1.3-0.2-2.8.1-11.9,1.9-67.4,8.3-79.5,41.3,0,0,18.7-6.6,30.3,0,0,0,37.5-12.4,90.8-1.4C753.2,102.1,770.1,101.2,788.8,102.6Z" transform="translate(0.5 0.5)"/><path class="cls-12" d="M671.3,70.1s-19.3,7.6-22.2,32.6" transform="translate(0.5 0.5)"/><path class="cls-27" d="M731,58l-1.8,6c1.3,0,2.6,0,3.9-.1C732.4,62,731.7,60,731,58Z" transform="translate(0.5 0.5)"/><path class="cls-12" d="M734.2,66.2s4.9,6.5,4.9,32.4" transform="translate(0.5 0.5)"/><path class="cls-25" d="M793.9,71.5s11.4,12.8,13.3,25.8" transform="translate(0.5 0.5)"/><polygon class="cls-26" points="732.9 106 733.5 228.5 730.5 228.5 730.5 105.8 730.5 104.9 732.9 106"/><path class="cls-17" d="M732.4,105.3c0,14.3.1,28.6,0.1,42.9,0.1,22.1.1,44.3,0.2,66.4v9.3c0,0.7.4,2.9,0,3.6,0.3-.5-2.3-0.4-2,0v-0.3a6.7,6.7,0,0,1,0-2V110.4a40.05,40.05,0,0,0,0-4.9v-0.4c0.1-.6-0.4-0.4.4-0.1l1.5,0.6c0.3,0.1.4-.4,0.1-0.5-0.7-.3-1.5-0.6-2.2-0.9a0.21,0.21,0,0,0-.3.2V227.5a0.22,0.22,0,0,0,.2.2h2.5c0.1,0,.3-0.1.2-0.2,0-13.7-.1-27.5-0.1-41.2-0.1-22-.1-44-0.2-66V105.2C732.9,105,732.4,105,732.4,105.3Z" transform="translate(0.5 0.5)"/><path class="cls-28" d="M696.6,201.2c-0.7-4.7,28.1-6.1,27.6.5C723.9,207.1,697.4,205.9,696.6,201.2Z" transform="translate(0.5 0.5)"/><path class="cls-29" d="M699.4,203.8c-1.1-.7-0.6-1-0.6-1.6,0.4-5.3,26.2-3,24.8,0s-6,2.2-7.7,3.2c-1.5.9-2.4,1.6-4.1,1.7-2.1.2-2.4-1.1-5.3-1.6C702.9,204.8,700.6,204.5,699.4,203.8Z" transform="translate(0.5 0.5)"/></g><path class="cls-3" d="M867.2,266.2c1.9,8,8.4,9.1,12.9,4.2s0-31,0-31S865.8,255.5,867.2,266.2Z" transform="translate(0.5 0.5)"/><path class="cls-30" d="M959.9,474.6c-4.5,4.9-11,3.8-12.9-4.2-1.5-10.7,12.9-26.8,12.9-26.8l0.1,0.59V282.42c-3.48.67-6.91-1.57-8.2-7-0.92-6.57,4.15-15.16,8.2-20.83V143.41c-3.51.73-7-1.51-8.3-7-0.93-6.62,4.23-15.31,8.3-21V0.8H943c0.76,7.76,1.08,17.24-1.45,20-4.5,4.9-11,3.8-12.9-4.2-0.68-4.83,1.88-10.75,4.9-15.8H861.8c0.83,5.17,3.81,25.53-.2,29.8-4.5,4.9-11,3.8-12.9-4.2-1.26-9,8.62-21.68,11.88-25.6H759c-0.23,3-.79,5.42-1.87,6.6-4.5,4.9-11,3.8-12.9-4.2a12.5,12.5,0,0,1-.06-2.4H716.59c0.61,7.26.66,15.3-1.69,17.8-4.5,4.9-11,3.8-12.9-4.2-0.58-4.14,1.22-9.09,3.65-13.6H679c-0.23,2.94-.79,5.33-1.86,6.5-4.5,4.9-11,3.8-12.9-4.2a12.24,12.24,0,0,1-.09-2.3H569.45c-0.3,2.24-.84,4-1.75,5-4.5,4.9-11,3.8-12.9-4.2,0-.26-0.06-0.53-0.07-0.8H451.5s4.6,26.1,0,31-11,3.8-12.9-4.2C437.1,16.9,451.5.8,451.5,0.8H136.08c0.71,7.55.9,16.36-1.58,19-4.5,4.9-11,3.8-12.9-4.2-0.63-4.51,1.56-10,4.31-14.8h-71c1,6.38,3.35,24.77-.35,28.8-4.5,4.9-11,3.8-12.9-4.2C40.54,17.1,48.93,5.57,52.76.8H-0.4V12.39A78.16,78.16,0,0,1,4.9,5.6s4.5,26.1,0,31A8.42,8.42,0,0,1-.4,39.5V131a61.94,61.94,0,0,1,0,8.37V182c2.71-9.79,12.3-20.45,12.3-20.45s4.5,26.1,0,31C7.79,197.08,2,196.53-.4,190.3v87a78.56,78.56,0,0,1,5.1-6.53s4.5,26.1,0,31a8.51,8.51,0,0,1-5.1,2.87V556.61C2.55,547,11.7,536.8,11.7,536.8s2.43,13.79,2,23.2H68.35l0.35-.4,0.07,0.4h70.57a77.84,77.84,0,0,1,9.36-13.4s1.12,6.37,1.7,13.4h29.9c1.68-10.27,12.79-22.7,12.79-22.7s2.34,13.31,2,22.7h27.55a79.8,79.8,0,0,1,8.24-11.4s0.92,5.2,1.52,11.4h27.93c1.79-10.25,12.75-22.6,12.75-22.6s2.33,13.21,2,22.6h73.19c1.68-10.27,12.79-22.7,12.79-22.7s2.34,13.31,2,22.7h84.44c2.28-10,12.55-21.6,12.55-21.6s2.17,12.3,2,21.6H960V474.47Zm-412-440s4.6,26.1,0,31-11,3.8-12.9-4.2C533.5,50.7,547.9,34.6,547.9,34.6Zm-9.8,200.7c-4.5,4.9-11,3.8-12.9-4.2-1.5-10.7,12.9-26.8,12.9-26.8S542.7,230.4,538.1,235.3Zm-30.2-58.7c-4.5,4.9-11,3.8-12.9-4.2-1.5-10.8,12.9-26.8,12.9-26.8S512.4,171.7,507.9,176.6Zm1.6,157.2c-4.5,4.9-11,3.8-12.9-4.2-1.5-10.7,12.9-26.8,12.9-26.8S514,328.9,509.5,333.8Zm-8.8-79s4.6,26.1,0,31-11,3.8-12.9-4.2C486.3,270.9,500.7,254.8,500.7,254.8Zm-49-118.2s4.6,26.1,0,31-11,3.8-12.9-4.2C437.3,152.7,451.7,136.6,451.7,136.6Zm0.8,98.2c-4.5,4.9-11,3.8-12.9-4.2-1.5-10.7,12.9-26.8,12.9-26.8S457.1,229.9,452.5,234.8ZM432.1,76.4s4.6,26.1,0,31-11,3.8-12.9-4.2C417.8,92.5,432.1,76.4,432.1,76.4ZM389.9,87.6s4.6,26.1,0,31-11,3.8-12.9-4.2C375.5,103.7,389.9,87.6,389.9,87.6ZM352.1,76.3s4.6,26.1,0,31-11,3.8-12.9-4.2C337.7,92.4,352.1,76.3,352.1,76.3ZM321.9,17.6s4.6,26.1,0,31-11,3.8-12.9-4.2C307.5,33.6,321.9,17.6,321.9,17.6Zm-20.1,136c-1.5-10.7,12.9-26.8,12.9-26.8s4.6,26.1,0,31S303.7,161.6,301.8,153.6Zm18.7,141.2s4.6,26.1,0,31-11,3.8-12.9-4.2C306.1,310.9,320.5,294.8,320.5,294.8Zm-19.8-40.2c-4.5,4.9-11,3.8-12.9-4.2-1.5-10.7,12.9-26.8,12.9-26.8S305.2,249.7,300.7,254.6Zm-7-188s3.53,20,1.31,28.3a79.78,79.78,0,0,1,5.49-7.1s4.6,26.1,0,31-11,3.8-12.9-4.2c-0.68-4.88,1.94-10.88,5-16-4.4,3.63-10,2.13-11.8-5.24C279.3,82.7,293.7,66.6,293.7,66.6ZM281.1,194.4c-4.5,4.9-11,3.8-12.9-4.2-1.4-10.7,12.9-26.8,12.9-26.8S285.7,189.5,281.1,194.4Zm-7-188s4.6,26.1,0,31-11,3.8-12.9-4.2C259.8,22.5,274.1,6.4,274.1,6.4ZM258.7,114.8s4.6,26.1,0,31-11,3.8-12.9-4.2C244.3,130.9,258.7,114.8,258.7,114.8ZM231.9,17.6s4.6,26.1,0,31-11,3.8-12.9-4.2C217.5,33.7,231.9,17.6,231.9,17.6Zm-18.2,62s2.64,15,1.92,24.37a78.61,78.61,0,0,1,5-6.37s4.6,26.1,0,31-11,3.8-12.9-4.2c-0.48-3.46.69-7.47,2.51-11.33-3.86,1.5-8-.59-9.41-6.67C199.3,95.7,213.7,79.6,213.7,79.6Zm7,188c-4.5,4.9-11,3.8-12.9-4.2-1.5-10.7,12.9-26.8,12.9-26.8S225.3,262.7,220.7,267.6ZM194.1,6.3s4.6,26.1,0,31-11,3.8-12.9-4.2C179.7,22.4,194.1,6.3,194.1,6.3ZM170.9,135.6c-4.5,4.9-11,3.8-12.9-4.2-1.5-10.8,12.9-26.8,12.9-26.8S175.5,130.7,170.9,135.6Zm-20.1,105c-1.5-10.7,12.9-26.8,12.9-26.8s4.6,26.1,0,31S152.7,248.6,150.8,240.6Zm-1.7,124.8c-4.5,4.9-11,3.8-12.9-4.2-1.4-10.7,12.9-26.8,12.9-26.8S153.7,360.5,149.1,365.4Zm19.4-106.6s4.6,26.1,0,31-11,3.8-12.9-4.2C154.1,274.9,168.5,258.8,168.5,258.8Zm-11.8-202s4.6,26.1,0,31-11,3.8-12.9-4.2C142.3,72.9,156.7,56.8,156.7,56.8Zm-22,67.8s3.16,17.93,1.62,26.85a79,79,0,0,1,5.18-6.65s4.6,26.1,0,31-11,3.8-12.9-4.2c-0.61-4.34,1.4-9.56,4-14.24-4.22,2.65-9.18.86-10.8-6C120.3,140.7,134.7,124.6,134.7,124.6ZM115.1,64.4s4.6,26.1,0,31-11,3.8-12.9-4.2C100.8,80.5,115.1,64.4,115.1,64.4ZM99.7,202.8c-4.5,4.9-11,3.8-12.9-4.2-1.5-10.7,12.9-26.8,12.9-26.8S104.3,197.9,99.7,202.8ZM88.6,268.6s4.6,26.1,0,31-11,3.8-12.9-4.2C74.2,284.7,88.6,268.6,88.6,268.6ZM67,258.4c-1.5-10.7,12.9-26.8,12.9-26.8s4.6,26.1,0,31S68.9,266.4,67,258.4ZM92.7,15.8s4.5,26.1,0,31-11,3.8-12.9-4.2C78.3,31.9,92.7,15.8,92.7,15.8ZM72.9,75.6s4.6,26.1,0,31-11,3.8-12.9-4.2C58.5,91.7,72.9,75.6,72.9,75.6Zm-18.2,62s2.44,13.86,2,23.27a78.57,78.57,0,0,1,4.92-6.27s4.6,26.1,0,31-11,3.8-12.9-4.2c-0.44-3.11.47-6.67,2-10.16-3.7,1.11-7.5-1-8.88-6.84C40.3,153.7,54.7,137.6,54.7,137.6ZM42.1,220.3s4.5,26.1,0,31-11,3.8-12.9-4.2C27.7,236.4,42.1,220.3,42.1,220.3Zm-3.2,86.3c-4.5,4.9-11,3.8-12.9-4.2-1.5-10.8,12.9-26.8,12.9-26.8S43.4,301.7,38.9,306.6ZM35.1,64.3s4.5,26.1,0,31-11,3.8-12.9-4.2C20.7,80.4,35.1,64.3,35.1,64.3ZM18.9,458.6c-4.5,4.9-11,3.8-12.9-4.2-1.5-10.8,12.9-26.8,12.9-26.8S23.4,453.7,18.9,458.6Zm12.8-42.8c-4.5,4.9-11,3.8-12.9-4.2-1.5-10.7,12.9-26.8,12.9-26.8S36.2,410.9,31.7,415.8ZM49.1,517.3c-4.5,4.9-11,3.8-12.9-4.2-1.5-10.7,12.9-26.8,12.9-26.8S53.6,512.4,49.1,517.3ZM48.8,320.4c-1.5-10.7,12.9-26.8,12.9-26.8s4.6,26.1,0,31S50.7,328.4,48.8,320.4ZM68.6,451.6c-4.5,4.9-11,3.8-12.9-4.2-1.5-10.7,12.9-26.8,12.9-26.8S73.2,446.7,68.6,451.6Zm0.5-86.3c-4.5,4.9-11,3.8-12.9-4.2-1.5-10.7,12.9-26.8,12.9-26.8S73.6,360.4,69.1,365.3ZM86.9,528.6c-4.5,4.9-11,3.8-12.9-4.2-1.5-10.7,12.9-26.8,12.9-26.8S91.4,523.7,86.9,528.6Zm1.8-90c-4.5,4.9-11,3.8-12.9-4.2-1.5-10.7,12.9-26.8,12.9-26.8S93.3,433.7,88.7,438.6Zm18,30.2c-4.5,4.9-11,3.8-12.9-4.2-1.5-10.7,12.9-26.8,12.9-26.8S111.2,463.9,106.7,468.8Zm0.2-92.2c-4.5,4.9-11,3.8-12.9-4.2-1.5-10.7,12.9-26.8,12.9-26.8S111.5,371.7,106.9,376.6Zm2.3-129.4c-1.4-10.7,12.9-26.8,12.9-26.8s4.6,26.1,0,31S111.1,255.2,109.2,247.2Zm17.5,38.6s4.5,26.1,0,31-11,3.8-12.9-4.2C112.3,301.9,126.7,285.8,126.7,285.8Zm2.4,231.6c-4.5,4.9-11,3.8-12.9-4.2-1.4-10.7,12.9-26.8,12.9-26.8S133.7,512.5,129.1,517.4Zm-0.3-210c-1.5-10.7,12.9-26.8,12.9-26.8s4.6,26.1,0,31S130.7,315.4,128.8,307.4Zm19.7,134.4c-4.5,4.9-11,3.8-12.9-4.2-1.5-10.7,12.9-26.8,12.9-26.8S153.1,436.9,148.5,441.8Zm14.4,67.8c-4.5,4.9-11,3.8-12.9-4.2-1.5-10.8,12.9-26.8,12.9-26.8S167.5,504.7,162.9,509.6Zm-7.1-88.2c-1.5-10.7,12.9-26.8,12.9-26.8s4.6,26.1,0,31S157.7,429.4,155.8,421.4Zm27.9,30.4c-4.5,4.9-11,3.8-12.9-4.2-1.5-10.7,12.9-26.8,12.9-26.8S188.3,446.9,183.7,451.8Zm7.2-109.2c-4.5,4.9-11,3.8-12.9-4.2-1.5-10.8,12.9-26.8,12.9-26.8S195.5,337.7,190.9,342.6Zm-2.7-152.5c-1.5-10.7,12.9-26.8,12.9-26.8s4.6,26.1,0,31S190.1,198.1,188.2,190.1Zm24.4,312.5c-4.5,4.9-11,3.8-12.9-4.2-1.5-10.7,12.9-26.8,12.9-26.8S217.2,497.7,212.6,502.6Zm8.5-101.3c-4.5,4.9-11,3.8-12.9-4.2-1.5-10.7,12.9-26.8,12.9-26.8S225.7,396.4,221.1,401.3Zm17.8-226.7s4.6,26.1,0,31-11,3.8-12.9-4.2C224.5,190.7,238.9,174.6,238.9,174.6Zm1.7,130s4.6,26.1,0,31-11,3.8-12.9-4.2C226.2,320.7,240.6,304.6,240.6,304.6ZM227.8,470.4c-1.5-10.7,12.9-26.8,12.9-26.8s4.6,26.1,0,31S229.7,478.4,227.8,470.4Zm22.9,49.4c-4.5,4.9-11,3.8-12.9-4.2-1.5-10.7,12.9-26.8,12.9-26.8S255.3,514.9,250.7,519.8Zm8.2-107.2c-4.5,4.9-11,3.8-12.9-4.2-1.5-10.7,12.9-26.8,12.9-26.8S263.5,407.7,258.9,412.6Zm-5.1-126c-1.5-10.7,12.9-26.8,12.9-26.8s4.6,26.1,0,31S255.7,294.6,253.8,286.6Zm12,62c-1.5-10.7,12.9-26.8,12.9-26.8s4.6,26.1,0,31S267.7,356.6,265.8,348.6Zm26.7,144.2c-4.5,4.9-11,3.8-12.9-4.2-1.5-10.7,12.9-26.8,12.9-26.8S297.1,487.9,292.5,492.8Zm8.6-91.4c-4.5,4.9-11,3.8-12.9-4.2-1.4-10.7,12.9-26.8,12.9-26.8S305.7,396.5,301.1,401.4Zm1.7-44.8c-1.5-10.7,12.9-26.8,12.9-26.8s4.6,26.1,0,31S304.7,364.6,302.8,356.6Zm17.9,105c-4.5,4.9-11,3.8-12.9-4.2-1.5-10.7,12.9-26.8,12.9-26.8S325.3,456.7,320.7,461.6Zm2.2-210c-4.5,4.9-11,3.8-12.9-4.2-1.5-10.8,12.9-26.8,12.9-26.8S327.5,246.7,322.9,251.6Zm18,276c-4.5,4.9-11,3.8-12.9-4.2-1.5-10.8,12.9-26.8,12.9-26.8S345.5,522.7,340.9,527.6Zm12.2-217.3c-4.5,4.9-11,3.8-12.9-4.2-1.5-10.7,12.9-26.8,12.9-26.8S357.7,305.4,353.1,310.3ZM371.6,10.6s4.5,26.1,0,31-11,3.8-12.9-4.2C357.2,26.7,371.6,10.6,371.6,10.6Zm0.1,139s4.6,26.1,0,31-11,3.8-12.9-4.2C357.3,165.7,371.7,149.6,371.7,149.6Zm0.9,64s4.6,26.1,0,31-11,3.8-12.9-4.2C358.2,229.7,372.6,213.6,372.6,213.6Zm0.1,246.2c-4.5,4.9-11,3.8-12.9-4.2-1.5-10.7,12.9-26.8,12.9-26.8S377.3,454.9,372.7,459.8Zm17.9,60.8c-4.5,4.9-11,3.8-12.9-4.2-1.5-10.7,12.9-26.8,12.9-26.8S395.1,515.7,390.6,520.6Zm0.3-199c-3.32,3.62-7.72,4-10.57.67,1,6.77,3.27,24.39-.43,28.33-2.14,2.33-4.73,3.29-7.06,2.81,0.72,4.4,4,25.8-.14,30.19-4.5,4.9-11,3.8-12.9-4.2-1.33-9.46,9.77-23.13,12.36-26.18-2.29-.77-4.25-3-5.16-6.82-1.29-9.29,9.19-22.43,12.14-25.92A13.22,13.22,0,0,1,378,317.4c-1.5-10.7,12.9-26.8,12.9-26.8S395.5,316.7,390.9,321.6ZM409.7,27.8s4.6,26.1,0,31-11,3.8-12.9-4.2C395.3,43.9,409.7,27.8,409.7,27.8Zm0.4,381.5c-4.5,4.9-11,3.8-12.9-4.2-1.5-10.7,12.9-26.8,12.9-26.8S414.7,404.4,410.1,409.3Zm0.6-147.5c-4.5,4.9-11,3.8-12.9-4.2-1.5-10.7,12.9-26.8,12.9-26.8S415.3,256.9,410.7,261.8Zm18,276c-4.5,4.9-11,3.8-12.9-4.2-1.5-10.7,12.9-26.8,12.9-26.8S433.3,532.9,428.7,537.8Zm1-55.2c-4.5,4.9-11,3.8-12.9-4.2-1.5-10.7,12.9-26.8,12.9-26.8S434.3,477.7,429.7,482.6Zm-0.06-169.75c0.44,2.64,4.2,26.12,0,30.75-4.5,4.9-11,3.8-12.9-4.2-1.36-9.72,10.39-23.89,12.56-26.41-3.76,1.24-7.66-.89-9.06-6.79-1.4-10.7,12.9-26.8,12.9-26.8s4.6,26.1,0,31A9.43,9.43,0,0,1,429.64,312.85ZM447.9,420.6c-4.5,4.9-11,3.8-12.9-4.2-1.5-10.7,12.9-26.8,12.9-26.8S452.5,415.7,447.9,420.6Zm4.8-50c-4.5,4.9-11,3.8-12.9-4.2-1.5-10.7,12.9-26.8,12.9-26.8S457.3,365.7,452.7,370.6Zm15-40.8s4.6,26.1,0,31-11,3.8-12.9-4.2C453.3,345.9,467.7,329.8,467.7,329.8Zm2.8,181c-4.5,4.9-11,3.8-12.9-4.2-1.5-10.7,12.9-26.8,12.9-26.8S475.1,505.9,470.5,510.8Zm2.2-406c-4.5,4.9-11,3.8-12.9-4.2-1.5-10.7,12.9-26.8,12.9-26.8S477.3,99.9,472.7,104.8Zm17.4,304.6c-4.5,4.9-11,3.8-12.9-4.2-1.4-10.7,12.9-26.8,12.9-26.8S494.7,404.5,490.1,409.4Zm17.6,143.4c-4.5,4.9-11,3.8-12.9-4.2-1.5-10.7,12.9-26.8,12.9-26.8S512.3,547.9,507.7,552.8Zm2-83.2c-4.5,4.9-11,3.8-12.9-4.2-1.5-10.7,12.9-26.8,12.9-26.8S514.3,464.7,509.7,469.6Zm0.4-415.3c-4.5,4.9-11,3.8-12.9-4.2-1.5-10.7,12.9-26.8,12.9-26.8S514.7,49.4,510.1,54.3Zm6.7,69.1c-1.5-10.7,12.9-26.8,12.9-26.8s4.6,26.1,0,31S518.7,131.4,516.8,123.4Zm16.9,371.4c-4.5,4.9-11,3.8-12.9-4.2-1.5-10.7,12.9-26.8,12.9-26.8S538.3,489.9,533.7,494.8Zm7.2-109.2c-4.5,4.9-11,3.8-12.9-4.2-1.5-10.8,12.9-26.8,12.9-26.8S545.4,380.7,540.9,385.6Zm16.7-247s4.6,26.1,0,31-11,3.8-12.9-4.2C543.2,154.7,557.6,138.6,557.6,138.6Zm0.1,170c-4.5,4.9-11,3.8-12.9-4.2-1.5-10.7,12.9-26.8,12.9-26.8S562.3,303.7,557.7,308.6Zm18.2-62c-4.5,4.9-11,3.8-12.9-4.2-1.5-10.7,12.9-26.8,12.9-26.8S580.5,241.7,575.9,246.6Zm1.3-196.4c-1.4-10.7,12.9-26.8,12.9-26.8s4.5,26.1,0,31S579.1,58.2,577.2,50.2Zm18.5,136.6c-4.5,4.9-11,3.8-12.9-4.2-1.5-10.7,12.9-26.8,12.9-26.8S600.3,181.9,595.7,186.8Zm14-72.2c-4.5,4.9-11,3.8-12.9-4.2-1.5-10.7,12.9-26.8,12.9-26.8S614.3,109.7,609.7,114.6Zm30-56.8c-4.5,4.9-11,3.8-12.9-4.2-1.5-10.7,12.9-26.8,12.9-26.8S644.3,52.9,639.7,57.8Zm26,33c-4.5,4.9-11,3.8-12.9-4.2-1.5-10.7,12.9-26.8,12.9-26.8S670.3,85.9,665.7,90.8Zm34-27.2c-4.5,4.9-11,3.8-12.9-4.2-1.5-10.7,12.9-26.8,12.9-26.8S704.2,58.7,699.7,63.6Zm38,17.2c-4.5,4.9-11,3.8-12.9-4.2-1.5-10.7,12.9-26.8,12.9-26.8S742.3,75.9,737.7,80.8Zm162-64s4.6,26.1,0,31-11,3.8-12.9-4.2C885.3,32.9,899.7,16.8,899.7,16.8Zm-0.2,147s4.6,26.1,0,31-11,3.8-12.9-4.2C885.1,179.9,899.5,163.8,899.5,163.8ZM879.9,76.6s4.6,26.1,0,31-11,3.8-12.9-4.2C865.5,92.7,879.9,76.6,879.9,76.6Zm0.2,193.8c-4.5,4.9-11,3.8-12.9-4.2-1.4-10.7,12.9-26.8,12.9-26.8S884.7,265.5,880.1,270.4Zm-35-221.1s4.5,26.1,0,31-11,3.8-12.9-4.2C830.7,65.4,845.1,49.3,845.1,49.3ZM776.7,67.6c-4.5,4.9-11,3.8-12.9-4.2-1.5-10.7,12.9-26.8,12.9-26.8S781.2,62.7,776.7,67.6Zm22,28.2c-4.5,4.9-11,3.8-12.9-4.2-1.5-10.7,12.9-26.8,12.9-26.8S803.3,90.9,798.7,95.8Zm13.2-58.2c-4.5,4.9-11,3.8-12.9-4.2-1.5-10.8,12.9-26.8,12.9-26.8S816.4,32.7,811.9,37.6Zm16,495c-4.5,4.9-11,3.8-12.9-4.2-1.5-10.8,12.9-26.8,12.9-26.8S832.5,527.7,827.9,532.6Zm8.2-104.2c-4.5,4.9-11,3.8-12.9-4.2-1.4-10.7,12.9-26.8,12.9-26.8S840.7,423.5,836.1,428.4Zm1.8-146.8c-4.5,4.9-11,3.8-12.9-4.2-1.5-10.7,12.9-26.8,12.9-26.8S842.5,276.7,837.9,281.6Zm17.6,40.2s4.5,26.1,0,31-11,3.8-12.9-4.2C841.1,337.9,855.5,321.8,855.5,321.8Zm0.2,166.8c-4.5,4.9-11,3.8-12.9-4.2-1.5-10.7,12.9-26.8,12.9-26.8S860.3,483.7,855.7,488.6Zm2-266.8c-4.5,4.9-11,3.8-12.9-4.2-1.5-10.7,12.9-26.8,12.9-26.8S862.3,216.9,857.7,221.8Zm4-52.2c-4.5,4.9-11,3.8-12.9-4.2-1.5-10.7,12.9-26.8,12.9-26.8S866.3,164.7,861.7,169.6Zm15.9,356c-4.5,4.9-11,3.8-12.9-4.2-1.5-10.7,12.9-26.8,12.9-26.8S882.2,520.7,877.6,525.6Zm14.3-121c-4.5,4.9-11,3.8-12.9-4.2-1.5-10.8,12.9-26.8,12.9-26.8S896.4,399.7,891.9,404.6Zm7.8-74c-4.5,4.9-11,3.8-12.9-4.2-1.5-10.7,12.9-26.8,12.9-26.8S904.3,325.7,899.7,330.6Zm-4.9-78c-1.5-10.7,12.9-26.8,12.9-26.8s4.6,26.1,0,31S896.7,260.6,894.8,252.6Zm20.1-136s4.5,26.1,0,31-11,3.8-12.9-4.2C900.5,132.6,914.9,116.6,914.9,116.6Zm0.8,426.2c-4.5,4.9-11,3.8-12.9-4.2-1.5-10.7,12.9-26.8,12.9-26.8S920.3,537.9,915.7,542.8Zm6.4-79.5c-4.5,4.9-11,3.8-12.9-4.2-1.5-10.7,12.9-26.8,12.9-26.8S926.6,458.4,922.1,463.3Zm0-366.9c-4.5,4.9-11,3.8-12.9-4.2-1.4-10.7,12.9-26.8,12.9-26.8S926.6,91.5,922.1,96.4Zm23,109.9c-4.5,4.9-11,3.8-12.9-4.2-1.5-10.7,12.9-26.8,12.9-26.8S949.7,201.4,945.1,206.3Zm-3.4-80.7s4.6,26.1,0,31-11,3.8-12.9-4.2C927.3,141.7,941.7,125.6,941.7,125.6Zm-0.1,272c-4.5,4.9-11,3.8-12.9-4.2-1.5-10.7,12.9-26.8,12.9-26.8S946.2,392.7,941.6,397.6Zm15.9,118.2c-4.5,4.9-11,3.8-12.9-4.2-1.5-10.7,12.9-26.8,12.9-26.8S962.1,510.9,957.5,515.8Z" transform="translate(0.5 0.5)"/><path class="cls-3" d="M4.9,5.6A78.16,78.16,0,0,0-.4,12.39V39.5a8.42,8.42,0,0,0,5.3-2.9C9.4,31.7,4.9,5.6,4.9,5.6Z" transform="translate(0.5 0.5)"/><path class="cls-3" d="M92.7,46.8c4.5-4.9,0-31,0-31S78.3,31.9,79.8,42.6C81.7,50.6,88.2,51.7,92.7,46.8Z" transform="translate(0.5 0.5)"/><path class="cls-3" d="M121.6,15.6c1.9,8,8.4,9.1,12.9,4.2,2.48-2.64,2.28-11.45,1.58-19H125.91C123.16,5.62,121,11.09,121.6,15.6Z" transform="translate(0.5 0.5)"/><path class="cls-3" d="M41.7,25.4c1.9,8,8.4,9.1,12.9,4.2,3.7-4,1.31-22.42.35-28.8H52.76C48.93,5.57,40.54,17.1,41.7,25.4Z" transform="translate(0.5 0.5)"/><path class="cls-3" d="M115.1,95.4c4.6-4.9,0-31,0-31s-14.3,16.1-12.9,26.8C104.1,99.2,110.6,100.3,115.1,95.4Z" transform="translate(0.5 0.5)"/><path class="cls-3" d="M35.1,95.3c4.5-4.9,0-31,0-31S20.7,80.4,22.2,91.1C24.1,99.1,30.6,100.2,35.1,95.3Z" transform="translate(0.5 0.5)"/><path class="cls-3" d="M72.9,106.6c4.6-4.9,0-31,0-31S58.5,91.7,60,102.4C61.9,110.4,68.4,111.5,72.9,106.6Z" transform="translate(0.5 0.5)"/><path class="cls-3" d="M132.6,157.36a67.93,67.93,0,0,1,3.72-5.9c1.54-8.93-1.62-26.85-1.62-26.85s-14.4,16.1-12.9,26.8C123.42,158.22,128.38,160,132.6,157.36Z" transform="translate(0.5 0.5)"/><path class="cls-3" d="M-0.4,131v8.37A61.94,61.94,0,0,0-.4,131Z" transform="translate(0.5 0.5)"/><path class="cls-3" d="M50.68,171.24a59,59,0,0,1,6-10.37c0.46-9.42-2-23.27-2-23.27s-14.4,16.1-12.9,26.8C43.18,170.2,47,172.36,50.68,171.24Z" transform="translate(0.5 0.5)"/><path class="cls-3" d="M11.9,192.6c4.5-4.9,0-31,0-31S2.31,172.26-.4,182v8.25C2,196.53,7.79,197.08,11.9,192.6Z" transform="translate(0.5 0.5)"/><path class="cls-3" d="M86.8,198.6c1.9,8,8.4,9.1,12.9,4.2s0-31,0-31S85.3,187.9,86.8,198.6Z" transform="translate(0.5 0.5)"/><path class="cls-3" d="M128.6,171.6c1.9,8,8.4,9.1,12.9,4.2s0-31,0-31a79,79,0,0,0-5.18,6.65,67.93,67.93,0,0,0-3.72,5.9C130,162,128,167.26,128.6,171.6Z" transform="translate(0.5 0.5)"/><path class="cls-3" d="M48.7,181.4c1.9,8,8.4,9.1,12.9,4.2s0-31,0-31a78.57,78.57,0,0,0-4.92,6.27,59,59,0,0,0-6,10.37C49.17,174.73,48.26,178.29,48.7,181.4Z" transform="translate(0.5 0.5)"/><path class="cls-3" d="M122.1,251.4c4.6-4.9,0-31,0-31s-14.3,16.1-12.9,26.8C111.1,255.2,117.6,256.3,122.1,251.4Z" transform="translate(0.5 0.5)"/><path class="cls-3" d="M29.2,247.1c1.9,8,8.4,9.1,12.9,4.2s0-31,0-31S27.7,236.4,29.2,247.1Z" transform="translate(0.5 0.5)"/><path class="cls-3" d="M79.9,231.6S65.5,247.7,67,258.4c1.9,8,8.4,9.1,12.9,4.2S79.9,231.6,79.9,231.6Z" transform="translate(0.5 0.5)"/><path class="cls-3" d="M141.7,311.6c4.6-4.9,0-31,0-31s-14.4,16.1-12.9,26.8C130.7,315.4,137.2,316.5,141.7,311.6Z" transform="translate(0.5 0.5)"/><path class="cls-3" d="M4.7,270.8a78.56,78.56,0,0,0-5.1,6.53v27.34a8.51,8.51,0,0,0,5.1-2.87C9.2,296.9,4.7,270.8,4.7,270.8Z" transform="translate(0.5 0.5)"/><path class="cls-3" d="M61.7,324.6c4.6-4.9,0-31,0-31s-14.4,16.1-12.9,26.8C50.7,328.4,57.2,329.5,61.7,324.6Z" transform="translate(0.5 0.5)"/><path class="cls-3" d="M26,302.4c1.9,8,8.4,9.1,12.9,4.2s0-31,0-31S24.5,291.6,26,302.4Z" transform="translate(0.5 0.5)"/><path class="cls-3" d="M126.7,316.8c4.5-4.9,0-31,0-31s-14.4,16.1-12.9,26.8C115.7,320.6,122.2,321.7,126.7,316.8Z" transform="translate(0.5 0.5)"/><path class="cls-3" d="M168.5,289.8c4.6-4.9,0-31,0-31s-14.4,16.1-12.9,26.8C157.5,293.6,164,294.7,168.5,289.8Z" transform="translate(0.5 0.5)"/><path class="cls-3" d="M88.6,299.6c4.6-4.9,0-31,0-31s-14.4,16.1-12.9,26.8C77.6,303.4,84.1,304.5,88.6,299.6Z" transform="translate(0.5 0.5)"/><path class="cls-3" d="M136.2,361.2c1.9,8,8.4,9.1,12.9,4.2s0-31,0-31S134.8,350.5,136.2,361.2Z" transform="translate(0.5 0.5)"/><path class="cls-3" d="M56.2,361.1c1.9,8,8.4,9.1,12.9,4.2s0-31,0-31S54.7,350.4,56.2,361.1Z" transform="translate(0.5 0.5)"/><path class="cls-3" d="M94,372.4c1.9,8,8.4,9.1,12.9,4.2s0-31,0-31S92.5,361.7,94,372.4Z" transform="translate(0.5 0.5)"/><path class="cls-3" d="M168.7,394.6s-14.4,16.1-12.9,26.8c1.9,8,8.4,9.1,12.9,4.2S168.7,394.6,168.7,394.6Z" transform="translate(0.5 0.5)"/><path class="cls-3" d="M18.8,411.6c1.9,8,8.4,9.1,12.9,4.2s0-31,0-31S17.3,400.9,18.8,411.6Z" transform="translate(0.5 0.5)"/><path class="cls-3" d="M75.8,434.4c1.9,8,8.4,9.1,12.9,4.2s0-31,0-31S74.3,423.7,75.8,434.4Z" transform="translate(0.5 0.5)"/><path class="cls-3" d="M274.1,37.4c4.6-4.9,0-31,0-31s-14.3,16.1-12.9,26.8C263.1,41.2,269.6,42.3,274.1,37.4Z" transform="translate(0.5 0.5)"/><path class="cls-3" d="M194.1,37.3c4.6-4.9,0-31,0-31s-14.4,16.1-12.9,26.8C183.1,41.1,189.6,42.2,194.1,37.3Z" transform="translate(0.5 0.5)"/><path class="cls-3" d="M231.9,48.6c4.6-4.9,0-31,0-31S217.5,33.7,219,44.4C220.9,52.4,227.4,53.5,231.9,48.6Z" transform="translate(0.5 0.5)"/><path class="cls-3" d="M292.6,98.64c0.79-1.32,1.61-2.58,2.41-3.74,2.22-8.26-1.31-28.3-1.31-28.3s-14.4,16.1-12.9,26.8C282.55,100.77,288.2,102.27,292.6,98.64Z" transform="translate(0.5 0.5)"/><path class="cls-3" d="M156.7,87.8c4.6-4.9,0-31,0-31s-14.4,16.1-12.9,26.8C145.7,91.6,152.2,92.7,156.7,87.8Z" transform="translate(0.5 0.5)"/><path class="cls-3" d="M210.21,113.07a61.69,61.69,0,0,1,5.41-9.1c0.72-9.39-1.92-24.37-1.92-24.37s-14.4,16.1-12.9,26.8C202.24,112.48,206.34,114.56,210.21,113.07Z" transform="translate(0.5 0.5)"/><path class="cls-3" d="M158,131.4c1.9,8,8.4,9.1,12.9,4.2s0-31,0-31S156.5,120.6,158,131.4Z" transform="translate(0.5 0.5)"/><path class="cls-3" d="M258.7,145.8c4.6-4.9,0-31,0-31s-14.4,16.1-12.9,26.8C247.7,149.6,254.2,150.7,258.7,145.8Z" transform="translate(0.5 0.5)"/><path class="cls-3" d="M287.6,114.6c1.9,8,8.4,9.1,12.9,4.2s0-31,0-31A79.78,79.78,0,0,0,295,94.9c-0.8,1.16-1.62,2.42-2.41,3.74C289.54,103.72,286.92,109.72,287.6,114.6Z" transform="translate(0.5 0.5)"/><path class="cls-3" d="M207.7,124.4c1.9,8,8.4,9.1,12.9,4.2s0-31,0-31a78.61,78.61,0,0,0-5,6.37,61.69,61.69,0,0,0-5.41,9.1C208.39,116.93,207.22,120.94,207.7,124.4Z" transform="translate(0.5 0.5)"/><path class="cls-3" d="M268.2,190.2c1.9,8,8.4,9.1,12.9,4.2s0-31,0-31S266.8,179.5,268.2,190.2Z" transform="translate(0.5 0.5)"/><path class="cls-3" d="M201.1,163.3s-14.4,16.1-12.9,26.8c1.9,8,8.4,9.1,12.9,4.2S201.1,163.3,201.1,163.3Z" transform="translate(0.5 0.5)"/><path class="cls-3" d="M238.9,205.6c4.6-4.9,0-31,0-31s-14.4,16.1-12.9,26.8C227.9,209.4,234.4,210.5,238.9,205.6Z" transform="translate(0.5 0.5)"/><path class="cls-3" d="M287.8,250.4c1.9,8,8.4,9.1,12.9,4.2s0-31,0-31S286.3,239.7,287.8,250.4Z" transform="translate(0.5 0.5)"/><path class="cls-3" d="M163.7,244.8c4.6-4.9,0-31,0-31s-14.4,16.1-12.9,26.8C152.7,248.6,159.2,249.7,163.7,244.8Z" transform="translate(0.5 0.5)"/><path class="cls-3" d="M207.8,263.4c1.9,8,8.4,9.1,12.9,4.2s0-31,0-31S206.3,252.7,207.8,263.4Z" transform="translate(0.5 0.5)"/><path class="cls-3" d="M178,338.4c1.9,8,8.4,9.1,12.9,4.2s0-31,0-31S176.5,327.6,178,338.4Z" transform="translate(0.5 0.5)"/><path class="cls-3" d="M278.7,321.8s-14.4,16.1-12.9,26.8c1.9,8,8.4,9.1,12.9,4.2S278.7,321.8,278.7,321.8Z" transform="translate(0.5 0.5)"/><path class="cls-3" d="M320.5,325.8c4.6-4.9,0-31,0-31s-14.4,16.1-12.9,26.8C309.5,329.6,316,330.7,320.5,325.8Z" transform="translate(0.5 0.5)"/><path class="cls-3" d="M240.6,335.6c4.6-4.9,0-31,0-31s-14.4,16.1-12.9,26.8C229.6,339.4,236.1,340.5,240.6,335.6Z" transform="translate(0.5 0.5)"/><path class="cls-3" d="M288.2,397.2c1.9,8,8.4,9.1,12.9,4.2s0-31,0-31S286.8,386.5,288.2,397.2Z" transform="translate(0.5 0.5)"/><path class="cls-3" d="M208.2,397.1c1.9,8,8.4,9.1,12.9,4.2s0-31,0-31S206.7,386.4,208.2,397.1Z" transform="translate(0.5 0.5)"/><path class="cls-3" d="M246,408.4c1.9,8,8.4,9.1,12.9,4.2s0-31,0-31S244.5,397.7,246,408.4Z" transform="translate(0.5 0.5)"/><path class="cls-3" d="M307.8,457.4c1.9,8,8.4,9.1,12.9,4.2s0-31,0-31S306.3,446.7,307.8,457.4Z" transform="translate(0.5 0.5)"/><path class="cls-3" d="M170.8,447.6c1.9,8,8.4,9.1,12.9,4.2s0-31,0-31S169.3,436.9,170.8,447.6Z" transform="translate(0.5 0.5)"/><path class="cls-3" d="M240.7,443.6s-14.4,16.1-12.9,26.8c1.9,8,8.4,9.1,12.9,4.2S240.7,443.6,240.7,443.6Z" transform="translate(0.5 0.5)"/><path class="cls-3" d="M321.9,48.6c4.6-4.9,0-31,0-31s-14.4,16-12.9,26.8C310.9,52.4,317.4,53.5,321.9,48.6Z" transform="translate(0.5 0.5)"/><path class="cls-3" d="M409.7,58.8c4.6-4.9,0-31,0-31s-14.4,16.1-12.9,26.8C398.7,62.6,405.2,63.7,409.7,58.8Z" transform="translate(0.5 0.5)"/><path class="cls-3" d="M438.6,27.6c1.9,8,8.4,9.1,12.9,4.2s0-31,0-31S437.1,16.9,438.6,27.6Z" transform="translate(0.5 0.5)"/><path class="cls-3" d="M371.6,41.6c4.5-4.9,0-31,0-31s-14.4,16.1-12.9,26.8C360.6,45.4,367.1,46.5,371.6,41.6Z" transform="translate(0.5 0.5)"/><path class="cls-3" d="M432.1,107.4c4.6-4.9,0-31,0-31s-14.3,16.1-12.9,26.8C421.1,111.2,427.6,112.3,432.1,107.4Z" transform="translate(0.5 0.5)"/><path class="cls-3" d="M352.1,107.3c4.6-4.9,0-31,0-31s-14.4,16.1-12.9,26.8C341.1,111.1,347.6,112.2,352.1,107.3Z" transform="translate(0.5 0.5)"/><path class="cls-3" d="M389.9,118.6c4.6-4.9,0-31,0-31s-14.4,16.1-12.9,26.8C378.9,122.4,385.4,123.5,389.9,118.6Z" transform="translate(0.5 0.5)"/><path class="cls-3" d="M451.7,167.6c4.6-4.9,0-31,0-31s-14.4,16.1-12.9,26.8C440.7,171.4,447.2,172.5,451.7,167.6Z" transform="translate(0.5 0.5)"/><path class="cls-3" d="M314.7,126.8s-14.4,16.1-12.9,26.8c1.9,8,8.4,9.1,12.9,4.2S314.7,126.8,314.7,126.8Z" transform="translate(0.5 0.5)"/><path class="cls-3" d="M371.7,180.6c4.6-4.9,0-31,0-31s-14.4,16.1-12.9,26.8C360.7,184.4,367.2,185.5,371.7,180.6Z" transform="translate(0.5 0.5)"/><path class="cls-3" d="M497.2,50.1c1.9,8,8.4,9.1,12.9,4.2s0-31,0-31S495.7,39.4,497.2,50.1Z" transform="translate(0.5 0.5)"/><path class="cls-3" d="M547.9,65.6c4.6-4.9,0-31,0-31S533.5,50.7,535,61.4C536.9,69.4,543.4,70.5,547.9,65.6Z" transform="translate(0.5 0.5)"/><path class="cls-3" d="M459.8,100.6c1.9,8,8.4,9.1,12.9,4.2s0-31,0-31S458.3,89.9,459.8,100.6Z" transform="translate(0.5 0.5)"/><path class="cls-3" d="M529.7,127.6c4.6-4.9,0-31,0-31s-14.4,16.1-12.9,26.8C518.7,131.4,525.2,132.5,529.7,127.6Z" transform="translate(0.5 0.5)"/><path class="cls-3" d="M310,247.4c1.9,8,8.4,9.1,12.9,4.2s0-31,0-31S308.5,236.6,310,247.4Z" transform="translate(0.5 0.5)"/><path class="cls-3" d="M397.8,257.6c1.9,8,8.4,9.1,12.9,4.2s0-31,0-31S396.3,246.9,397.8,257.6Z" transform="translate(0.5 0.5)"/><path class="cls-3" d="M439.6,230.6c1.9,8,8.4,9.1,12.9,4.2s0-31,0-31S438.1,219.9,439.6,230.6Z" transform="translate(0.5 0.5)"/><path class="cls-3" d="M372.6,244.6c4.6-4.9,0-31,0-31s-14.4,16.1-12.9,26.8C361.6,248.4,368.1,249.5,372.6,244.6Z" transform="translate(0.5 0.5)"/><path class="cls-3" d="M433.1,279.4s-14.3,16.1-12.9,26.8c1.4,5.9,5.3,8,9.06,6.79l0.34-.39,0,0.25a9.43,9.43,0,0,0,3.46-2.45C437.7,305.5,433.1,279.4,433.1,279.4Z" transform="translate(0.5 0.5)"/><path class="cls-3" d="M340.2,306.1c1.9,8,8.4,9.1,12.9,4.2s0-31,0-31S338.7,295.4,340.2,306.1Z" transform="translate(0.5 0.5)"/><path class="cls-3" d="M378,317.4a13.22,13.22,0,0,0,1.14,3.08c0.48-.56.76-0.88,0.76-0.88s0.18,1,.43,2.67c2.85,3.28,7.25,2.94,10.57-.67,4.6-4.9,0-31,0-31S376.5,306.7,378,317.4Z" transform="translate(0.5 0.5)"/><path class="cls-3" d="M439.8,366.4c1.9,8,8.4,9.1,12.9,4.2s0-31,0-31S438.3,355.7,439.8,366.4Z" transform="translate(0.5 0.5)"/><path class="cls-3" d="M315.7,360.8c4.6-4.9,0-31,0-31s-14.4,16.1-12.9,26.8C304.7,364.6,311.2,365.7,315.7,360.8Z" transform="translate(0.5 0.5)"/><path class="cls-3" d="M359.8,379.4c1.9,8,8.4,9.1,12.9,4.2,4.12-4.39.86-25.79,0.14-30.19a5.77,5.77,0,0,1-.67-0.18C369.57,356.27,358.47,369.94,359.8,379.4Z" transform="translate(0.5 0.5)"/><path class="cls-3" d="M379.14,320.48C376.19,324,365.71,337.11,367,346.4c0.91,3.82,2.87,6.05,5.16,6.82a5.77,5.77,0,0,0,.67.18c2.33,0.48,4.92-.47,7.06-2.81,3.7-3.94,1.45-21.55.43-28.33-0.25-1.66-.43-2.67-0.43-2.67S379.61,319.92,379.14,320.48Z" transform="translate(0.5 0.5)"/><path class="cls-3" d="M467.7,360.8c4.6-4.9,0-31,0-31s-14.4,16.1-12.9,26.8C456.7,364.6,463.2,365.7,467.7,360.8Z" transform="translate(0.5 0.5)"/><path class="cls-3" d="M496.6,329.6c1.9,8,8.4,9.1,12.9,4.2s0-31,0-31S495.1,318.9,496.6,329.6Z" transform="translate(0.5 0.5)"/><path class="cls-3" d="M429.26,313c-2.17,2.52-13.92,16.69-12.56,26.41,1.9,8,8.4,9.1,12.9,4.2,4.25-4.62.48-28.11,0-30.75l0-.25Z" transform="translate(0.5 0.5)"/><path class="cls-3" d="M477.2,405.2c1.9,8,8.4,9.1,12.9,4.2s0-31,0-31S475.8,394.5,477.2,405.2Z" transform="translate(0.5 0.5)"/><path class="cls-3" d="M397.2,405.1c1.9,8,8.4,9.1,12.9,4.2s0-31,0-31S395.7,394.4,397.2,405.1Z" transform="translate(0.5 0.5)"/><path class="cls-3" d="M435,416.4c1.9,8,8.4,9.1,12.9,4.2s0-31,0-31S433.5,405.7,435,416.4Z" transform="translate(0.5 0.5)"/><path class="cls-3" d="M496.8,465.4c1.9,8,8.4,9.1,12.9,4.2s0-31,0-31S495.3,454.7,496.8,465.4Z" transform="translate(0.5 0.5)"/><path class="cls-3" d="M359.8,455.6c1.9,8,8.4,9.1,12.9,4.2s0-31,0-31S358.3,444.9,359.8,455.6Z" transform="translate(0.5 0.5)"/><path class="cls-3" d="M416.8,478.4c1.9,8,8.4,9.1,12.9,4.2s0-31,0-31S415.3,467.7,416.8,478.4Z" transform="translate(0.5 0.5)"/><path class="cls-3" d="M495,172.4c1.9,8,8.4,9.1,12.9,4.2s0-31,0-31S493.5,161.6,495,172.4Z" transform="translate(0.5 0.5)"/><path class="cls-3" d="M525.2,231.1c1.9,8,8.4,9.1,12.9,4.2s0-31,0-31S523.7,220.4,525.2,231.1Z" transform="translate(0.5 0.5)"/><path class="cls-3" d="M500.7,285.8c4.6-4.9,0-31,0-31s-14.4,16.1-12.9,26.8C489.7,289.6,496.2,290.7,500.7,285.8Z" transform="translate(0.5 0.5)"/><path class="cls-3" d="M520.8,490.6c1.9,8,8.4,9.1,12.9,4.2s0-31,0-31S519.3,479.9,520.8,490.6Z" transform="translate(0.5 0.5)"/><path class="cls-3" d="M266.7,259.8s-14.4,16.1-12.9,26.8c1.9,8,8.4,9.1,12.9,4.2S266.7,259.8,266.7,259.8Z" transform="translate(0.5 0.5)"/><path class="cls-3" d="M6,454.4c1.9,8,8.4,9.1,12.9,4.2s0-31,0-31S4.5,443.6,6,454.4Z" transform="translate(0.5 0.5)"/><path class="cls-3" d="M93.8,464.6c1.9,8,8.4,9.1,12.9,4.2s0-31,0-31S92.3,453.9,93.8,464.6Z" transform="translate(0.5 0.5)"/><path class="cls-3" d="M148.5,410.8s-14.4,16.1-12.9,26.8c1.9,8,8.4,9.1,12.9,4.2S148.5,410.8,148.5,410.8Z" transform="translate(0.5 0.5)"/><path class="cls-3" d="M55.7,447.4c1.9,8,8.4,9.1,12.9,4.2s0-31,0-31S54.2,436.7,55.7,447.4Z" transform="translate(0.5 0.5)"/><path class="cls-3" d="M116.2,513.2c1.9,8,8.4,9.1,12.9,4.2s0-31,0-31S114.8,502.5,116.2,513.2Z" transform="translate(0.5 0.5)"/><path class="cls-3" d="M36.2,513.1c1.9,8,8.4,9.1,12.9,4.2s0-31,0-31S34.7,502.4,36.2,513.1Z" transform="translate(0.5 0.5)"/><path class="cls-3" d="M74,524.4c1.9,8,8.4,9.1,12.9,4.2s0-31,0-31S72.5,513.7,74,524.4Z" transform="translate(0.5 0.5)"/><path class="cls-3" d="M139.34,560H150.4c-0.58-7-1.7-13.4-1.7-13.4A77.84,77.84,0,0,0,139.34,560Z" transform="translate(0.5 0.5)"/><path class="cls-3" d="M11.7,536.8S2.55,547-.4,556.61V560H13.69C14.13,550.59,11.7,536.8,11.7,536.8Z" transform="translate(0.5 0.5)"/><path class="cls-3" d="M68.35,560h0.42l-0.07-.4Z" transform="translate(0.5 0.5)"/><path class="cls-3" d="M150,505.4c1.9,8,8.4,9.1,12.9,4.2s0-31,0-31S148.5,494.6,150,505.4Z" transform="translate(0.5 0.5)"/><path class="cls-3" d="M237.8,515.6c1.9,8,8.4,9.1,12.9,4.2s0-31,0-31S236.3,504.9,237.8,515.6Z" transform="translate(0.5 0.5)"/><path class="cls-3" d="M279.6,488.6c1.9,8,8.4,9.1,12.9,4.2s0-31,0-31S278.1,477.9,279.6,488.6Z" transform="translate(0.5 0.5)"/><path class="cls-3" d="M199.7,498.4c1.9,8,8.4,9.1,12.9,4.2s0-31,0-31S198.2,487.7,199.7,498.4Z" transform="translate(0.5 0.5)"/><path class="cls-3" d="M273.1,537.4s-11,12.35-12.75,22.6h14.76C275.43,550.61,273.1,537.4,273.1,537.4Z" transform="translate(0.5 0.5)"/><path class="cls-3" d="M193.1,537.3S182,549.73,180.31,560h14.8C195.44,550.61,193.1,537.3,193.1,537.3Z" transform="translate(0.5 0.5)"/><path class="cls-3" d="M222.66,560h9.76c-0.61-6.2-1.52-11.4-1.52-11.4A79.8,79.8,0,0,0,222.66,560Z" transform="translate(0.5 0.5)"/><path class="cls-3" d="M328,523.4c1.9,8,8.4,9.1,12.9,4.2s0-31,0-31S326.5,512.6,328,523.4Z" transform="translate(0.5 0.5)"/><path class="cls-3" d="M415.8,533.6c1.9,8,8.4,9.1,12.9,4.2s0-31,0-31S414.3,522.9,415.8,533.6Z" transform="translate(0.5 0.5)"/><path class="cls-3" d="M457.6,506.6c1.9,8,8.4,9.1,12.9,4.2s0-31,0-31S456.1,495.9,457.6,506.6Z" transform="translate(0.5 0.5)"/><path class="cls-3" d="M377.7,516.4c1.9,8,8.4,9.1,12.9,4.2s0-31,0-31S376.2,505.7,377.7,516.4Z" transform="translate(0.5 0.5)"/><path class="cls-3" d="M460.1,538.4S449.83,550,447.55,560h14.59C462.27,550.7,460.1,538.4,460.1,538.4Z" transform="translate(0.5 0.5)"/><path class="cls-3" d="M361.1,537.3S350,549.73,348.31,560h14.8C363.44,550.61,361.1,537.3,361.1,537.3Z" transform="translate(0.5 0.5)"/><path class="cls-3" d="M494.8,548.6c1.9,8,8.4,9.1,12.9,4.2s0-31,0-31S493.3,537.9,494.8,548.6Z" transform="translate(0.5 0.5)"/><path class="cls-3" d="M528,381.4c1.9,8,8.4,9.1,12.9,4.2s0-31,0-31S526.5,370.6,528,381.4Z" transform="translate(0.5 0.5)"/><path class="cls-3" d="M567.7,5.8c0.9-1,1.45-2.76,1.75-5H554.73c0,0.27,0,.54.07,0.8C556.7,9.6,563.2,10.7,567.7,5.8Z" transform="translate(0.5 0.5)"/><path class="cls-3" d="M590.1,54.4c4.5-4.9,0-31,0-31s-14.3,16.1-12.9,26.8C579.1,58.2,585.6,59.3,590.1,54.4Z" transform="translate(0.5 0.5)"/><path class="cls-3" d="M744.2,3.2c1.9,8,8.4,9.1,12.9,4.2,1.09-1.18,1.65-3.61,1.87-6.6H744.14A12.5,12.5,0,0,0,744.2,3.2Z" transform="translate(0.5 0.5)"/><path class="cls-3" d="M664.2,3.1c1.9,8,8.4,9.1,12.9,4.2,1.07-1.17,1.63-3.56,1.86-6.5H664.11A12.24,12.24,0,0,0,664.2,3.1Z" transform="translate(0.5 0.5)"/><path class="cls-3" d="M702,14.4c1.9,8,8.4,9.1,12.9,4.2,2.35-2.5,2.3-10.54,1.69-17.8H705.65C703.22,5.31,701.42,10.26,702,14.4Z" transform="translate(0.5 0.5)"/><path class="cls-3" d="M626.8,53.6c1.9,8,8.4,9.1,12.9,4.2s0-31,0-31S625.3,42.9,626.8,53.6Z" transform="translate(0.5 0.5)"/><path class="cls-3" d="M799,33.4c1.9,8,8.4,9.1,12.9,4.2s0-31,0-31S797.5,22.6,799,33.4Z" transform="translate(0.5 0.5)"/><path class="cls-3" d="M899.7,47.8c4.6-4.9,0-31,0-31s-14.4,16.1-12.9,26.8C888.7,51.6,895.2,52.7,899.7,47.8Z" transform="translate(0.5 0.5)"/><path class="cls-3" d="M928.6,16.6c1.9,8,8.4,9.1,12.9,4.2C944,18,943.71,8.56,943,.8H933.5C930.48,5.85,927.92,11.77,928.6,16.6Z" transform="translate(0.5 0.5)"/><path class="cls-3" d="M848.7,26.4c1.9,8,8.4,9.1,12.9,4.2,4-4.27,1-24.63.2-29.8h-1.22C857.32,4.72,847.44,17.45,848.7,26.4Z" transform="translate(0.5 0.5)"/><path class="cls-3" d="M763.8,63.4c1.9,8,8.4,9.1,12.9,4.2s0-31,0-31S762.3,52.7,763.8,63.4Z" transform="translate(0.5 0.5)"/><path class="cls-3" d="M686.8,59.4c1.9,8,8.4,9.1,12.9,4.2s0-31,0-31S685.3,48.7,686.8,59.4Z" transform="translate(0.5 0.5)"/><path class="cls-3" d="M909.2,92.2c1.9,8,8.4,9.1,12.9,4.2s0-31,0-31S907.8,81.5,909.2,92.2Z" transform="translate(0.5 0.5)"/><path class="cls-3" d="M879.9,107.6c4.6-4.9,0-31,0-31S865.5,92.7,867,103.4C868.9,111.4,875.4,112.5,879.9,107.6Z" transform="translate(0.5 0.5)"/><path class="cls-3" d="M941.7,156.6c4.6-4.9,0-31,0-31s-14.4,16.1-12.9,26.8C930.7,160.4,937.2,161.5,941.7,156.6Z" transform="translate(0.5 0.5)"/><path class="cls-3" d="M848.8,165.4c1.9,8,8.4,9.1,12.9,4.2s0-31,0-31S847.3,154.7,848.8,165.4Z" transform="translate(0.5 0.5)"/><path class="cls-3" d="M844.8,217.6c1.9,8,8.4,9.1,12.9,4.2s0-31,0-31S843.3,206.9,844.8,217.6Z" transform="translate(0.5 0.5)"/><path class="cls-3" d="M899.5,194.8c4.6-4.9,0-31,0-31s-14.4,16.1-12.9,26.8C888.5,198.6,895,199.7,899.5,194.8Z" transform="translate(0.5 0.5)"/><path class="cls-3" d="M886.8,326.4c1.9,8,8.4,9.1,12.9,4.2s0-31,0-31S885.3,315.7,886.8,326.4Z" transform="translate(0.5 0.5)"/><path class="cls-3" d="M914.9,147.6c4.5-4.9,0-31,0-31s-14.4,16-12.9,26.8C903.9,151.4,910.4,152.5,914.9,147.6Z" transform="translate(0.5 0.5)"/><path class="cls-3" d="M951.7,136.4c1.31,5.5,4.79,7.74,8.3,7v-28C955.93,121.09,950.77,129.78,951.7,136.4Z" transform="translate(0.5 0.5)"/><path class="cls-3" d="M932.2,202.1c1.9,8,8.4,9.1,12.9,4.2s0-31,0-31S930.7,191.4,932.2,202.1Z" transform="translate(0.5 0.5)"/><path class="cls-3" d="M907.7,225.8s-14.4,16.1-12.9,26.8c1.9,8,8.4,9.1,12.9,4.2S907.7,225.8,907.7,225.8Z" transform="translate(0.5 0.5)"/><path class="cls-3" d="M951.8,275.4c1.29,5.45,4.72,7.69,8.2,7V254.57C955.95,260.24,950.88,268.83,951.8,275.4Z" transform="translate(0.5 0.5)"/><path class="cls-3" d="M879,400.4c1.9,8,8.4,9.1,12.9,4.2s0-31,0-31S877.5,389.6,879,400.4Z" transform="translate(0.5 0.5)"/><path class="cls-3" d="M928.7,393.4c1.9,8,8.4,9.1,12.9,4.2s0-31,0-31S927.2,382.7,928.7,393.4Z" transform="translate(0.5 0.5)"/><path class="cls-3" d="M909.2,459.1c1.9,8,8.4,9.1,12.9,4.2s0-31,0-31S907.7,448.4,909.2,459.1Z" transform="translate(0.5 0.5)"/><path class="cls-3" d="M947,470.4c1.9,8,8.4,9.1,12.9,4.2l0.1-.13V444.19l-0.1-.59S945.5,459.7,947,470.4Z" transform="translate(0.5 0.5)"/><path class="cls-3" d="M902.8,538.6c1.9,8,8.4,9.1,12.9,4.2s0-31,0-31S901.3,527.9,902.8,538.6Z" transform="translate(0.5 0.5)"/><path class="cls-3" d="M944.6,511.6c1.9,8,8.4,9.1,12.9,4.2s0-31,0-31S943.1,500.9,944.6,511.6Z" transform="translate(0.5 0.5)"/><path class="cls-3" d="M864.7,521.4c1.9,8,8.4,9.1,12.9,4.2s0-31,0-31S863.2,510.7,864.7,521.4Z" transform="translate(0.5 0.5)"/><path class="cls-3" d="M815,528.4c1.9,8,8.4,9.1,12.9,4.2s0-31,0-31S813.5,517.6,815,528.4Z" transform="translate(0.5 0.5)"/><path class="cls-3" d="M825,277.4c1.9,8,8.4,9.1,12.9,4.2s0-31,0-31S823.5,266.7,825,277.4Z" transform="translate(0.5 0.5)"/><path class="cls-3" d="M855.5,352.8c4.5-4.9,0-31,0-31s-14.4,16.1-12.9,26.8C844.5,356.6,851,357.7,855.5,352.8Z" transform="translate(0.5 0.5)"/><path class="cls-3" d="M823.2,424.2c1.9,8,8.4,9.1,12.9,4.2s0-31,0-31S821.8,413.5,823.2,424.2Z" transform="translate(0.5 0.5)"/><path class="cls-3" d="M842.8,484.4c1.9,8,8.4,9.1,12.9,4.2s0-31,0-31S841.3,473.7,842.8,484.4Z" transform="translate(0.5 0.5)"/><path class="cls-3" d="M596.8,110.4c1.9,8,8.4,9.1,12.9,4.2s0-31,0-31S595.3,99.7,596.8,110.4Z" transform="translate(0.5 0.5)"/><path class="cls-3" d="M557.6,169.6c4.6-4.9,0-31,0-31s-14.4,16.1-12.9,26.8C546.6,173.4,553.1,174.5,557.6,169.6Z" transform="translate(0.5 0.5)"/><path class="cls-3" d="M845.1,80.3c4.5-4.9,0-31,0-31s-14.4,16.1-12.9,26.8C834.1,84.1,840.6,85.2,845.1,80.3Z" transform="translate(0.5 0.5)"/><path class="cls-3" d="M652.8,86.6c1.9,8,8.4,9.1,12.9,4.2s0-31,0-31S651.3,75.9,652.8,86.6Z" transform="translate(0.5 0.5)"/><path class="cls-3" d="M724.8,76.6c1.9,8,8.4,9.1,12.9,4.2s0-31,0-31S723.3,65.9,724.8,76.6Z" transform="translate(0.5 0.5)"/><path class="cls-3" d="M785.8,91.6c1.9,8,8.4,9.1,12.9,4.2s0-31,0-31S784.3,80.9,785.8,91.6Z" transform="translate(0.5 0.5)"/><path class="cls-3" d="M582.8,182.6c1.9,8,8.4,9.1,12.9,4.2s0-31,0-31S581.3,171.9,582.8,182.6Z" transform="translate(0.5 0.5)"/><path class="cls-3" d="M563,242.4c1.9,8,8.4,9.1,12.9,4.2s0-31,0-31S561.5,231.7,563,242.4Z" transform="translate(0.5 0.5)"/><path class="cls-3" d="M544.8,304.4c1.9,8,8.4,9.1,12.9,4.2s0-31,0-31S543.3,293.7,544.8,304.4Z" transform="translate(0.5 0.5)"/></svg>