<?xml version="1.0" encoding="utf-8"?>
<!-- Generator: Adobe Illustrator 19.2.1, SVG Export Plug-In . SVG Version: 6.00 Build 0)  -->
<svg version="1.1" xmlns="http://www.w3.org/2000/svg" xmlns:xlink="http://www.w3.org/1999/xlink" x="0px" y="0px"
	 viewBox="0 0 960 560" style="enable-background:new 0 0 960 560;" xml:space="preserve">
<style type="text/css">
	.st0{fill:#6F7272;stroke:#000000;stroke-miterlimit:10;}
	.st1{fill:#507A49;}
	.st2{fill:#3E8E9B;}
	.st3{fill:#424449;stroke:#050606;stroke-width:0.25;stroke-miterlimit:10;}
	.st4{fill:#63544B;}
	.st5{fill:#816756;}
	.st6{fill:#FCFCC0;stroke:#222222;stroke-miterlimit:10;}
	.st7{fill:#E0DEAF;}
	.st8{fill:#816756;stroke:#222222;stroke-width:0.5;stroke-miterlimit:10;}
	.st9{fill:#63544B;stroke:#222222;stroke-width:0.5;stroke-miterlimit:10;}
	.st10{fill:#635578;stroke:#050606;stroke-miterlimit:10;}
	.st11{fill:none;stroke:#050606;stroke-width:0.75;stroke-miterlimit:10;}
	.st12{fill:#816756;stroke:#222222;stroke-miterlimit:10;}
	.st13{fill:#424449;stroke:#222222;stroke-width:0.25;stroke-miterlimit:10;}
	.st14{fill:#B0AFB4;stroke:#050606;stroke-width:0.5;stroke-miterlimit:10;}
	.st15{fill:#2B4748;}
	.st16{fill:#050606;}
	.st17{fill:#FBFBF8;}
	.st18{fill:#FBFBF8;stroke:#000000;stroke-miterlimit:10;}
	.st19{fill:#5D7B3B;stroke:#000000;stroke-width:0.5;stroke-miterlimit:10;}
	.st20{fill:none;stroke:#010101;stroke-width:0.75;stroke-miterlimit:10;}
	.st21{fill:#63544B;stroke:#63544B;stroke-miterlimit:10;}
	.st22{fill:#473D37;}
	.st23{fill:#2F3E1E;}
	.st24{fill:#837090;stroke:#050606;stroke-width:0.75;stroke-miterlimit:10;}
	.st25{fill:#635578;}
	.st26{fill:#837090;stroke:#050606;stroke-width:0.5;stroke-miterlimit:10;}
	.st27{fill:#2F3030;}
	.st28{fill:#010101;}
</style>
<g id="Background">
	<rect class="st0" width="960" height="560"/>
	<path class="st1" d="M-0.2,560l-0.2-259.5c0,0,139.2-91.2,475.3,0C714.2,365.5,959,317,959,317v243"/>
</g>
<g id="Rain">
	<path class="st2" d="M-8,32.4c1.9,8,8.4,9.1,12.9,4.2s0-31,0-31S-9.5,21.6-8,32.4z"/>
	<path class="st2" d="M79.8,42.6c1.9,8,8.4,9.1,12.9,4.2s0-31,0-31S78.3,31.9,79.8,42.6z"/>
	<path class="st2" d="M121.6,15.6c1.9,8,8.4,9.1,12.9,4.2c4.6-4.9,0-31,0-31S120.1,4.9,121.6,15.6z"/>
	<path class="st2" d="M41.7,25.4c1.9,8,8.4,9.1,12.9,4.2s0-31,0-31S40.2,14.7,41.7,25.4z"/>
	<path class="st2" d="M102.2,91.2c1.9,8,8.4,9.1,12.9,4.2c4.6-4.9,0-31,0-31S100.8,80.5,102.2,91.2z"/>
	<path class="st2" d="M22.2,91.1c1.9,8,8.4,9.1,12.9,4.2s0-31,0-31S20.7,80.4,22.2,91.1z"/>
	<path class="st2" d="M60,102.4c1.9,8,8.4,9.1,12.9,4.2c4.6-4.9,0-31,0-31S58.5,91.7,60,102.4z"/>
	<path class="st2" d="M121.8,151.4c1.9,8,8.4,9.1,12.9,4.2c4.6-4.9,0-31,0-31S120.3,140.7,121.8,151.4z"/>
	<path class="st2" d="M-15.2,141.6c1.9,8,8.4,9.1,12.9,4.2c4.6-4.9,0-31,0-31S-16.7,130.9-15.2,141.6z"/>
	<path class="st2" d="M41.8,164.4c1.9,8,8.4,9.1,12.9,4.2c4.6-4.9,0-31,0-31S40.3,153.7,41.8,164.4z"/>
	<g>
		<path class="st2" d="M-1,188.4c1.9,8,8.4,9.1,12.9,4.2s0-31,0-31S-2.5,177.6-1,188.4z"/>
		<path class="st2" d="M86.8,198.6c1.9,8,8.4,9.1,12.9,4.2c4.6-4.9,0-31,0-31S85.3,187.9,86.8,198.6z"/>
		<path class="st2" d="M128.6,171.6c1.9,8,8.4,9.1,12.9,4.2c4.6-4.9,0-31,0-31S127.1,160.9,128.6,171.6z"/>
		<path class="st2" d="M48.7,181.4c1.9,8,8.4,9.1,12.9,4.2c4.6-4.9,0-31,0-31S47.2,170.7,48.7,181.4z"/>
		<path class="st2" d="M109.2,247.2c1.9,8,8.4,9.1,12.9,4.2c4.6-4.9,0-31,0-31S107.8,236.5,109.2,247.2z"/>
		<path class="st2" d="M29.2,247.1c1.9,8,8.4,9.1,12.9,4.2s0-31,0-31S27.7,236.4,29.2,247.1z"/>
		<path class="st2" d="M67,258.4c1.9,8,8.4,9.1,12.9,4.2c4.6-4.9,0-31,0-31S65.5,247.7,67,258.4z"/>
		<path class="st2" d="M128.8,307.4c1.9,8,8.4,9.1,12.9,4.2c4.6-4.9,0-31,0-31S127.3,296.7,128.8,307.4z"/>
		<path class="st2" d="M-8.2,297.6c1.9,8,8.4,9.1,12.9,4.2s0-31,0-31S-9.7,286.9-8.2,297.6z"/>
		<path class="st2" d="M48.8,320.4c1.9,8,8.4,9.1,12.9,4.2c4.6-4.9,0-31,0-31S47.3,309.7,48.8,320.4z"/>
	</g>
	<path class="st2" d="M26,302.4c1.9,8,8.4,9.1,12.9,4.2s0-31,0-31S24.5,291.6,26,302.4z"/>
	<path class="st2" d="M113.8,312.6c1.9,8,8.4,9.1,12.9,4.2s0-31,0-31S112.3,301.9,113.8,312.6z"/>
	<path class="st2" d="M155.6,285.6c1.9,8,8.4,9.1,12.9,4.2c4.6-4.9,0-31,0-31S154.1,274.9,155.6,285.6z"/>
	<path class="st2" d="M75.7,295.4c1.9,8,8.4,9.1,12.9,4.2c4.6-4.9,0-31,0-31S74.2,284.7,75.7,295.4z"/>
	<path class="st2" d="M136.2,361.2c1.9,8,8.4,9.1,12.9,4.2c4.6-4.9,0-31,0-31S134.8,350.5,136.2,361.2z"/>
	<path class="st2" d="M56.2,361.1c1.9,8,8.4,9.1,12.9,4.2s0-31,0-31S54.7,350.4,56.2,361.1z"/>
	<path class="st2" d="M94,372.4c1.9,8,8.4,9.1,12.9,4.2c4.6-4.9,0-31,0-31S92.5,361.7,94,372.4z"/>
	<path class="st2" d="M155.8,421.4c1.9,8,8.4,9.1,12.9,4.2c4.6-4.9,0-31,0-31S154.3,410.7,155.8,421.4z"/>
	<path class="st2" d="M18.8,411.6c1.9,8,8.4,9.1,12.9,4.2s0-31,0-31S17.3,400.9,18.8,411.6z"/>
	<path class="st2" d="M75.8,434.4c1.9,8,8.4,9.1,12.9,4.2c4.6-4.9,0-31,0-31S74.3,423.7,75.8,434.4z"/>
	<path class="st2" d="M261.2,33.2c1.9,8,8.4,9.1,12.9,4.2c4.6-4.9,0-31,0-31S259.8,22.5,261.2,33.2z"/>
	<path class="st2" d="M181.2,33.1c1.9,8,8.4,9.1,12.9,4.2c4.6-4.9,0-31,0-31S179.7,22.4,181.2,33.1z"/>
	<path class="st2" d="M219,44.4c1.9,8,8.4,9.1,12.9,4.2c4.6-4.9,0-31,0-31S217.5,33.7,219,44.4z"/>
	<path class="st2" d="M280.8,93.4c1.9,8,8.4,9.1,12.9,4.2c4.6-4.9,0-31,0-31S279.3,82.7,280.8,93.4z"/>
	<path class="st2" d="M143.8,83.6c1.9,8,8.4,9.1,12.9,4.2c4.6-4.9,0-31,0-31S142.3,72.9,143.8,83.6z"/>
	<path class="st2" d="M200.8,106.4c1.9,8,8.4,9.1,12.9,4.2c4.6-4.9,0-31,0-31S199.3,95.7,200.8,106.4z"/>
	<g>
		<path class="st2" d="M158,131.4c1.9,8,8.4,9.1,12.9,4.2c4.6-4.9,0-31,0-31S156.5,120.6,158,131.4z"/>
		<path class="st2" d="M245.8,141.6c1.9,8,8.4,9.1,12.9,4.2c4.6-4.9,0-31,0-31S244.3,130.9,245.8,141.6z"/>
		<path class="st2" d="M287.6,114.6c1.9,8,8.4,9.1,12.9,4.2c4.6-4.9,0-31,0-31S286.1,103.9,287.6,114.6z"/>
		<path class="st2" d="M207.7,124.4c1.9,8,8.4,9.1,12.9,4.2c4.6-4.9,0-31,0-31S206.2,113.7,207.7,124.4z"/>
		<path class="st2" d="M268.2,190.2c1.9,8,8.4,9.1,12.9,4.2c4.6-4.9,0-31,0-31S266.8,179.5,268.2,190.2z"/>
		<path class="st2" d="M188.2,190.1c1.9,8,8.4,9.1,12.9,4.2c4.6-4.9,0-31,0-31S186.7,179.4,188.2,190.1z"/>
		<path class="st2" d="M226,201.4c1.9,8,8.4,9.1,12.9,4.2c4.6-4.9,0-31,0-31S224.5,190.7,226,201.4z"/>
		<path class="st2" d="M287.8,250.4c1.9,8,8.4,9.1,12.9,4.2s0-31,0-31S286.3,239.7,287.8,250.4z"/>
		<path class="st2" d="M150.8,240.6c1.9,8,8.4,9.1,12.9,4.2c4.6-4.9,0-31,0-31S149.3,229.9,150.8,240.6z"/>
		<path class="st2" d="M207.8,263.4c1.9,8,8.4,9.1,12.9,4.2c4.6-4.9,0-31,0-31S206.3,252.7,207.8,263.4z"/>
	</g>
	<g>
		<path class="st2" d="M178,338.4c1.9,8,8.4,9.1,12.9,4.2c4.6-4.9,0-31,0-31S176.5,327.6,178,338.4z"/>
		<path class="st2" d="M265.8,348.6c1.9,8,8.4,9.1,12.9,4.2c4.6-4.9,0-31,0-31S264.3,337.9,265.8,348.6z"/>
		<path class="st2" d="M307.6,321.6c1.9,8,8.4,9.1,12.9,4.2c4.6-4.9,0-31,0-31S306.1,310.9,307.6,321.6z"/>
		<path class="st2" d="M227.7,331.4c1.9,8,8.4,9.1,12.9,4.2c4.6-4.9,0-31,0-31S226.2,320.7,227.7,331.4z"/>
		<path class="st2" d="M288.2,397.2c1.9,8,8.4,9.1,12.9,4.2c4.6-4.9,0-31,0-31S286.8,386.5,288.2,397.2z"/>
		<path class="st2" d="M208.2,397.1c1.9,8,8.4,9.1,12.9,4.2c4.6-4.9,0-31,0-31S206.7,386.4,208.2,397.1z"/>
		<path class="st2" d="M246,408.4c1.9,8,8.4,9.1,12.9,4.2c4.6-4.9,0-31,0-31S244.5,397.7,246,408.4z"/>
		<path class="st2" d="M307.8,457.4c1.9,8,8.4,9.1,12.9,4.2c4.6-4.9,0-31,0-31S306.3,446.7,307.8,457.4z"/>
		<path class="st2" d="M170.8,447.6c1.9,8,8.4,9.1,12.9,4.2c4.6-4.9,0-31,0-31S169.3,436.9,170.8,447.6z"/>
		<path class="st2" d="M227.8,470.4c1.9,8,8.4,9.1,12.9,4.2c4.6-4.9,0-31,0-31S226.3,459.7,227.8,470.4z"/>
	</g>
	<g>
		<path class="st2" d="M309,44.4c1.9,8,8.4,9.1,12.9,4.2c4.6-4.9,0-31,0-31S307.5,33.6,309,44.4z"/>
		<path class="st2" d="M396.8,54.6c1.9,8,8.4,9.1,12.9,4.2c4.6-4.9,0-31,0-31S395.3,43.9,396.8,54.6z"/>
		<path class="st2" d="M438.6,27.6c1.9,8,8.4,9.1,12.9,4.2c4.6-4.9,0-31,0-31S437.1,16.9,438.6,27.6z"/>
		<path class="st2" d="M358.7,37.4c1.9,8,8.4,9.1,12.9,4.2s0-31,0-31S357.2,26.7,358.7,37.4z"/>
		<path class="st2" d="M419.2,103.2c1.9,8,8.4,9.1,12.9,4.2c4.6-4.9,0-31,0-31S417.8,92.5,419.2,103.2z"/>
		<path class="st2" d="M339.2,103.1c1.9,8,8.4,9.1,12.9,4.2c4.6-4.9,0-31,0-31S337.7,92.4,339.2,103.1z"/>
		<path class="st2" d="M377,114.4c1.9,8,8.4,9.1,12.9,4.2c4.6-4.9,0-31,0-31S375.5,103.7,377,114.4z"/>
		<path class="st2" d="M438.8,163.4c1.9,8,8.4,9.1,12.9,4.2c4.6-4.9,0-31,0-31S437.3,152.7,438.8,163.4z"/>
		<path class="st2" d="M301.8,153.6c1.9,8,8.4,9.1,12.9,4.2c4.6-4.9,0-31,0-31S300.3,142.9,301.8,153.6z"/>
		<path class="st2" d="M358.8,176.4c1.9,8,8.4,9.1,12.9,4.2c4.6-4.9,0-31,0-31S357.3,165.7,358.8,176.4z"/>
	</g>
	<path class="st2" d="M554.8,1.6c1.9,8,8.4,9.1,12.9,4.2c4.6-4.9,0-31,0-31S553.3-9.1,554.8,1.6z"/>
	<path class="st2" d="M577.2,50.2c1.9,8,8.4,9.1,12.9,4.2s0-31,0-31S575.8,39.5,577.2,50.2z"/>
	<path class="st2" d="M497.2,50.1c1.9,8,8.4,9.1,12.9,4.2c4.6-4.9,0-31,0-31S495.7,39.4,497.2,50.1z"/>
	<path class="st2" d="M535,61.4c1.9,8,8.4,9.1,12.9,4.2c4.6-4.9,0-31,0-31S533.5,50.7,535,61.4z"/>
	<path class="st2" d="M596.8,110.4c1.9,8,8.4,9.1,12.9,4.2c4.6-4.9,0-31,0-31S595.3,99.7,596.8,110.4z"/>
	<path class="st2" d="M459.8,100.6c1.9,8,8.4,9.1,12.9,4.2c4.6-4.9,0-31,0-31S458.3,89.9,459.8,100.6z"/>
	<path class="st2" d="M516.8,123.4c1.9,8,8.4,9.1,12.9,4.2c4.6-4.9,0-31,0-31S515.3,112.7,516.8,123.4z"/>
	<g>
		<path class="st2" d="M310,247.4c1.9,8,8.4,9.1,12.9,4.2c4.6-4.9,0-31,0-31S308.5,236.6,310,247.4z"/>
		<path class="st2" d="M397.8,257.6c1.9,8,8.4,9.1,12.9,4.2c4.6-4.9,0-31,0-31S396.3,246.9,397.8,257.6z"/>
		<path class="st2" d="M439.6,230.6c1.9,8,8.4,9.1,12.9,4.2c4.6-4.9,0-31,0-31S438.1,219.9,439.6,230.6z"/>
		<path class="st2" d="M359.7,240.4c1.9,8,8.4,9.1,12.9,4.2c4.6-4.9,0-31,0-31S358.2,229.7,359.7,240.4z"/>
		<path class="st2" d="M420.2,306.2c1.9,8,8.4,9.1,12.9,4.2c4.6-4.9,0-31,0-31S418.8,295.5,420.2,306.2z"/>
		<path class="st2" d="M340.2,306.1c1.9,8,8.4,9.1,12.9,4.2c4.6-4.9,0-31,0-31S338.7,295.4,340.2,306.1z"/>
		<path class="st2" d="M378,317.4c1.9,8,8.4,9.1,12.9,4.2c4.6-4.9,0-31,0-31S376.5,306.7,378,317.4z"/>
		<path class="st2" d="M439.8,366.4c1.9,8,8.4,9.1,12.9,4.2c4.6-4.9,0-31,0-31S438.3,355.7,439.8,366.4z"/>
		<path class="st2" d="M302.8,356.6c1.9,8,8.4,9.1,12.9,4.2c4.6-4.9,0-31,0-31S301.3,345.9,302.8,356.6z"/>
		<path class="st2" d="M359.8,379.4c1.9,8,8.4,9.1,12.9,4.2c4.6-4.9,0-31,0-31S358.3,368.7,359.8,379.4z"/>
	</g>
	<g>
		<path class="st2" d="M367,346.4c1.9,8,8.4,9.1,12.9,4.2c4.6-4.9,0-31,0-31S365.5,335.6,367,346.4z"/>
		<path class="st2" d="M454.8,356.6c1.9,8,8.4,9.1,12.9,4.2c4.6-4.9,0-31,0-31S453.3,345.9,454.8,356.6z"/>
		<path class="st2" d="M496.6,329.6c1.9,8,8.4,9.1,12.9,4.2s0-31,0-31S495.1,318.9,496.6,329.6z"/>
		<path class="st2" d="M416.7,339.4c1.9,8,8.4,9.1,12.9,4.2s0-31,0-31S415.2,328.7,416.7,339.4z"/>
		<path class="st2" d="M477.2,405.2c1.9,8,8.4,9.1,12.9,4.2c4.6-4.9,0-31,0-31S475.8,394.5,477.2,405.2z"/>
		<path class="st2" d="M397.2,405.1c1.9,8,8.4,9.1,12.9,4.2c4.6-4.9,0-31,0-31S395.7,394.4,397.2,405.1z"/>
		<path class="st2" d="M435,416.4c1.9,8,8.4,9.1,12.9,4.2c4.6-4.9,0-31,0-31S433.5,405.7,435,416.4z"/>
		<path class="st2" d="M496.8,465.4c1.9,8,8.4,9.1,12.9,4.2c4.6-4.9,0-31,0-31S495.3,454.7,496.8,465.4z"/>
		<path class="st2" d="M359.8,455.6c1.9,8,8.4,9.1,12.9,4.2c4.6-4.9,0-31,0-31S358.3,444.9,359.8,455.6z"/>
		<path class="st2" d="M416.8,478.4c1.9,8,8.4,9.1,12.9,4.2c4.6-4.9,0-31,0-31S415.3,467.7,416.8,478.4z"/>
	</g>
	<path class="st2" d="M495,172.4c1.9,8,8.4,9.1,12.9,4.2s0-31,0-31S493.5,161.6,495,172.4z"/>
	<path class="st2" d="M544.7,165.4c1.9,8,8.4,9.1,12.9,4.2c4.6-4.9,0-31,0-31S543.2,154.7,544.7,165.4z"/>
	<path class="st2" d="M525.2,231.1c1.9,8,8.4,9.1,12.9,4.2c4.6-4.9,0-31,0-31S523.7,220.4,525.2,231.1z"/>
	<path class="st2" d="M624.8,291.4c1.9,8,8.4,9.1,12.9,4.2c4.6-4.9,0-31,0-31S623.3,280.7,624.8,291.4z"/>
	<path class="st2" d="M487.8,281.6c1.9,8,8.4,9.1,12.9,4.2c4.6-4.9,0-31,0-31S486.3,270.9,487.8,281.6z"/>
	<path class="st2" d="M744.2,3.2c1.9,8,8.4,9.1,12.9,4.2s0-31,0-31S742.8-7.5,744.2,3.2z"/>
	<path class="st2" d="M664.2,3.1c1.9,8,8.4,9.1,12.9,4.2s0-31,0-31S662.7-7.6,664.2,3.1z"/>
	<path class="st2" d="M702,14.4c1.9,8,8.4,9.1,12.9,4.2c4.6-4.9,0-31,0-31S700.5,3.7,702,14.4z"/>
	<path class="st2" d="M626.8,53.6c1.9,8,8.4,9.1,12.9,4.2c4.6-4.9,0-31,0-31S625.3,42.9,626.8,53.6z"/>
	<path class="st2" d="M799,33.4c1.9,8,8.4,9.1,12.9,4.2s0-31,0-31S797.5,22.6,799,33.4z"/>
	<path class="st2" d="M886.8,43.6c1.9,8,8.4,9.1,12.9,4.2c4.6-4.9,0-31,0-31S885.3,32.9,886.8,43.6z"/>
	<path class="st2" d="M928.6,16.6c1.9,8,8.4,9.1,12.9,4.2s0-31,0-31S927.1,5.9,928.6,16.6z"/>
	<path class="st2" d="M848.7,26.4c1.9,8,8.4,9.1,12.9,4.2c4.6-4.9,0-31,0-31S847.2,15.7,848.7,26.4z"/>
	<path class="st2" d="M909.2,92.2c1.9,8,8.4,9.1,12.9,4.2s0-31,0-31S907.8,81.5,909.2,92.2z"/>
	<path class="st2" d="M832.2,76.1c1.9,8,8.4,9.1,12.9,4.2s0-31,0-31S830.7,65.4,832.2,76.1z"/>
	<path class="st2" d="M867,103.4c1.9,8,8.4,9.1,12.9,4.2c4.6-4.9,0-31,0-31S865.5,92.7,867,103.4z"/>
	<path class="st2" d="M928.8,152.4c1.9,8,8.4,9.1,12.9,4.2c4.6-4.9,0-31,0-31S927.3,141.7,928.8,152.4z"/>
	<path class="st2" d="M848.8,165.4c1.9,8,8.4,9.1,12.9,4.2c4.6-4.9,0-31,0-31S847.3,154.7,848.8,165.4z"/>
	<path class="st2" d="M844.8,217.6c1.9,8,8.4,9.1,12.9,4.2c4.6-4.9,0-31,0-31S843.3,206.9,844.8,217.6z"/>
	<path class="st2" d="M886.6,190.6c1.9,8,8.4,9.1,12.9,4.2c4.6-4.9,0-31,0-31S885.1,179.9,886.6,190.6z"/>
	<path class="st2" d="M867.2,266.2c1.9,8,8.4,9.1,12.9,4.2c4.6-4.9,0-31,0-31S865.8,255.5,867.2,266.2z"/>
	<path class="st2" d="M787.2,266.1c1.9,8,8.4,9.1,12.9,4.2s0-31,0-31S785.7,255.4,787.2,266.1z"/>
	<path class="st2" d="M886.8,326.4c1.9,8,8.4,9.1,12.9,4.2c4.6-4.9,0-31,0-31S885.3,315.7,886.8,326.4z"/>
	<path class="st2" d="M806.8,339.4c1.9,8,8.4,9.1,12.9,4.2c4.6-4.9,0-31,0-31S805.3,328.7,806.8,339.4z"/>
	<path class="st2" d="M902,143.4c1.9,8,8.4,9.1,12.9,4.2s0-31,0-31S900.5,132.6,902,143.4z"/>
	<path class="st2" d="M951.7,136.4c1.9,8,8.4,9.1,12.9,4.2c4.6-4.9,0-31,0-31S950.2,125.7,951.7,136.4z"/>
	<path class="st2" d="M932.2,202.1c1.9,8,8.4,9.1,12.9,4.2c4.6-4.9,0-31,0-31S930.7,191.4,932.2,202.1z"/>
	<path class="st2" d="M894.8,252.6c1.9,8,8.4,9.1,12.9,4.2c4.6-4.9,0-31,0-31S893.3,241.9,894.8,252.6z"/>
	<path class="st2" d="M951.8,275.4c1.9,8,8.4,9.1,12.9,4.2c4.6-4.9,0-31,0-31S950.3,264.7,951.8,275.4z"/>
	<path class="st2" d="M615.8,391.6c1.9,8,8.4,9.1,12.9,4.2c4.6-4.9,0-31,0-31S614.3,380.9,615.8,391.6z"/>
	<path class="st2" d="M577.7,374.4c1.9,8,8.4,9.1,12.9,4.2c4.6-4.9,0-31,0-31S576.2,363.7,577.7,374.4z"/>
	<path class="st2" d="M596,451.4c1.9,8,8.4,9.1,12.9,4.2c4.6-4.9,0-31,0-31S594.5,440.7,596,451.4z"/>
	<path class="st2" d="M520.8,490.6c1.9,8,8.4,9.1,12.9,4.2c4.6-4.9,0-31,0-31S519.3,479.9,520.8,490.6z"/>
	<path class="st2" d="M800.8,375.6c1.9,8,8.4,9.1,12.9,4.2c4.6-4.9,0-31,0-31S799.3,364.9,800.8,375.6z"/>
	<path class="st2" d="M781,435.4c1.9,8,8.4,9.1,12.9,4.2c4.6-4.9,0-31,0-31S779.5,424.7,781,435.4z"/>
	<path class="st2" d="M842.8,484.4c1.9,8,8.4,9.1,12.9,4.2c4.6-4.9,0-31,0-31S841.3,473.7,842.8,484.4z"/>
	<path class="st2" d="M879,400.4c1.9,8,8.4,9.1,12.9,4.2s0-31,0-31S877.5,389.6,879,400.4z"/>
	<path class="st2" d="M928.7,393.4c1.9,8,8.4,9.1,12.9,4.2c4.6-4.9,0-31,0-31S927.2,382.7,928.7,393.4z"/>
	<path class="st2" d="M909.2,459.1c1.9,8,8.4,9.1,12.9,4.2s0-31,0-31S907.7,448.4,909.2,459.1z"/>
	<path class="st2" d="M947,470.4c1.9,8,8.4,9.1,12.9,4.2c4.6-4.9,0-31,0-31S945.5,459.7,947,470.4z"/>
	<path class="st2" d="M253.8,286.6c1.9,8,8.4,9.1,12.9,4.2c4.6-4.9,0-31,0-31S252.3,275.9,253.8,286.6z"/>
	<g id="Totoro">
		<path class="st3" d="M561.9,396.1c-1-1.3-0.1-22.1,4.2-20.4C570.3,377.4,562.9,397.4,561.9,396.1z"/>
		<path class="st3" d="M562.9,402.1c-1-1.3-0.1-22.1,4.2-20.4C571.3,383.4,563.9,403.4,562.9,402.1z"/>
		<path class="st3" d="M566.9,404.1c-1-1.3-0.1-22.1,4.2-20.4C575.3,385.4,567.9,405.4,566.9,404.1z"/>
		<path class="st3" d="M574,407.3c-1.2-1.1-4.5-21.6,0-20.8C578.5,387.3,575.2,408.4,574,407.3z"/>
		
			<ellipse transform="matrix(0.2898 -0.9571 0.9571 0.2898 120.4716 792.7908)" class="st4" cx="594.4" cy="315.2" rx="79.3" ry="40.7"/>
		<ellipse class="st4" cx="659.9" cy="379.2" rx="82.6" ry="125.1"/>
		<ellipse class="st5" cx="754.7" cy="379.2" rx="82.6" ry="125.1"/>
		<path class="st4" d="M622.2,488.1c0,0,7.8,12.2,9.8,14.5s66.2,1.7,71.1,0.7c5.9-1.2,15-20,5.9-13.5"/>
		<path class="st5" d="M792.1,488c0,0-4.4,13.4-6.4,13.9c-14.1,3.6-68.3,2.5-73.4,1.4c-5.9-1.3-14.8-20.1-5.9-13.6"/>
		<path class="st3" d="M624.7,504.1c0.5-1.4,13.4-7.2,13.8-2.7C638.8,506,624.2,505.5,624.7,504.1z"/>
		<path class="st3" d="M632.2,505.7c0.6-1.4,17.1-8.4,17.4-3.9S631.6,507.1,632.2,505.7z"/>
		<path class="st3" d="M642.7,506.1c0.7-1.4,17.1-7.9,17.3-3.3S642.1,507.5,642.7,506.1z"/>
		<path class="st4" d="M639.8,168.6c-27.7,21.1-38.5,57.1-38.5,57.1L582,273.8c-25.2,53.6-6,114.2-6,114.2s10,41.6,47.1,73.4
			s80.2,31.1,80.2,31.1c0.4,1.3,1,2.9,2.1,4.5c0,0,2.2,3.5,6.3,6c4.8,2.9,61.9,2.3,74.4-1.9c1.3-1,2-2.4,2.5-4.1
			c0.6-2.1,1.6-3.7,2-5.2c-1.9-1.1-4.6-2.9-7.2-5.8c-1.2-1.3-3.5-3.8-5-7.2c-2.7-6.2-1.6-12.3-0.9-15.1
			c-8.9,1.6-79.2,13.5-131.6-34.2c-49.1-44.6-62-122.7-28.5-190.1c0.6-11.1,2.7-26.7,9.5-44c4.5-11.3,9.9-20.5,14.7-27.6l0.4-0.6
			L639.8,168.6z"/>
		<path class="st3" d="M794,503.1c-0.5-1.4-13.4-7.2-13.8-2.7C780,505,794.5,504.5,794,503.1z"/>
		<path class="st3" d="M787.5,504.7c-0.6-1.4-17.1-8.4-17.4-3.9C769.8,505.3,788.1,506.1,787.5,504.7z"/>
		<path class="st3" d="M777,505.1c-0.7-1.4-17.1-7.9-17.3-3.3C759.5,506.3,777.7,506.5,777,505.1z"/>
		<path class="st5" d="M828.6,264.4l-15-35.9c-18-54.6-51.2-71.3-75.9-75.8c-9.4-2.3-19.9-3.6-31-3.6c-11.1,0-21.5,1.3-30.9,3.6
			c-21.4,3.8-49.4,16.9-68.2,56.2l0,0c-2.2,4.6-4.3,9.6-6.2,15L581.3,272c-0.2,0.5-0.4,1-0.6,1.5l0,0c-7.6,18.6-11.9,39.3-11.9,61
			c0,82.8,61.7,149.9,137.9,149.9s137.9-67.1,137.9-149.9C844.6,309.2,838.8,285.3,828.6,264.4z"/>
		<path class="st4" d="M776.3,170.5c-8.6,3.9-27.4,14-40.7,35.5c-7.2,11.6-10.4,22.7-11.9,30.5c-85.7,38.6-111.5,131.3-79.4,182.7
			c22.7,36.3,75.5,54.2,129.9,44.4c-1.7,9.6-5.6,15.1-8.2,18.1c-13.2,14.7-37.6,13.5-66.3,10.9c-6.6-0.6-16.3-1.5-28.5-5.1
			c-21.2-6.2-35.9-16.3-42.9-21.5c-18.7-14.1-28.7-29.4-33.9-37.6c-4.6-7.2-24-38.9-25.9-84.6c-2-48.6,16.9-84.8,25.9-99.9
			c2.5-13.2,10.8-47.4,41.3-71.9c2.6-2.1,12.1-9,24.4-14.8C710.3,133.6,765.9,159.8,776.3,170.5z"/>
		<ellipse class="st6" cx="706.7" cy="361.9" rx="119.4" ry="126.1"/>
		<path class="st7" d="M723.3,237.3c-3.7,5.7-50.3,81.2-14.3,157.7c19.2,40.9,52.4,61.6,66.8,69.4c-2.2,1.6-5.3,3.7-9.1,6
			c-5.9,3.7-14.5,8.2-25.4,11.8c-40.9,13.7-77.3-2.6-82.8-5.4c-1.1,0.4-61.3-27-69.7-98.8c-0.1-1.3-0.3-2.7-0.3-2.7
			c-4.6-40.7,13.6-73.1,16.5-78c5.2-8.9,20.9-35.1,54.3-50.3C687,234.4,712.3,236,723.3,237.3z"/>
		<path class="st8" d="M716.4,302.5c-3.1-2.6-6.2-4.4-8.5-4.9c-1.8-1-6.5,1.2-11.1,5.4c-5.1,4.6-8.1,9.7-6.9,11.5
			c0.6,0.9,5.4-1.6,8-3c8.7-5.9,16.7-0.9,17.7-0.4c2.6,1.3,7.1,3.4,7.7,2.5C724.6,311.7,721.4,306.7,716.4,302.5z"/>
		<path class="st8" d="M759.5,304.8c-3-2.7-6.1-4.6-8.3-5.2c-1.7-1.1-6.5,1-11.2,5c-5.2,4.4-8.4,9.5-7.2,11.3
			c0.6,0.9,5.4-1.4,8.1-2.8c8.9-5.6,16.7-0.4,17.7,0.2c2.5,1.4,7,3.6,7.6,2.8C767.4,314.2,764.4,309.2,759.5,304.8z"/>
		<path class="st5" d="M803.6,313.3c-2.9-2.9-5.8-4.9-8-5.7c-1.7-1.2-6.5,0.6-11.5,4.4c-5.5,4.1-9,9-7.8,10.9
			c0.6,0.9,5.5-1.1,8.2-2.3c9.2-5.1,16.7,0.6,17.7,1.2c2.4,1.5,6.7,4,7.4,3.2C811,323.2,808.3,318,803.6,313.3z"/>
		<path class="st9" d="M654,304.8c3-2.7,6.1-4.6,8.3-5.2c1.7-1.1,6.5,1,11.2,5c5.2,4.4,8.4,9.5,7.2,11.3c-0.6,0.9-5.4-1.4-8.1-2.8
			c-8.9-5.6-16.7-0.4-17.7,0.2c-2.5,1.4-7,3.6-7.6,2.8C646,314.2,649,309.2,654,304.8z"/>
		<path class="st9" d="M609.8,311.3c2.9-2.9,5.8-4.9,8-5.7c1.7-1.2,6.5,0.6,11.5,4.4c5.5,4.1,9,9,7.8,10.9c-0.6,0.9-5.5-1.1-8.2-2.3
			c-9.2-5.1-16.7,0.6-17.7,1.2c-2.4,1.5-6.7,4-7.4,3.2C602.4,321.2,605.1,316,609.8,311.3z"/>
		<path class="st9" d="M693.4,264.5c-3.1-2.6-6.2-4.4-8.5-4.9c-1.8-1-6.5,1.2-11.1,5.4c-5.1,4.6-8.1,9.7-6.9,11.5
			c0.6,0.9,5.4-1.6,8-3c8.7-5.9,16.7-0.9,17.7-0.4c2.6,1.3,7.1,3.4,7.7,2.5C701.6,273.7,698.4,268.7,693.4,264.5z"/>
		<path class="st9" d="M649.4,273.5c-3.1-2.6-6.2-4.4-8.5-4.9c-1.8-1-6.5,1.2-11.1,5.4c-5.1,4.6-8.1,9.7-6.9,11.5
			c0.6,0.9,5.4-1.6,8-3c8.7-5.9,16.7-0.9,17.7-0.4c2.6,1.3,7.1,3.4,7.7,2.5C657.6,282.7,654.4,277.7,649.4,273.5z"/>
		<path class="st8" d="M738.4,264.5c-3.1-2.6-6.2-4.4-8.5-4.9c-1.8-1-6.5,1.2-11.1,5.4c-5.1,4.6-8.1,9.7-6.9,11.5
			c0.6,0.9,5.4-1.6,8-3c8.7-5.9,16.7-0.9,17.7-0.4c2.6,1.3,7.1,3.4,7.7,2.5C746.6,273.7,743.4,268.7,738.4,264.5z"/>
		<path class="st5" d="M781.4,273.5c-3.1-2.6-6.2-4.4-8.5-4.9c-1.8-1-6.5,1.2-11.1,5.4c-5.1,4.6-8.1,9.7-6.9,11.5
			c0.6,0.9,5.4-1.6,8-3c8.7-5.9,16.7-0.9,17.7-0.4c2.6,1.3,7.1,3.4,7.7,2.5C789.6,282.7,786.4,277.7,781.4,273.5z"/>
		<path class="st9" d="M698.6,301.4c0,0-10.4,8.4-8.7,13c0,0,0.4,1.1,7-2.5"/>
		<path class="st10" d="M821,103.8c0,0-13.2,1.2-13.8,1.9c-36.5-8.6-68.5,0.2-68.5,0.2c-55.9-11.1-90.8,1.4-90.8,1.4
			s-9.4-6.5-30.3,0c0.5,0.4,1.1,0.7,1.6,1.1c6.2,3.9,15.5,8,29,9.8c0,0,54.1-2.9,70.6,9.2c0,0,20.2-12.1,85-8.4
			c3.2-1.7,7-3.4,11.3-4.9c6.5-2.3,12.3-3.4,18.2-4.5c9.2-1.7,11.9-1.6,11.9-2.3C845.8,104.8,821.5,103,821,103.8z"/>
		<path class="st11" d="M718.9,127.3c0-8.2,1.3-16.2,3.7-24.2"/>
		<path class="st11" d="M798.5,103.9c0,0,5.4,5.6,5.5,15"/>
		
			<ellipse transform="matrix(0.7555 -0.6551 0.6551 0.7555 -7.0162 588.7901)" class="st5" cx="785.4" cy="303.8" rx="39.7" ry="76.5"/>
		<path class="st12" d="M830.4,371.2c-2.7-1.3-8.4-2.9-16.4-4.3c-43.1-7.4-81.5-51.7-86.7-94.7c-1.5-12.1,1.2-19.5,5.4-24.6
			c3.1-3.8,16.6-17.3,80.8,14.3l0,0"/>
		<path class="st12" d="M635.9,104.7"/>
		<path class="st4" d="M733.7,246.6c2.5,13.9,7.2,31.9,16.8,51.3c16.7,33.7,39.7,54.9,54.2,66.3c-8.7-0.5-49.7-21.8-67.2-60.2
			c-4-8.7-10.6-21-10-36.6C727.9,258.2,731.3,251,733.7,246.6z"/>
		<path class="st13" d="M721.6,250.9c0.2-1.4,10.7-8.6,11.8-4.2C734.5,251.1,721.5,252.3,721.6,250.9z"/>
		<path class="st14" d="M730.2,227.8c0.6-0.3-1.5,1-1.9,4.8c2.7-2,5.1-1.7,7.3,0c-0.1-4.1-2.8-4.6-2.8-4.6L730.2,227.8z"/>
		<g>
			<path class="st15" d="M728.4,232.5c-1.5,5.7,3.7,29.8-6.9,31.8c-5.1-0.3-6.9-5.7-6.2-10.5c0.3-1.8-2.2-3.2-3.8-3.1
				c-1.5,0.1-3.5,1.4-3.5,3v8.2c2,5.2,7,10.1,12.3,10.2s10.2-4.6,13.3-11.2c2-4.2,1.5-18.4,1.9-28.5
				C735.5,232.5,732.3,228.5,728.4,232.5z"/>
			<g>
				<path class="st16" d="M728.2,232.4c-0.8,3.2-0.2,6.9-0.1,10.2c0.2,4.7,0.3,9.5-0.7,14.1c-0.5,2-1.2,4.2-2.7,5.7
					c-2.5,2.5-6.1,1.7-7.9-1.2c-0.9-1.4-1.2-3.1-1.3-4.8c-0.1-1.2,0.4-2.6,0-3.7c-0.6-1.4-2.3-2.3-3.7-2.2c-4.3,0.3-3.4,5.2-3.4,8.2
					c0,1.4-0.2,2.8,0.3,4.2c1,2.7,3.1,5.4,5.4,7.1c9.3,7.2,19.6-3.3,21-12.7c1-7,0.6-14.3,0.8-21.4c0-2.2,0.6-3.4-1.3-4.6
					c-2.2-1.4-4.4-0.5-6.2,1.1c-0.2,0.2,0.1,0.6,0.4,0.4c1.9-1.7,6.1-2.6,6.7,0.5c0.3,1.4-0.1,3.1-0.1,4.5c0,1.6,0,3.1,0,4.7
					c-0.1,5.3,0.2,11-0.9,16.2c-1,4.9-5.1,10.3-9.7,12.4c-3,1.4-6.3,1-9.1-0.7c-2.6-1.6-6.1-5.2-6.7-8.4c-0.2-1.2,0-2.7,0-3.8
					c0-1.4-0.2-3,0-4.3c0.5-2.6,3.7-3.9,5.6-1.8c1.2,1.3,0.5,3.4,0.7,5.1c0.2,1.8,0.7,3.6,1.8,5.1c1.9,2.5,5.1,3.2,7.6,1.2
					c2.3-1.8,3.2-4.9,3.7-7.6c0.7-4.1,0.6-8.4,0.5-12.5c-0.1-3.4-0.7-7.2,0.1-10.6C728.7,232.3,728.3,232.1,728.2,232.4z"/>
			</g>
		</g>
		<path class="st13" d="M722,244.7c1.2-0.7,15.9,2.1,19.1,5.4c0.6,0.6,0.1,2.3-0.2,2.4C737,254.6,720.7,245.4,722,244.7z"/>
		<path class="st13" d="M722.3,244c1.1-0.8,15.6-0.2,19.5,2.5c0.8,0.5,0.2,2.7-0.5,2.9C736.5,250.9,721.2,244.9,722.3,244z"/>
		<path class="st13" d="M719.6,256.1c1.1-1,17.2,0.4,15.3,4.6C733,264.8,718.4,257,719.6,256.1z"/>
		<path class="st13" d="M718.2,255.4c0.9-1,14.6-3.1,19.3-1.4c1.1,0.4,1.3,2.3,1.2,2.5C735.9,259.9,717.1,256.5,718.2,255.4z"/>
		<ellipse class="st17" cx="651.7" cy="194.2" rx="1.4" ry="1.4"/>
		<ellipse class="st17" cx="651.1" cy="197" rx="0.8" ry="0.8"/>
		<path class="st17" d="M665,196.2c0.4,7.3-5.5,13.6-13.3,14.1c-7.8,0.5-14.4-5-14.9-12.3c-0.4-7.3,5.5-13.6,13.3-14.1
			C657.9,183.4,664.6,188.9,665,196.2z"/>
		<path class="st17" d="M750.7,196.2c-0.4,7.3,5.5,13.6,13.3,14.1c7.8,0.5,14.4-5,14.9-12.3c0.4-7.3-5.5-13.6-13.3-14.1
			S751.2,188.9,750.7,196.2z"/>
		<circle class="st16" cx="653.1" cy="197" r="4.7"/>
		<ellipse class="st17" cx="655.8" cy="196.7" rx="0.8" ry="0.8"/>
		<circle class="st16" cx="763.2" cy="196.7" r="4.7"/>
		<ellipse class="st17" cx="765.8" cy="196.5" rx="0.8" ry="0.8"/>
		<path class="st18" d="M717.4,160.3"/>
		<path class="st19" d="M673.2,146.2"/>
		<path class="st20" d="M704.6,228.4c3.5-1.2,6.4-1.4,7.4-0.6c0.2,0.2,0.3,0.4,0.3,0.7"/>
		<g>
			<g>
				<path class="st16" d="M846.2,197.7c-20.5,5.2-41,10.4-61.6,15.7c-2.9,0.7-5.8,1.5-8.7,2.2c-1.2,0.3-0.7,2.2,0.5,1.9
					c20.5-5.2,41-10.4,61.6-15.7c2.9-0.7,5.8-1.5,8.7-2.2C848,199.3,847.5,197.4,846.2,197.7L846.2,197.7z"/>
			</g>
		</g>
		<g>
			<g>
				<path class="st16" d="M854.4,212.6c-21,3-41.9,6-62.9,9c-3,0.4-5.9,0.8-8.9,1.3c-1.3,0.2-0.7,2.1,0.5,1.9c21-3,41.9-6,62.9-9
					c3-0.4,5.9-0.8,8.9-1.3C856.2,214.3,855.6,212.4,854.4,212.6L854.4,212.6z"/>
			</g>
		</g>
		<g>
			<g>
				<path class="st16" d="M854.4,231.8c-21.2,0-42.4,0-63.5,0c-3,0-6,0-9,0c-1.3,0-1.3,2,0,2c21.2,0,42.4,0,63.5,0c3,0,6,0,9,0
					C855.7,233.8,855.7,231.8,854.4,231.8L854.4,231.8z"/>
			</g>
		</g>
		<g>
			<g>
				<path class="st16" d="M566.8,200.6c20.5,5.2,41,10.4,61.6,15.7c2.9,0.7,5.8,1.5,8.7,2.2c1.2,0.3,1.8-1.6,0.5-1.9
					c-20.5-5.2-41-10.4-61.6-15.7c-2.9-0.7-5.8-1.5-8.7-2.2C566.1,198.4,565.5,200.3,566.8,200.6L566.8,200.6z"/>
			</g>
		</g>
		<g>
			<g>
				<path class="st16" d="M558.7,215.5c21,3,41.9,6,62.9,9c3,0.4,5.9,0.8,8.9,1.3c1.3,0.2,1.8-1.7,0.5-1.9c-21-3-41.9-6-62.9-9
					c-3-0.4-5.9-0.8-8.9-1.3C557.9,213.4,557.4,215.3,558.7,215.5L558.7,215.5z"/>
			</g>
		</g>
		<g>
			<g>
				<path class="st16" d="M559.2,234.7c21.2,0,42.4,0,63.5,0c3,0,6,0,9,0c1.3,0,1.3-2,0-2c-21.2,0-42.4,0-63.5,0c-3,0-6,0-9,0
					C557.9,232.7,557.9,234.7,559.2,234.7L559.2,234.7z"/>
			</g>
		</g>
		<path class="st21" d="M645.3,85.8c-8-0.1-20.5,67.1-9.9,69.6c1.1,0.3,2.1,0.5,2.9,0.7c2.1,0.6,4.7,1.7,5.4,3.4l-0.6,0.4l0.7-0.1
			c0,0,0,0.1,0,0.1l0,0l0.1,0.5l-0.8,0.6l0.9-0.1l0.1,0.7l-0.9,0.7l1-0.2l0.1,0.7l-1,0.9l1.1-0.3l0.1,0.6l-1.1,1.1l1.2-0.4l0.1,0.4
			l-1.2,1.2l1.3-0.5l1.3,6.4l10.8-5.9l-1.6-6.9l0.2-0.1l-0.2,0l-0.1-0.4l0.5-0.3l-0.5,0.1l-0.1-0.3l0.7-0.3l-0.8,0.1l-0.1-0.3
			c0,0,0-0.1,0-0.1l1-0.4l-0.9,0c0.1-0.2,0.2-0.5,0.5-0.9l0.4-0.2l-0.3,0c0.8-0.9,2.4-2.2,5.5-3.8C670,148.2,653.3,85.9,645.3,85.8z
			"/>
		<path class="st21" d="M770.8,86.8c8-0.1,20.5,67.1,9.9,69.6c-1.1,0.3-2.1,0.5-2.9,0.7c-2.1,0.6-4.7,1.7-5.4,3.4l0.6,0.4l-0.7-0.1
			c0,0,0,0.1,0,0.1l0,0l-0.1,0.5l0.8,0.6l-0.9-0.1l-0.1,0.7l0.9,0.7l-1-0.2l-0.1,0.7l1,0.9l-1.1-0.3l-0.1,0.6l1.1,1.1l-1.2-0.4
			l-0.1,0.4l1.2,1.2l-1.3-0.5l-1.3,6.4l-10.8-5.9l1.6-6.9l-0.2-0.1l0.2,0l0.1-0.4l-0.5-0.3l0.5,0.1l0.1-0.3l-0.7-0.3l0.8,0.1
			l0.1-0.3c0,0,0-0.1,0-0.1l-1-0.4l0.9,0c-0.1-0.2-0.2-0.5-0.5-0.9l-0.4-0.2l0.3,0c-0.8-0.9-2.4-2.2-5.5-3.8
			C746,149.2,762.7,86.9,770.8,86.8z"/>
		<path class="st4" d="M639.5,157c0,0-4.3-8.4-3.5-24.6c0,0-1.3,16.2,0.7,23.9"/>
		<path class="st4" d="M643.8,85.8c0,0-4,3-7.8,18.9c-0.4,1.6-0.8,3.4-1.2,5.4c-4.1,20.6-4.8,35.1-2.7,41.8c0,0,0.9,4.1,4.6,4.3
			C636.7,156.2,632.2,124.1,643.8,85.8z"/>
		<path class="st4" d="M769.3,86.8c-8.1,16.5-14.8,38.2-12.2,62.6c0.2,2.1,0.5,4.2,0.9,6.3l-2.3-1.4c0,0-1.2-0.5-1.6-0.8
			c-0.4-0.3-2.8-1.8-2.2-11.5c0,0,0.6-12,5.2-27.7c0,0,4-14.6,8.7-23.1c0.1-0.2,0.3-0.5,0.6-0.9c1.3-2,2-2.6,2.3-2.9
			C768.9,87.1,769.1,86.9,769.3,86.8z"/>
		<path class="st22" d="M656.6,105.6c-3.1,0.5-6,1.2-8.7,2.1l0,0c-4.9-3.2-12-3-12-3c-0.6,2.7-1.2,5.5-1.8,8.5
			c-0.5,2.5-0.9,5-1.3,7.4c2.3-2,6-4.6,11.1-6.6c5.9-2.3,11.2-2.7,14.5-2.6C657.8,109.4,657.2,107.5,656.6,105.6z"/>
		<path class="st22" d="M760.6,102.6c3.6-0.2,7.5-0.3,11.5-0.2c2.4,0,4.8,0.1,7,0.3c0.7,2.3,1.3,4.7,2,7.2c0.4,1.7,0.8,3.3,1.1,4.9
			c-2.5-1.3-5.5-2.6-8.9-3.7c-5.6-1.8-10.6-2.4-14.5-2.6C759.4,106.4,760,104.5,760.6,102.6z"/>
		<path class="st19" d="M733,170.3c-8.7-0.7-15.6-10-15.6-10c-8.3-3.8-19.1,11.7-31.8,5.6c-2.9-1.4-4.7-3.5-5.1-4
			c-4-5.1-1.9-11-5.7-13.2c-1.7-1-3.4-0.6-3.4-0.8c0-0.3,7.1-1.2,40.7-3.3"/>
		<path class="st19" d="M670.9,148.4c1-0.6,1.9-0.5,2.3-0.5c1.9,0.2,3.7,2.1,4.1,4.8c-1.6-0.1-2.9-0.1-3.8,0
			c-1.2,0.1-2.2,0.3-2.8,0.4c-0.8,0.2-1.5,0.3-2.1,0.4c-0.1-0.9,0-1.5,0.1-1.9c1.5-6.4,15.5-8.9,25-8.7c0.3,0,0.7,0,1,0
			c4.9,0.2,10.7,0.6,17.5,1.6c8.7,1.2,6.2-0.6,18.2-1.6s22.8,6.1,22.8,6.1c-0.1,12-9.8,21.3-20.3,21.2c-8.9-0.1-17.1-6.6-19.5-16.2"
			/>
		<path class="st19" d="M710.3,144.9c0,0,2.4-0.8,2.4-11.7c0,0,0.2-1.3,0.8-0.9c0.7,0.4-0.4,11.9,0,12.6c0.4,0.7,1,1.5,1,1.5"/>
		<path class="st23" d="M668.8,153.4c0-0.6,0-2,0.9-3.5c0.5-0.9,1.2-1.4,1.7-1.7c0.5-0.1,1.4-0.3,2.4,0.1c1.7,0.6,2.9,2.2,3.2,4.2
			c-1.2,0-2.5,0-3.9,0.2C671.5,152.9,670,153.1,668.8,153.4z"/>
		<path class="st24" d="M617.7,107.3c0,0,19.6-6.6,30.3,0c0,0,40.6-12.4,90.8-1.4c0,0,30.5-8.5,68.5-0.2c0,0,19.1-5.1,38,1.4
			c0,0-9.6-43-113.8-43S617.7,107.3,617.7,107.3z"/>
		<path class="st25" d="M788.8,102.6c-33.3-5.3-51-24.4-51-24.4c-18.2,2.9-34.6-9.6-37.8-12.3c-0.4-0.3-1.3-0.2-2.8,0.1
			c-11.9,1.9-67.4,8.3-79.5,41.3c0,0,18.7-6.6,30.3,0c0,0,37.5-12.4,90.8-1.4C753.2,102.1,770.1,101.2,788.8,102.6z"/>
		<path class="st11" d="M671.3,70.1c0,0-19.3,7.6-22.2,32.6"/>
		<path class="st26" d="M731,58c-0.6,2-1.2,4-1.8,6c1.3,0,2.6,0,3.9-0.1C732.4,62,731.7,60,731,58z"/>
		<path class="st11" d="M734.2,66.2c0,0,4.9,6.5,4.9,32.4"/>
		<path class="st24" d="M793.9,71.5c0,0,11.4,12.8,13.3,25.8"/>
		<g>
			<polygon class="st25" points="732.4,105.5 733,228 730,228 730,105.3 730,104.4 			"/>
			<g>
				<path class="st16" d="M732.4,105.3c0,14.3,0.1,28.6,0.1,42.9c0.1,22.1,0.1,44.3,0.2,66.4c0,3.1,0,6.2,0,9.3c0,0.7,0.4,2.9,0,3.6
					c0.3-0.5-2.3-0.4-2,0c0-0.1,0-0.3,0-0.3c-0.2-0.6,0-1.4,0-2c0-2.7,0-5.4,0-8.1c0-21.7,0-43.4,0-65c0-10.5,0-21,0-31.5
					c0-3.4,0-6.8,0-10.2c0-1.6,0.2-3.3,0-4.9c0-0.1,0-0.3,0-0.4c0.1-0.6-0.4-0.4,0.4-0.1c0.5,0.2,1,0.4,1.5,0.6
					c0.3,0.1,0.4-0.4,0.1-0.5c-0.7-0.3-1.5-0.6-2.2-0.9c-0.2-0.1-0.3,0.1-0.3,0.2c0,13.8,0,27.6,0,41.4c0,22.2,0,44.3,0,66.5
					c0,5.1,0,10.2,0,15.2c0,0.1,0.1,0.2,0.2,0.2c0.8,0,1.7,0,2.5,0c0.1,0,0.3-0.1,0.2-0.2c0-13.7-0.1-27.5-0.1-41.2
					c-0.1-22-0.1-44-0.2-66c0-5,0-10,0-15.1C732.9,105,732.4,105,732.4,105.3z"/>
			</g>
		</g>
		<path class="st27" d="M696.6,201.2c-0.7-4.7,28.1-6.1,27.6,0.5C723.9,207.1,697.4,205.9,696.6,201.2z"/>
		<path class="st28" d="M699.4,203.8c-1.1-0.7-0.6-1-0.6-1.6c0.4-5.3,26.2-3,24.8,0s-6,2.2-7.7,3.2c-1.5,0.9-2.4,1.6-4.1,1.7
			c-2.1,0.2-2.4-1.1-5.3-1.6C702.9,204.8,700.6,204.5,699.4,203.8z"/>
	</g>
	<g>
		<path class="st2" d="M6,454.4c1.9,8,8.4,9.1,12.9,4.2s0-31,0-31S4.5,443.6,6,454.4z"/>
		<path class="st2" d="M93.8,464.6c1.9,8,8.4,9.1,12.9,4.2s0-31,0-31S92.3,453.9,93.8,464.6z"/>
		<path class="st2" d="M135.6,437.6c1.9,8,8.4,9.1,12.9,4.2c4.6-4.9,0-31,0-31S134.1,426.9,135.6,437.6z"/>
		<path class="st2" d="M55.7,447.4c1.9,8,8.4,9.1,12.9,4.2c4.6-4.9,0-31,0-31S54.2,436.7,55.7,447.4z"/>
		<path class="st2" d="M116.2,513.2c1.9,8,8.4,9.1,12.9,4.2c4.6-4.9,0-31,0-31S114.8,502.5,116.2,513.2z"/>
		<path class="st2" d="M36.2,513.1c1.9,8,8.4,9.1,12.9,4.2s0-31,0-31S34.7,502.4,36.2,513.1z"/>
		<path class="st2" d="M74,524.4c1.9,8,8.4,9.1,12.9,4.2s0-31,0-31S72.5,513.7,74,524.4z"/>
		<path class="st2" d="M135.8,573.4c1.9,8,8.4,9.1,12.9,4.2c4.6-4.9,0-31,0-31S134.3,562.7,135.8,573.4z"/>
		<path class="st2" d="M-1.2,563.6c1.9,8,8.4,9.1,12.9,4.2c4.6-4.9,0-31,0-31S-2.7,552.9-1.2,563.6z"/>
		<path class="st2" d="M55.8,586.4c1.9,8,8.4,9.1,12.9,4.2c4.6-4.9,0-31,0-31S54.3,575.7,55.8,586.4z"/>
	</g>
	<path class="st2" d="M150,505.4c1.9,8,8.4,9.1,12.9,4.2c4.6-4.9,0-31,0-31S148.5,494.6,150,505.4z"/>
	<path class="st2" d="M237.8,515.6c1.9,8,8.4,9.1,12.9,4.2c4.6-4.9,0-31,0-31S236.3,504.9,237.8,515.6z"/>
	<path class="st2" d="M279.6,488.6c1.9,8,8.4,9.1,12.9,4.2c4.6-4.9,0-31,0-31S278.1,477.9,279.6,488.6z"/>
	<path class="st2" d="M199.7,498.4c1.9,8,8.4,9.1,12.9,4.2c4.6-4.9,0-31,0-31S198.2,487.7,199.7,498.4z"/>
	<path class="st2" d="M260.2,564.2c1.9,8,8.4,9.1,12.9,4.2c4.6-4.9,0-31,0-31S258.8,553.5,260.2,564.2z"/>
	<path class="st2" d="M180.2,564.1c1.9,8,8.4,9.1,12.9,4.2c4.6-4.9,0-31,0-31S178.7,553.4,180.2,564.1z"/>
	<path class="st2" d="M218,575.4c1.9,8,8.4,9.1,12.9,4.2c4.6-4.9,0-31,0-31S216.5,564.7,218,575.4z"/>
	<path class="st2" d="M328,523.4c1.9,8,8.4,9.1,12.9,4.2c4.6-4.9,0-31,0-31S326.5,512.6,328,523.4z"/>
	<path class="st2" d="M415.8,533.6c1.9,8,8.4,9.1,12.9,4.2c4.6-4.9,0-31,0-31S414.3,522.9,415.8,533.6z"/>
	<path class="st2" d="M457.6,506.6c1.9,8,8.4,9.1,12.9,4.2c4.6-4.9,0-31,0-31S456.1,495.9,457.6,506.6z"/>
	<path class="st2" d="M377.7,516.4c1.9,8,8.4,9.1,12.9,4.2s0-31,0-31S376.2,505.7,377.7,516.4z"/>
	<path class="st2" d="M447.2,565.2c1.9,8,8.4,9.1,12.9,4.2c4.6-4.9,0-31,0-31S445.8,554.5,447.2,565.2z"/>
	<path class="st2" d="M348.2,564.1c1.9,8,8.4,9.1,12.9,4.2c4.6-4.9,0-31,0-31S346.7,553.4,348.2,564.1z"/>
	<path class="st2" d="M815,528.4c1.9,8,8.4,9.1,12.9,4.2c4.6-4.9,0-31,0-31S813.5,517.6,815,528.4z"/>
	<path class="st2" d="M902.8,538.6c1.9,8,8.4,9.1,12.9,4.2c4.6-4.9,0-31,0-31S901.3,527.9,902.8,538.6z"/>
	<path class="st2" d="M944.6,511.6c1.9,8,8.4,9.1,12.9,4.2c4.6-4.9,0-31,0-31S943.1,500.9,944.6,511.6z"/>
	<path class="st2" d="M864.7,521.4c1.9,8,8.4,9.1,12.9,4.2c4.6-4.9,0-31,0-31S863.2,510.7,864.7,521.4z"/>
	<path class="st2" d="M494.8,548.6c1.9,8,8.4,9.1,12.9,4.2c4.6-4.9,0-31,0-31S493.3,537.9,494.8,548.6z"/>
</g>
<g id="Rainfall_Front">
	<path class="st2" d="M652.8,86.6c1.9,8,8.4,9.1,12.9,4.2c4.6-4.9,0-31,0-31S651.3,75.9,652.8,86.6z"/>
	<path class="st2" d="M724.8,76.6c1.9,8,8.4,9.1,12.9,4.2c4.6-4.9,0-31,0-31S723.3,65.9,724.8,76.6z"/>
	<path class="st2" d="M785.8,91.6c1.9,8,8.4,9.1,12.9,4.2c4.6-4.9,0-31,0-31S784.3,80.9,785.8,91.6z"/>
	<path class="st2" d="M763.8,63.4c1.9,8,8.4,9.1,12.9,4.2s0-31,0-31S762.3,52.7,763.8,63.4z"/>
	<path class="st2" d="M686.8,59.4c1.9,8,8.4,9.1,12.9,4.2s0-31,0-31S685.3,48.7,686.8,59.4z"/>
	<path class="st2" d="M582.8,182.6c1.9,8,8.4,9.1,12.9,4.2c4.6-4.9,0-31,0-31S581.3,171.9,582.8,182.6z"/>
	<path class="st2" d="M563,242.4c1.9,8,8.4,9.1,12.9,4.2c4.6-4.9,0-31,0-31S561.5,231.7,563,242.4z"/>
	<path class="st2" d="M544.8,304.4c1.9,8,8.4,9.1,12.9,4.2c4.6-4.9,0-31,0-31S543.3,293.7,544.8,304.4z"/>
	<path class="st2" d="M825,277.4c1.9,8,8.4,9.1,12.9,4.2c4.6-4.9,0-31,0-31S823.5,266.7,825,277.4z"/>
	<path class="st2" d="M528,381.4c1.9,8,8.4,9.1,12.9,4.2s0-31,0-31S526.5,370.6,528,381.4z"/>
	<path class="st2" d="M842.6,348.6c1.9,8,8.4,9.1,12.9,4.2s0-31,0-31S841.1,337.9,842.6,348.6z"/>
	<path class="st2" d="M823.2,424.2c1.9,8,8.4,9.1,12.9,4.2c4.6-4.9,0-31,0-31S821.8,413.5,823.2,424.2z"/>
</g>
</svg>
