<svg id="Layer_10" data-name="Layer 10" xmlns="http://www.w3.org/2000/svg" viewBox="0 0 317.92 420.71"><defs><style>.cls-1{fill:#424449;stroke:#050606;stroke-width:0.25px;}.cls-1,.cls-8,.cls-9{stroke-miterlimit:10;}.cls-2{fill:#63544b;}.cls-3,.cls-9{fill:#816756;}.cls-4{fill:#fcfcc0;}.cls-5{fill:#e0deaf;}.cls-6{fill:#fbfbf8;}.cls-7{fill:#050606;}.cls-8{fill:none;stroke:#010101;stroke-width:0.75px;}.cls-9{stroke:#816756;}.cls-10{fill:#2f3030;}.cls-11{fill:#010101;}</style></defs><title>Totoro_Shading</title><path class="cls-1" d="M260.9,399.11c-1-1.3-.07-22.06,4.18-20.36S261.91,400.41,260.9,399.11Z" transform="translate(-248.23 -88.29)"/><path class="cls-1" d="M261.9,405.11c-1-1.3-.07-22.06,4.18-20.36S262.91,406.41,261.9,405.11Z" transform="translate(-248.23 -88.29)"/><path class="cls-1" d="M265.9,407.11c-1-1.3-.07-22.06,4.18-20.36S266.91,408.41,265.9,407.11Z" transform="translate(-248.23 -88.29)"/><path class="cls-1" d="M273,410.32c-1.24-1.07-4.51-21.59,0-20.78S274.24,411.39,273,410.32Z" transform="translate(-248.23 -88.29)"/><ellipse class="cls-2" cx="293.44" cy="318.22" rx="79.31" ry="40.67" transform="translate(-344.4 418.55) rotate(-73.15)"/><path class="cls-1" d="M551.94,399.11c1-1.3.07-22.06-4.18-20.36S550.93,400.41,551.94,399.11Z" transform="translate(-248.23 -88.29)"/><path class="cls-1" d="M550.94,405.11c1-1.3.07-22.06-4.18-20.36S549.93,406.41,550.94,405.11Z" transform="translate(-248.23 -88.29)"/><path class="cls-1" d="M546.94,407.11c1-1.3.07-22.06-4.18-20.36S545.93,408.41,546.94,407.11Z" transform="translate(-248.23 -88.29)"/><path class="cls-1" d="M539.85,410.32c1.24-1.07,4.51-21.59,0-20.78S538.6,411.39,539.85,410.32Z" transform="translate(-248.23 -88.29)"/><ellipse class="cls-3" cx="520.95" cy="318.19" rx="40.67" ry="79.31" transform="translate(-318.09 76.35) rotate(-16.85)"/><ellipse class="cls-2" cx="110.66" cy="293.9" rx="82.55" ry="125.14"/><ellipse class="cls-3" cx="205.43" cy="293.9" rx="82.55" ry="125.14"/><path class="cls-2" d="M321.15,491.05s7.76,12.22,9.83,14.52,66.22,1.72,71.08.71c5.95-1.25,15-20,5.95-13.53" transform="translate(-248.23 -88.29)"/><path class="cls-3" d="M491.12,491s-4.36,13.43-6.38,13.93c-14.14,3.56-68.31,2.45-73.45,1.36-5.87-1.25-14.76-20.06-5.87-13.59" transform="translate(-248.23 -88.29)"/><path class="cls-1" d="M343.72,508.11c0.66-1.39,17.15-7.9,17.33-3.34S343.06,509.5,343.72,508.11Z" transform="translate(-248.23 -88.29)"/><path class="cls-1" d="M324.71,506.11c0.47-1.36,13.43-7.18,13.75-2.65S324.24,507.47,324.71,506.11Z" transform="translate(-248.23 -88.29)"/><path class="cls-1" d="M331.24,507.65c0.62-1.41,17.06-8.43,17.37-3.88S330.61,509.06,331.24,507.65Z" transform="translate(-248.23 -88.29)"/><path class="cls-1" d="M473,507.11c-0.66-1.39-17.15-7.9-17.33-3.34S473.69,508.5,473,507.11Z" transform="translate(-248.23 -88.29)"/><path class="cls-1" d="M492,505.11c-0.47-1.36-13.43-7.18-13.75-2.65S492.51,506.47,492,505.11Z" transform="translate(-248.23 -88.29)"/><path class="cls-1" d="M485.51,506.65c-0.62-1.41-17.06-8.43-17.37-3.88S486.14,508.06,485.51,506.65Z" transform="translate(-248.23 -88.29)"/><path class="cls-2" d="M338.83,171.64c-27.75,21.06-38.49,57.1-38.49,57.1L281,276.83C255.75,330.42,275,391,275,391s10,41.63,47.13,73.38,80.23,31.08,80.23,31.08a20,20,0,0,0,2.06,4.54,16.66,16.66,0,0,0,3.89,4.54s1.05,0.72,2.19,1.46c1.87,1.21,30.35,1.33,30.35,1.33-5.65-14.17,5.55-18.64,5.55-18.64-18.15-3.37-65.3-14.73-101.46-56.28-43.24-49.67-53.6-122.76-28.51-190.11a138.22,138.22,0,0,1,24.24-71.64l0.43-.57Z" transform="translate(-248.23 -88.29)"/><path class="cls-3" d="M527.57,270.2l-15-36.74c-18-55.91-51.22-73.06-75.86-77.61a131.23,131.23,0,0,0-62,0c-21.43,3.91-49.38,17.34-68.21,57.58h0c-2.22,4.74-4.31,9.84-6.24,15.34L280.29,278l-0.63,1.54h0A167.79,167.79,0,0,0,267.76,342c0,84.78,61.74,153.5,137.9,153.5s137.9-68.73,137.9-153.5A166.79,166.79,0,0,0,527.57,270.2Z" transform="translate(-248.23 -88.29)"/><path class="cls-2" d="M338.83,171.64C319,197.95,321.67,246,321.67,246c-29.38,60.08-20.44,130.36,21.69,176.2,49.49,53.85,120.94,48,129.39,47.18A82.08,82.08,0,0,1,445.83,489c-18.57,8.33-35.55,7.25-47.17,6.58a129.48,129.48,0,0,1-28.54-5.08A134.48,134.48,0,0,1,327.25,469c-18.67-14.09-28.65-29.43-33.87-37.62-4.59-7.21-24-38.9-25.87-84.62-2-48.6,16.91-84.85,25.94-99.89,0,0,15.24-51.86,41.31-71.91q0.87-.75,1.8-1.51Q337.71,172.5,338.83,171.64Z" transform="translate(-248.23 -88.29)"/><ellipse class="cls-4" cx="157.43" cy="276.64" rx="119.43" ry="126.11"/><path class="cls-5" d="M306.35,294.87s2.9,174.88,166.4,174.51c0,0-51.42,41.63-116.58,10.29s-69.33-100.33-69.33-100.33S280.7,333.9,306.35,294.87Z" transform="translate(-248.23 -88.29)"/><path class="cls-3" d="M415.36,305.47a23.64,23.64,0,0,0-8.46-4.93c-1.76-1-6.45,1.2-11.09,5.36-5.07,4.56-8.14,9.71-6.85,11.5,0.64,0.89,5.38-1.58,8-3,8.7-5.86,16.66-.92,17.72-0.38,2.57,1.3,7.07,3.4,7.66,2.52C423.56,314.68,420.44,309.75,415.36,305.47Z" transform="translate(-248.23 -88.29)"/><path class="cls-3" d="M458.46,307.77a23.64,23.64,0,0,0-8.31-5.19c-1.73-1.07-6.49,1-11.24,5-5.21,4.4-8.43,9.46-7.19,11.29,0.61,0.91,5.42-1.42,8.09-2.8,8.88-5.59,16.68-.41,17.72.15,2.53,1.38,7,3.62,7.58,2.76C466.38,317.22,463.4,312.19,458.46,307.77Z" transform="translate(-248.23 -88.29)"/><path class="cls-3" d="M502.63,316.34a23.64,23.64,0,0,0-8-5.66c-1.66-1.17-6.53.63-11.52,4.36-5.45,4.09-9,9-7.84,10.85,0.56,0.94,5.5-1.1,8.23-2.33,9.19-5.07,16.68.55,17.69,1.18,2.45,1.52,6.74,4,7.41,3.19C510,326.24,507.31,321,502.63,316.34Z" transform="translate(-248.23 -88.29)"/><path class="cls-3" d="M353,307.77a23.64,23.64,0,0,1,8.31-5.19c1.73-1.07,6.49,1,11.24,5,5.21,4.4,8.43,9.46,7.19,11.29-0.61.91-5.42-1.42-8.09-2.8-8.88-5.59-16.68-.41-17.72.15-2.53,1.38-7,3.62-7.58,2.76C345,317.22,348,312.19,353,307.77Z" transform="translate(-248.23 -88.29)"/><path class="cls-3" d="M308.79,314.34a23.64,23.64,0,0,1,8-5.66c1.66-1.17,6.53.63,11.52,4.36,5.45,4.09,9,9,7.84,10.85-0.56.94-5.5-1.1-8.23-2.33-9.19-5.07-16.68.55-17.69,1.18-2.45,1.52-6.74,4-7.41,3.19C301.43,324.24,304.11,319,308.79,314.34Z" transform="translate(-248.23 -88.29)"/><path class="cls-3" d="M392.36,267.47a23.64,23.64,0,0,0-8.46-4.93c-1.76-1-6.45,1.2-11.09,5.36-5.07,4.56-8.14,9.71-6.85,11.5,0.64,0.89,5.38-1.58,8-3,8.7-5.86,16.66-.92,17.72-0.38,2.57,1.3,7.07,3.4,7.66,2.52C400.56,276.68,397.44,271.75,392.36,267.47Z" transform="translate(-248.23 -88.29)"/><path class="cls-3" d="M348.36,276.47a23.64,23.64,0,0,0-8.46-4.93c-1.76-1-6.45,1.2-11.09,5.36-5.07,4.56-8.14,9.71-6.85,11.5,0.64,0.89,5.38-1.58,8-3,8.7-5.86,16.66-.92,17.72-0.38,2.57,1.3,7.07,3.4,7.66,2.52C356.56,285.68,353.44,280.75,348.36,276.47Z" transform="translate(-248.23 -88.29)"/><path class="cls-3" d="M437.36,267.47a23.64,23.64,0,0,0-8.46-4.93c-1.76-1-6.45,1.2-11.09,5.36-5.07,4.56-8.14,9.71-6.85,11.5,0.64,0.89,5.38-1.58,8-3,8.7-5.86,16.66-.92,17.72-0.38,2.57,1.3,7.07,3.4,7.66,2.52C445.56,276.68,442.44,271.75,437.36,267.47Z" transform="translate(-248.23 -88.29)"/><path class="cls-3" d="M480.36,276.47a23.64,23.64,0,0,0-8.46-4.93c-1.76-1-6.45,1.2-11.09,5.36-5.07,4.56-8.14,9.71-6.85,11.5,0.64,0.89,5.38-1.58,8-3,8.7-5.86,16.66-.92,17.72-0.38,2.57,1.3,7.07,3.4,7.66,2.52C488.56,285.68,485.44,280.75,480.36,276.47Z" transform="translate(-248.23 -88.29)"/><path class="cls-2" d="M308.22,314.93l1.31,8.24s-5.36,3.35-6.55,2.93C303,326.11,299.85,324,308.22,314.93Z" transform="translate(-248.23 -88.29)"/><path class="cls-6" d="M361.14,198.93c0.36,6-4.57,11.25-11,11.66s-11.94-4.15-12.3-10.19,4.57-11.25,11-11.66S360.78,192.9,361.14,198.93Z" transform="translate(-248.23 -88.29)"/><ellipse class="cls-6" cx="102.45" cy="108.88" rx="1.39" ry="1.44"/><ellipse class="cls-6" cx="101.9" cy="111.71" rx="0.77" ry="0.8"/><path class="cls-6" d="M451.88,198.93c-0.36,6,4.57,11.25,11,11.66s11.94-4.15,12.3-10.19-4.57-11.25-11-11.66S452.24,192.9,451.88,198.93Z" transform="translate(-248.23 -88.29)"/><circle class="cls-7" cx="213.8" cy="110.59" r="5.29"/><ellipse class="cls-6" cx="214.1" cy="108.88" rx="1.39" ry="1.44"/><ellipse class="cls-6" cx="214.66" cy="111.71" rx="0.77" ry="0.8"/><circle class="cls-7" cx="103.18" cy="110.64" r="5.29"/><ellipse class="cls-6" cx="103.49" cy="108.92" rx="1.39" ry="1.44"/><ellipse class="cls-6" cx="104.04" cy="111.76" rx="0.77" ry="0.8"/><path class="cls-8" d="M403.57,231.38c3.47-1.2,6.44-1.44,7.38-.63a0.93,0.93,0,0,1,.33.74" transform="translate(-248.23 -88.29)"/><path class="cls-7" d="M545.37,201.2L483.8,216.85l-8.72,2.22a0.5,0.5,0,0,0,.27,1l61.57-15.66,8.72-2.22a0.5,0.5,0,0,0-.27-1h0Z" transform="translate(-248.23 -88.29)"/><path class="cls-7" d="M553.5,216.07l-62.89,9-8.91,1.27c-0.63.09-.36,1.05,0.27,1l62.89-9,8.91-1.27c0.63-.09.36-1.05-0.27-1h0Z" transform="translate(-248.23 -88.29)"/><path class="cls-7" d="M553.38,235.25H480.85a0.5,0.5,0,0,0,0,1h72.53a0.5,0.5,0,0,0,0-1h0Z" transform="translate(-248.23 -88.29)"/><path class="cls-7" d="M265.93,203.11l61.57,15.66,8.72,2.22a0.5,0.5,0,0,0,.27-1l-61.57-15.66-8.72-2.22a0.5,0.5,0,0,0-.27,1h0Z" transform="translate(-248.23 -88.29)"/><path class="cls-7" d="M257.79,218l62.89,9,8.91,1.27c0.63,0.09.9-.87,0.27-1l-62.89-9L258.06,217c-0.63-.09-0.9.87-0.27,1h0Z" transform="translate(-248.23 -88.29)"/><path class="cls-7" d="M258.18,237.2h72.53a0.5,0.5,0,0,0,0-1H258.18a0.5,0.5,0,0,0,0,1h0Z" transform="translate(-248.23 -88.29)"/><path class="cls-9" d="M344.31,88.79c-8-.09-20.47,67.08-9.92,69.59l2.92,0.67c2.13,0.62,4.74,1.69,5.39,3.36l-0.59.4,0.69-.12s0,0.06,0,.09h0l0.09,0.46-0.81.56,0.89-.15,0.14,0.72-0.94.71,1-.22,0.14,0.72-1,.88,1.14-.32,0.12,0.61-1.1,1.06,1.23-.42,0.07,0.36L342.59,169l1.35-.5,1.25,6.45L356,169.07l-1.62-6.94,0.2-.12-0.22,0-0.1-.43,0.48-.26-0.52.07-0.08-.34,0.75-.34-0.82.05-0.07-.29s0-.06,0-0.09l1-.39-0.88,0a3,3,0,0,1,.5-0.86L355,159h-0.26c0.78-.91,2.35-2.16,5.5-3.75C369,151.24,352.33,88.89,344.31,88.79Z" transform="translate(-248.23 -88.29)"/><path class="cls-9" d="M469.76,89.79c8-.09,20.47,67.08,9.92,69.59l-2.92.67c-2.13.62-4.74,1.69-5.39,3.36l0.59,0.4-0.69-.12s0,0.06,0,.09h0l-0.09.46,0.81,0.56-0.89-.15-0.14.72,0.94,0.71-1-.22-0.14.72,1,0.88-1.14-.32-0.12.61,1.1,1.06-1.23-.42-0.07.36,1.21,1.23-1.35-.5-1.25,6.45L458,170.07l1.62-6.94-0.2-.12,0.22,0,0.1-.43-0.48-.26,0.52,0.07,0.08-.34-0.75-.34L460,161.8l0.07-.29s0-.06,0-0.09l-1-.39,0.88,0a3,3,0,0,0-.5-0.86l-0.38-.16h0.26c-0.78-.91-2.35-2.16-5.5-3.75C445,152.24,461.74,89.89,469.76,89.79Z" transform="translate(-248.23 -88.29)"/><path class="cls-2" d="M342.75,88.79s-4.87,3.65-9,24.27-4.75,35.06-2.69,41.81c0,0,.88,4.13,4.63,4.31C335.69,159.19,331.25,127.08,342.75,88.79Z" transform="translate(-248.23 -88.29)"/><path class="cls-2" d="M338.54,160s-4.28-8.42-3.53-24.63c0,0-1.29,16.17.68,23.86" transform="translate(-248.23 -88.29)"/><path class="cls-2" d="M468.31,89.78c-8.09,16.55-14.83,38.18-12.22,62.56q0.34,3.22.88,6.29l-2.31-1.37a13.85,13.85,0,0,1-1.57-.83c-0.41-.3-2.81-1.77-2.16-11.5a135.55,135.55,0,0,1,5.17-27.67s4-14.62,8.71-23.12c0.1-.18.32-0.54,0.56-0.92a12,12,0,0,1,2.25-2.89A7.5,7.5,0,0,1,468.31,89.78Z" transform="translate(-248.23 -88.29)"/><path class="cls-10" d="M394.63,204.22c-0.74-4.72,28.07-6.06,27.61.51C421.86,210.07,395.37,208.93,394.63,204.22Z" transform="translate(-248.23 -88.29)"/><path class="cls-11" d="M398.45,206.83c-1.15-.71-0.62-1-0.57-1.6,0.44-5.32,26.17-3,24.8,0s-6,2.17-7.72,3.18c-1.5.88-2.44,1.61-4.05,1.74-2.07.17-2.37-1.09-5.33-1.63C401.89,207.84,399.59,207.53,398.45,206.83Z" transform="translate(-248.23 -88.29)"/></svg>