<svg id="Background" xmlns="http://www.w3.org/2000/svg" viewBox="0 0 961 561"><defs><style>.cls-1{fill:#6f7272;}.cls-1,.cls-20,.cls-21{stroke:#000;}.cls-1,.cls-10,.cls-11,.cls-12,.cls-13,.cls-14,.cls-15,.cls-16,.cls-20,.cls-21,.cls-22,.cls-23,.cls-24,.cls-27,.cls-29,.cls-3,.cls-6,.cls-7,.cls-9{stroke-miterlimit:10;}.cls-2{fill:#507a49;}.cls-15,.cls-3{fill:#424449;stroke-width:0.25px;}.cls-11,.cls-12,.cls-13,.cls-16,.cls-23,.cls-27,.cls-29,.cls-3{stroke:#050606;}.cls-10,.cls-24,.cls-4{fill:#63544b;}.cls-14,.cls-5,.cls-9{fill:#816756;}.cls-12,.cls-22,.cls-23,.cls-33,.cls-6{fill:none;}.cls-10,.cls-14,.cls-15,.cls-6,.cls-7,.cls-9{stroke:#222;}.cls-10,.cls-11,.cls-16,.cls-21,.cls-27,.cls-6,.cls-7,.cls-9{stroke-width:0.5px;}.cls-7{fill:#fcfcc0;}.cls-8{fill:#e0deaf;}.cls-11,.cls-13,.cls-28{fill:#635578;}.cls-12,.cls-22,.cls-29{stroke-width:0.75px;}.cls-16{fill:#b0afb4;}.cls-17{fill:#2b4748;}.cls-18{fill:#050606;}.cls-19,.cls-20{fill:#fbfbf8;}.cls-21{fill:#5d7b3b;}.cls-22{stroke:#010101;}.cls-24{stroke:#63544b;}.cls-25{fill:#473d37;}.cls-26{fill:#2f3e1e;}.cls-27,.cls-29{fill:#837090;}.cls-30{fill:#2f3030;}.cls-31{fill:#010101;}.cls-32{fill:#3e8e9b;}</style></defs><title>Totoro_raining</title><g id="Background-2" data-name="Background"><rect class="cls-1" x="0.5" y="0.5" width="960" height="560"/><path class="cls-2" d="M-0.2,560L-0.4,300.5s139.2-91.2,475.3,0C714.2,365.5,959,317,959,317V560" transform="translate(0.5 0.5)"/></g><path class="cls-3" d="M559.9,411.11c-1-1.3-.07-22.06,4.18-20.36S560.91,412.41,559.9,411.11Z" transform="translate(0.5 0.5)"/><path class="cls-3" d="M560.9,417.11c-1-1.3-.07-22.06,4.18-20.36S561.91,418.41,560.9,417.11Z" transform="translate(0.5 0.5)"/><path class="cls-3" d="M564.9,419.11c-1-1.3-.07-22.06,4.18-20.36S565.91,420.41,564.9,419.11Z" transform="translate(0.5 0.5)"/><path class="cls-3" d="M572,422.32c-1.24-1.07-4.51-21.59,0-20.78S573.24,423.39,572,422.32Z" transform="translate(0.5 0.5)"/><ellipse class="cls-4" cx="592.44" cy="330.22" rx="79.31" ry="40.67" transform="translate(105.2 802.03) rotate(-73.15)"/><ellipse class="cls-4" cx="658.4" cy="394.69" rx="82.55" ry="125.14"/><ellipse class="cls-5" cx="753.17" cy="394.69" rx="82.55" ry="125.14"/><path class="cls-4" d="M620.15,503.05s7.76,12.22,9.83,14.52,66.22,1.72,71.08.71c5.95-1.25,15-20,5.95-13.53" transform="translate(0.5 0.5)"/><path class="cls-5" d="M790.12,503s-4.36,13.43-6.38,13.93c-14.14,3.56-68.31,2.45-73.45,1.36-5.87-1.25-14.76-20.06-5.87-13.59" transform="translate(0.5 0.5)"/><path class="cls-4" d="M637.83,183.64c-27.75,21.06-38.49,57.1-38.49,57.1L580,288.83C554.75,342.42,574,403,574,403s10,41.63,47.13,73.38,80.23,31.08,80.23,31.08a17.83,17.83,0,0,0,2.06,4.54,21.14,21.14,0,0,0,6.33,6c4.77,2.9,61.88,2.3,74.44-1.94a7.09,7.09,0,0,0,2.5-4.12c0.57-2.06,1.58-3.69,2-5.19A31.26,31.26,0,0,1,781.5,501a26,26,0,0,1-5-7.25,23.45,23.45,0,0,1-.92-15.08c-8.86,1.64-79.17,13.5-131.65-34.25-49.07-44.64-62-122.72-28.51-190.11a138.22,138.22,0,0,1,24.24-71.64l0.43-.57Z" transform="translate(0.5 0.5)"/><path class="cls-5" d="M826.57,279.4l-15-35.87c-18-54.58-51.22-71.33-75.86-75.77a134.34,134.34,0,0,0-62,0c-21.43,3.82-49.38,16.93-68.21,56.22h0a160.56,160.56,0,0,0-6.24,15c-4.15,15.16-11.49,31.42-20.05,48.1l-0.63,1.5h0a160.4,160.4,0,0,0-11.9,61c0,82.76,61.74,149.86,137.9,149.86s137.9-67.09,137.9-149.86A159.62,159.62,0,0,0,826.57,279.4Z" transform="translate(0.5 0.5)"/><path class="cls-4" d="M774.33,185.5c-8.57,3.93-27.37,14-40.67,35.5a91.24,91.24,0,0,0-11.92,30.5c-85.67,38.56-111.52,131.27-79.39,182.7,22.66,36.26,75.54,54.24,129.89,44.39-1.69,9.6-5.56,15.1-8.25,18.08-13.19,14.66-37.63,13.45-66.33,10.92a138.38,138.38,0,0,1-28.54-5.08A134.48,134.48,0,0,1,626.25,481c-18.67-14.09-28.65-29.43-33.87-37.62-4.59-7.21-24-38.9-25.87-84.62-2-48.6,16.91-84.85,25.94-99.89,2.48-13.19,10.83-47.38,41.31-71.91a136.72,136.72,0,0,1,24.44-14.76C708.28,148.58,763.85,174.75,774.33,185.5Z" transform="translate(0.5 0.5)"/><path class="cls-6" d="M641.59,181s-37,20.71-49.15,77.85a93.88,93.88,0,0,0-14.11,12.48A123,123,0,0,0,558,305.67c-14.1,37-17.83,87.71,11.46,100.46a11.45,11.45,0,0,0,6.14.92" transform="translate(0.5 0.5)"/><path class="cls-6" d="M756.67,174.57s-3.92-2-6.34-2.94" transform="translate(0.5 0.5)"/><path class="cls-6" d="M771.73,183.12s28.83,21.06,39.82,60.31c1.72,6.14,15.78,36.74,18.52,43.72,1.29,3.28,2.24,5.84,2.38,6.15,13.35,31.07,12.27,80,2.54,103.69-2.35,58.61-21.49,89-46.31,109.76,0,0-2.7,9-4.94,10.17s-63.27,5.82-74.11,1.09c-3.62-1.58-4.14-3.21-4.14-3.21V507" transform="translate(0.5 0.5)"/><path class="cls-6" d="M705.5,514.79s-2.53,3.93-4.43,3.49c-1.7.1-70.47,2.63-70.85,0.89-0.34-1.58-7.52-11.76-7.52-11.76C564.73,465.49,575.35,366,575.35,366a280.08,280.08,0,0,1,10.41-65.41" transform="translate(0.5 0.5)"/><path class="cls-3" d="M622.71,519.11c0.47-1.36,13.43-7.18,13.75-2.65S622.24,520.47,622.71,519.11Z" transform="translate(0.5 0.5)"/><path class="cls-3" d="M630.24,520.65c0.62-1.41,17.06-8.43,17.37-3.88S629.61,522.06,630.24,520.65Z" transform="translate(0.5 0.5)"/><path class="cls-3" d="M640.72,521.11c0.66-1.39,17.15-7.9,17.33-3.34S640.06,522.5,640.72,521.11Z" transform="translate(0.5 0.5)"/><path class="cls-3" d="M792,518.11c-0.47-1.36-13.43-7.18-13.75-2.65S792.51,519.47,792,518.11Z" transform="translate(0.5 0.5)"/><path class="cls-3" d="M785.51,519.65c-0.62-1.41-17.06-8.43-17.37-3.88S786.14,521.06,785.51,519.65Z" transform="translate(0.5 0.5)"/><path class="cls-3" d="M775,520.11c-0.66-1.39-17.15-7.9-17.33-3.34S775.69,521.5,775,520.11Z" transform="translate(0.5 0.5)"/><ellipse class="cls-7" cx="705.16" cy="377.44" rx="119.43" ry="126.11"/><path class="cls-8" d="M721.33,252.33C717.65,258.08,671.07,333.56,707,410c19.21,40.87,52.4,61.57,66.75,69.38-2.19,1.59-5.26,3.72-9.05,6a119.63,119.63,0,0,1-25.45,11.8c-40.93,13.68-77.31-2.59-82.75-5.44-1.09.41-61.28-27-69.67-98.75-0.15-1.28-.33-2.66-0.33-2.66-4.61-40.72,13.63-73.07,16.5-78,5.16-8.88,20.92-35.1,54.33-50.33A119.59,119.59,0,0,1,721.33,252.33Z" transform="translate(0.5 0.5)"/><path class="cls-9" d="M714.36,317.47a23.64,23.64,0,0,0-8.46-4.93c-1.76-1-6.45,1.2-11.09,5.36-5.07,4.56-8.14,9.71-6.85,11.5,0.64,0.89,5.38-1.58,8-3,8.7-5.86,16.66-.92,17.72-0.38,2.57,1.3,7.07,3.4,7.66,2.52C722.56,326.68,719.44,321.75,714.36,317.47Z" transform="translate(0.5 0.5)"/><path class="cls-9" d="M757.46,319.77a23.64,23.64,0,0,0-8.31-5.19c-1.73-1.07-6.49,1-11.24,5-5.21,4.4-8.43,9.46-7.19,11.29,0.61,0.91,5.42-1.42,8.09-2.8,8.88-5.59,16.68-.41,17.72.15,2.53,1.38,7,3.62,7.58,2.76C765.38,329.22,762.4,324.19,757.46,319.77Z" transform="translate(0.5 0.5)"/><path class="cls-5" d="M801.63,328.34a23.64,23.64,0,0,0-8-5.66c-1.66-1.17-6.53.63-11.52,4.36-5.45,4.09-9,9-7.84,10.85,0.56,0.94,5.5-1.1,8.23-2.33,9.19-5.07,16.68.55,17.69,1.18,2.45,1.52,6.74,4,7.41,3.19C809,338.24,806.31,333,801.63,328.34Z" transform="translate(0.5 0.5)"/><path class="cls-10" d="M652,319.77a23.64,23.64,0,0,1,8.31-5.19c1.73-1.07,6.49,1,11.24,5,5.21,4.4,8.43,9.46,7.19,11.29-0.61.91-5.42-1.42-8.09-2.8-8.88-5.59-16.68-.41-17.72.15-2.53,1.38-7,3.62-7.58,2.76C644,329.22,647,324.19,652,319.77Z" transform="translate(0.5 0.5)"/><path class="cls-10" d="M607.79,326.34a23.64,23.64,0,0,1,8-5.66c1.66-1.17,6.53.63,11.52,4.36,5.45,4.09,9,9,7.84,10.85-0.56.94-5.5-1.1-8.23-2.33-9.19-5.07-16.68.55-17.69,1.18-2.45,1.52-6.74,4-7.41,3.19C600.43,336.24,603.11,331,607.79,326.34Z" transform="translate(0.5 0.5)"/><path class="cls-10" d="M691.36,279.47a23.64,23.64,0,0,0-8.46-4.93c-1.76-1-6.45,1.2-11.09,5.36-5.07,4.56-8.14,9.71-6.85,11.5,0.64,0.89,5.38-1.58,8-3,8.7-5.86,16.66-.92,17.72-0.38,2.57,1.3,7.07,3.4,7.66,2.52C699.56,288.68,696.44,283.75,691.36,279.47Z" transform="translate(0.5 0.5)"/><path class="cls-10" d="M647.36,288.47a23.64,23.64,0,0,0-8.46-4.93c-1.76-1-6.45,1.2-11.09,5.36-5.07,4.56-8.14,9.71-6.85,11.5,0.64,0.89,5.38-1.58,8-3,8.7-5.86,16.66-.92,17.72-0.38,2.57,1.3,7.07,3.4,7.66,2.52C655.56,297.68,652.44,292.75,647.36,288.47Z" transform="translate(0.5 0.5)"/><path class="cls-9" d="M736.36,279.47a23.64,23.64,0,0,0-8.46-4.93c-1.76-1-6.45,1.2-11.09,5.36-5.07,4.56-8.14,9.71-6.85,11.5,0.64,0.89,5.38-1.58,8-3,8.7-5.86,16.66-.92,17.72-0.38,2.57,1.3,7.07,3.4,7.66,2.52C744.56,288.68,741.44,283.75,736.36,279.47Z" transform="translate(0.5 0.5)"/><path class="cls-5" d="M779.36,288.47a23.64,23.64,0,0,0-8.46-4.93c-1.76-1-6.45,1.2-11.09,5.36-5.07,4.56-8.14,9.71-6.85,11.5,0.64,0.89,5.38-1.58,8-3,8.7-5.86,16.66-.92,17.72-0.38,2.57,1.3,7.07,3.4,7.66,2.52C787.56,297.68,784.44,292.75,779.36,288.47Z" transform="translate(0.5 0.5)"/><path class="cls-10" d="M696.65,316.35s-10.39,8.41-8.69,13c0,0,.37,1.08,7-2.47" transform="translate(0.5 0.5)"/><path class="cls-11" d="M819,118.75s-13.25,1.25-13.79,1.91c-36.47-8.59-68.47.18-68.47,0.18-55.85-11.09-90.81,1.44-90.81,1.44s-9.37-6.47-30.27,0q0.79,0.53,1.62,1.05c6.2,3.88,15.46,8,29,9.75,0,0,54.05-2.89,70.63,9.25,0,0,20.18-12.14,85-8.38a91.85,91.85,0,0,1,11.28-4.89,114.76,114.76,0,0,1,18.24-4.5c9.17-1.73,11.88-1.58,11.92-2.31C843.83,119.78,819.47,118,819,118.75Z" transform="translate(0.5 0.5)"/><path class="cls-12" d="M716.92,142.33a82.53,82.53,0,0,1,3.69-24.25" transform="translate(0.5 0.5)"/><path class="cls-12" d="M796.47,118.9a23.59,23.59,0,0,1,5.5,15" transform="translate(0.5 0.5)"/><path class="cls-13" d="M633.92,119.71s-8.94,35.1-3.86,47.16c2,4.75,3.86,4.21,3.86,4.21s5,0.85,7,3.1" transform="translate(0.5 0.5)"/><path class="cls-13" d="M655.17,170.25c1.74-1,4.21-2,5.21-2.87s1.82-4.12,1.79-6.54c-0.18-17.09-4.74-31.91-7.54-40.23" transform="translate(0.5 0.5)"/><ellipse class="cls-5" cx="783.4" cy="318.8" rx="39.66" ry="76.52" transform="translate(-16.83 591.65) rotate(-40.93)"/><path class="cls-9" d="M828.38,386.19c-2.68-1.33-8.43-2.94-16.4-4.3-43.13-7.36-81.45-51.73-86.74-94.69-1.49-12.06,1.23-19.47,5.44-24.6,3.14-3.83,16.58-17.32,80.83,14.25h0" transform="translate(0.5 0.5)"/><path class="cls-14" d="M633.92,119.71" transform="translate(0.5 0.5)"/><path class="cls-4" d="M731.67,261.59a190.61,190.61,0,0,0,16.81,51.26,193.36,193.36,0,0,0,54.19,66.27c-8.7-.49-49.65-21.79-67.17-60.19-4-8.7-10.61-21-10-36.65C725.85,273.16,729.32,266,731.67,261.59Z" transform="translate(0.5 0.5)"/><path class="cls-15" d="M719.64,265.89c0.19-1.39,10.73-8.64,11.8-4.23S719.45,267.27,719.64,265.89Z" transform="translate(0.5 0.5)"/><path class="cls-16" d="M728.17,242.75c0.63-.31-1.49,1-1.91,4.75,2.68-2,5.07-1.69,7.28,0-0.12-4.08-2.77-4.62-2.77-4.62Z" transform="translate(0.5 0.5)"/><path class="cls-17" d="M726.42,247.5c-1.5,5.67,3.69,29.75-6.92,31.83-5.08-.33-6.85-5.68-6.17-10.5,0.25-1.78-2.19-3.22-3.83-3.13s-3.5,1.41-3.5,3V277c2,5.19,7,10.13,12.31,10.2s10.16-4.62,13.31-11.2c2-4.24,1.52-18.36,1.85-28.5C733.48,247.5,730.33,243.5,726.42,247.5Z" transform="translate(0.5 0.5)"/><path class="cls-18" d="M726.18,247.43c-0.78,3.24-.23,6.91-0.12,10.21,0.16,4.67.34,9.51-.71,14.09a11.48,11.48,0,0,1-2.71,5.66c-2.5,2.49-6.09,1.73-7.89-1.25a10.17,10.17,0,0,1-1.3-4.77c-0.06-1.19.42-2.6,0-3.72a4,4,0,0,0-3.73-2.18c-4.29.3-3.44,5.24-3.44,8.15a11.61,11.61,0,0,0,.3,4.16A17.28,17.28,0,0,0,712,284.9c9.26,7.18,19.65-3.31,21-12.71,1-7,.63-14.3.75-21.4,0-2.18.62-3.41-1.32-4.6-2.23-1.36-4.36-.52-6.15,1.12a0.25,0.25,0,0,0,.35.35c1.87-1.72,6.07-2.58,6.68.54a24,24,0,0,1-.08,4.5c0,1.57,0,3.13,0,4.7-0.05,5.34.17,11-.93,16.21-1,4.87-5.11,10.35-9.65,12.44a9.47,9.47,0,0,1-9.1-.72c-2.63-1.62-6.09-5.18-6.71-8.38a21.45,21.45,0,0,1,0-3.84,26.45,26.45,0,0,1,0-4.33,3.28,3.28,0,0,1,5.56-1.84c1.24,1.32.55,3.44,0.69,5.05a9.76,9.76,0,0,0,1.79,5.1c1.93,2.52,5.09,3.17,7.6,1.18,2.28-1.8,3.19-4.85,3.68-7.59a60,60,0,0,0,.51-12.54c-0.11-3.4-.72-7.24.08-10.58A0.25,0.25,0,0,0,726.18,247.43Z" transform="translate(0.5 0.5)"/><path class="cls-15" d="M720,259.65c1.21-.67,15.85,2.12,19.05,5.38,0.6,0.61.07,2.3-.19,2.44C735,269.58,718.7,260.4,720,259.65Z" transform="translate(0.5 0.5)"/><path class="cls-15" d="M720.34,259c1.09-.82,15.6-0.17,19.47,2.51,0.79,0.54.17,2.73-.48,2.93C734.48,265.9,719.19,259.86,720.34,259Z" transform="translate(0.5 0.5)"/><path class="cls-15" d="M717.56,271.05c1.14-1,17.18.44,15.29,4.58S716.41,272,717.56,271.05Z" transform="translate(0.5 0.5)"/><path class="cls-15" d="M716.16,270.38c0.89-1,14.64-3.1,19.29-1.44,1.07,0.38,1.34,2.27,1.19,2.46C733.88,274.87,715.13,271.54,716.16,270.38Z" transform="translate(0.5 0.5)"/><ellipse class="cls-19" cx="650.19" cy="209.67" rx="1.39" ry="1.44"/><ellipse class="cls-19" cx="649.63" cy="212.51" rx="0.77" ry="0.8"/><path class="cls-19" d="M663,211.21c0.43,7.29-5.53,13.6-13.31,14.1s-14.44-5-14.87-12.32,5.53-13.6,13.31-14.1S662.57,203.92,663,211.21Z" transform="translate(0.5 0.5)"/><path class="cls-19" d="M748.74,211.21c-0.43,7.29,5.53,13.6,13.31,14.1s14.44-5,14.87-12.32-5.53-13.6-13.31-14.1S749.17,203.92,748.74,211.21Z" transform="translate(0.5 0.5)"/><circle class="cls-18" cx="651.57" cy="212.51" r="4.67"/><ellipse class="cls-19" cx="654.33" cy="212.17" rx="0.8" ry="0.77"/><circle class="cls-18" cx="761.66" cy="212.17" r="4.67"/><ellipse class="cls-19" cx="764.33" cy="211.96" rx="0.8" ry="0.77"/><path class="cls-20" d="M715.43,175.3" transform="translate(0.5 0.5)"/><path class="cls-21" d="M671.23,161.18" transform="translate(0.5 0.5)"/><path class="cls-22" d="M702.57,243.38c3.47-1.2,6.44-1.44,7.38-.63a0.93,0.93,0,0,1,.33.74" transform="translate(0.5 0.5)"/><path class="cls-18" d="M844.23,212.71l-61.57,15.66-8.72,2.22a1,1,0,0,0,.53,1.93L836,216.86l8.72-2.22a1,1,0,0,0-.53-1.93h0Z" transform="translate(0.5 0.5)"/><path class="cls-18" d="M852.37,227.59l-62.89,9-8.91,1.27c-1.27.18-.73,2.11,0.53,1.93l62.89-9,8.91-1.27c1.27-.18.73-2.11-0.53-1.93h0Z" transform="translate(0.5 0.5)"/><path class="cls-18" d="M852.38,246.75H779.85a1,1,0,0,0,0,2h72.53a1,1,0,0,0,0-2h0Z" transform="translate(0.5 0.5)"/><path class="cls-18" d="M564.79,215.6l61.57,15.66,8.72,2.22a1,1,0,0,0,.53-1.93L574,215.89l-8.72-2.22a1,1,0,0,0-.53,1.93h0Z" transform="translate(0.5 0.5)"/><path class="cls-18" d="M556.66,230.47l62.89,9,8.91,1.27c1.26,0.18,1.8-1.75.53-1.93l-62.89-9-8.91-1.27c-1.26-.18-1.8,1.75-0.53,1.93h0Z" transform="translate(0.5 0.5)"/><path class="cls-18" d="M557.18,249.7h72.53a1,1,0,0,0,0-2H557.18a1,1,0,0,0,0,2h0Z" transform="translate(0.5 0.5)"/><path class="cls-23" d="M777.16,117.63c7.37,27,8.23,48.29,3.59,53.08a5.33,5.33,0,0,1-2.87,1.29c-1.27.42-1.95,0.46-2.83,0.71a10.57,10.57,0,0,0-4.2,2.35" transform="translate(0.5 0.5)"/><path class="cls-23" d="M758.63,117.6s-12.29,36.4-8.29,48.73a4.9,4.9,0,0,0,1.75,2.09c1.11,0.61,3.85,1.8,4.92,3.2" transform="translate(0.5 0.5)"/><path class="cls-24" d="M643.31,100.79c-8-.09-20.47,67.08-9.92,69.59l2.92,0.67c2.13,0.62,4.74,1.69,5.39,3.36l-0.59.4,0.69-.12s0,0.06,0,.09h0l0.09,0.46-0.81.56,0.89-.15,0.14,0.72-0.94.71,1-.22,0.14,0.72-1,.88,1.14-.32,0.12,0.61-1.1,1.06,1.23-.42,0.07,0.36L641.59,181l1.35-.5,1.25,6.45L655,181.07l-1.62-6.94,0.2-.12-0.22,0-0.1-.43,0.48-.26-0.52.07-0.08-.34,0.75-.34-0.82.05-0.07-.29s0-.06,0-0.09l1-.39-0.88,0a3,3,0,0,1,.5-0.86L654,171h-0.26c0.78-.91,2.35-2.16,5.5-3.75C668,163.24,651.33,100.89,643.31,100.79Z" transform="translate(0.5 0.5)"/><path class="cls-24" d="M768.76,101.79c8-.09,20.47,67.08,9.92,69.59l-2.92.67c-2.13.62-4.74,1.69-5.39,3.36l0.59,0.4-0.69-.12s0,0.06,0,.09h0l-0.09.46,0.81,0.56-0.89-.15-0.14.72,0.94,0.71-1-.22-0.14.72,1,0.88-1.14-.32-0.12.61,1.1,1.06-1.23-.42-0.07.36,1.21,1.23-1.35-.5-1.25,6.45L757,182.07l1.62-6.94-0.2-.12,0.22,0,0.1-.43-0.48-.26,0.52,0.07,0.08-.34-0.75-.34L759,173.8l0.07-.29s0-.06,0-0.09l-1-.39,0.88,0a3,3,0,0,0-.5-0.86l-0.38-.16h0.26c-0.78-.91-2.35-2.16-5.5-3.75C744,164.24,760.74,101.89,768.76,101.79Z" transform="translate(0.5 0.5)"/><path class="cls-4" d="M637.54,172s-4.28-8.42-3.53-24.63c0,0-1.29,16.17.68,23.86" transform="translate(0.5 0.5)"/><path class="cls-4" d="M641.75,100.79s-4,3-7.83,18.92c-0.39,1.64-.79,3.42-1.17,5.35-4.12,20.63-4.75,35.06-2.69,41.81,0,0,.88,4.13,4.62,4.31C634.69,171.19,630.25,139.08,641.75,100.79Z" transform="translate(0.5 0.5)"/><path class="cls-25" d="M758.59,117.6c3.62-.21,7.47-0.31,11.53-0.25q3.65,0.06,7,.27,1,3.45,2,7.21,0.62,2.49,1.13,4.88a57.32,57.32,0,0,0-23.45-6.36Z" transform="translate(0.5 0.5)"/><path class="cls-25" d="M654.62,120.6a70.08,70.08,0,0,0-8.72,2.09h0c-4.94-3.19-12-3-12-3q-0.93,4.09-1.78,8.46-0.73,3.78-1.3,7.39a39.15,39.15,0,0,1,25.56-9.22Z" transform="translate(0.5 0.5)"/><path class="cls-21" d="M731,185.33c-8.67-.67-15.57-10-15.57-10-8.26-3.8-19.1,11.74-31.76,5.64a15.41,15.41,0,0,1-5.08-4c-4-5.07-1.87-11-5.67-13.22a7.76,7.76,0,0,0-3.37-.77c0-.34,7.08-1.15,40.74-3.33" transform="translate(0.5 0.5)"/><path class="cls-21" d="M711.5,169.17q0.26,1,.61,2c3,8.42,10.68,14.1,18.89,14.15,10.58,0.06,20.19-9.23,20.33-21.21,0,0-10.83-7.12-22.83-6.11s-9.5,2.82-18.22,1.63a170.51,170.51,0,0,0-17.52-1.58l-1,0c-9.56-.21-23.51,2.29-25,8.67a5.25,5.25,0,0,0-.09,1.88c0.53-.13,1.23-0.28,2.06-0.44,0.68-.12,1.67-0.3,2.84-0.41a22.67,22.67,0,0,1,3.84,0c-0.48-2.69-2.2-4.62-4.14-4.83a3.81,3.81,0,0,0-2.27.5" transform="translate(0.5 0.5)"/><path class="cls-21" d="M708.33,159.92s2.42-.8,2.42-11.67a2.52,2.52,0,0,1,.17-0.61c0.12-.28.33-0.51,0.67-0.3,0.67,0.42-.42,11.92,0,12.58s1,1.5,1,1.5" transform="translate(0.5 0.5)"/><path class="cls-26" d="M666.81,168.44a5.92,5.92,0,0,1,.88-3.5,5.77,5.77,0,0,1,1.67-1.71,4.4,4.4,0,0,1,2.44.05,5.12,5.12,0,0,1,3.23,4.25A31,31,0,0,0,666.81,168.44Z" transform="translate(0.5 0.5)"/><path class="cls-21" d="M710.19,161.18" transform="translate(0.5 0.5)"/><path class="cls-21" d="M710.19,161.18" transform="translate(0.5 0.5)"/><path class="cls-27" d="M615.67,122.28s19.6-6.58,30.27,0c0,0,40.55-12.43,90.81-1.44,0,0,30.51-8.52,68.47-.18,0,0,19.12-5.14,38,1.35,0,0-9.58-43-113.79-43S615.67,122.28,615.67,122.28Z" transform="translate(0.5 0.5)"/><path class="cls-28" d="M786.79,117.62c-33.29-5.29-51-24.41-51-24.41-18.15,2.88-34.6-9.65-37.82-12.28-0.37-.31-1.28-0.16-2.8.09-11.88,1.92-67.42,8.3-79.47,41.26,0,0,18.74-6.56,30.27,0,0,0,37.48-12.43,90.81-1.44C751.25,117.12,768.05,116.2,786.79,117.62Z" transform="translate(0.5 0.5)"/><path class="cls-12" d="M669.34,85.14s-19.26,7.55-22.24,32.61" transform="translate(0.5 0.5)"/><path class="cls-27" d="M729,73l-1.76,6,3.92-.07Z" transform="translate(0.5 0.5)"/><path class="cls-12" d="M732.24,81.25s4.86,6.5,4.86,32.42" transform="translate(0.5 0.5)"/><path class="cls-29" d="M791.88,86.5s11.35,12.83,13.33,25.83" transform="translate(0.5 0.5)"/><polygon class="cls-28" points="730.94 121.02 731.5 243.5 728.5 243.5 728.5 120.77 728.5 119.87 730.94 121.02"/><path class="cls-18" d="M730.44,120.27l0.11,42.88,0.17,66.44,0,9.34c0,0.72.41,2.93,0,3.57,0.3-.47-2.27-0.4-2,0a1.56,1.56,0,0,1,0-.34,8.22,8.22,0,0,1,0-2V125.33a41.75,41.75,0,0,0,0-4.89,2.46,2.46,0,0,1,0-.41c0.09-.62-0.38-0.4.38-0.14,0.51,0.17,1,.41,1.5.62,0.3,0.12.43-.36,0.13-0.48l-2.19-.9a0.25,0.25,0,0,0-.32.24V242.5a0.25,0.25,0,0,0,.25.25H731a0.25,0.25,0,0,0,.25-0.25l-0.11-41.21-0.17-66,0-15.06A0.25,0.25,0,0,0,730.44,120.27Z" transform="translate(0.5 0.5)"/><path class="cls-12" d="M740.83,182.09" transform="translate(0.5 0.5)"/><path class="cls-12" d="M688.33,182.09" transform="translate(0.5 0.5)"/><path class="cls-30" d="M694.63,216.22c-0.74-4.72,28.07-6.06,27.61.51C721.86,222.07,695.37,220.93,694.63,216.22Z" transform="translate(0.5 0.5)"/><path class="cls-31" d="M697.45,218.83c-1.15-.71-0.62-1-0.57-1.6,0.44-5.32,26.17-3,24.8,0s-6,2.17-7.72,3.18c-1.5.88-2.44,1.61-4.05,1.74-2.07.17-2.37-1.09-5.33-1.63C700.89,219.84,698.59,219.53,697.45,218.83Z" transform="translate(0.5 0.5)"/><path class="cls-32" d="M867.2,266.2c1.9,8,8.4,9.1,12.9,4.2s0-31,0-31S865.8,255.5,867.2,266.2Z" transform="translate(0.5 0.5)"/><path class="cls-33" d="M959.9,474.6c-4.5,4.9-11,3.8-12.9-4.2-1.5-10.7,12.9-26.8,12.9-26.8l0.1,0.59V282.42c-3.48.67-6.91-1.57-8.2-7-0.92-6.57,4.15-15.16,8.2-20.83V143.41c-3.51.73-7-1.51-8.3-7-0.93-6.62,4.23-15.31,8.3-21V0.8H943c0.76,7.76,1.08,17.24-1.45,20-4.5,4.9-11,3.8-12.9-4.2-0.68-4.83,1.88-10.75,4.9-15.8H861.8c0.83,5.17,3.81,25.53-.2,29.8-4.5,4.9-11,3.8-12.9-4.2-1.26-9,8.62-21.68,11.88-25.6H759c-0.23,3-.79,5.42-1.87,6.6-4.5,4.9-11,3.8-12.9-4.2a12.5,12.5,0,0,1-.06-2.4H716.59c0.61,7.26.66,15.3-1.69,17.8-4.5,4.9-11,3.8-12.9-4.2-0.58-4.14,1.22-9.09,3.65-13.6H679c-0.23,2.94-.79,5.33-1.86,6.5-4.5,4.9-11,3.8-12.9-4.2a12.24,12.24,0,0,1-.09-2.3H569.45c-0.3,2.24-.84,4-1.75,5-4.5,4.9-11,3.8-12.9-4.2,0-.26-0.06-0.53-0.07-0.8H451.5s4.6,26.1,0,31-11,3.8-12.9-4.2C437.1,16.9,451.5.8,451.5,0.8H136.08c0.71,7.55.9,16.36-1.58,19-4.5,4.9-11,3.8-12.9-4.2-0.63-4.51,1.56-10,4.31-14.8h-71c1,6.38,3.35,24.77-.35,28.8-4.5,4.9-11,3.8-12.9-4.2C40.54,17.1,48.93,5.57,52.76.8H-0.4V12.39A78.16,78.16,0,0,1,4.9,5.6s4.5,26.1,0,31A8.42,8.42,0,0,1-.4,39.5V131a61.94,61.94,0,0,1,0,8.37V182c2.71-9.79,12.3-20.45,12.3-20.45s4.5,26.1,0,31C7.79,197.08,2,196.53-.4,190.3v87a78.56,78.56,0,0,1,5.1-6.53s4.5,26.1,0,31a8.51,8.51,0,0,1-5.1,2.87V556.61C2.55,547,11.7,536.8,11.7,536.8s2.43,13.79,2,23.2H68.35l0.35-.4,0.07,0.4h70.57a77.84,77.84,0,0,1,9.36-13.4s1.12,6.37,1.7,13.4h29.9c1.68-10.27,12.79-22.7,12.79-22.7s2.34,13.31,2,22.7h27.55a79.8,79.8,0,0,1,8.24-11.4s0.92,5.2,1.52,11.4h27.93c1.79-10.25,12.75-22.6,12.75-22.6s2.33,13.21,2,22.6h73.19c1.68-10.27,12.79-22.7,12.79-22.7s2.34,13.31,2,22.7h84.44c2.28-10,12.55-21.6,12.55-21.6s2.17,12.3,2,21.6H960V474.47Zm-412-440s4.6,26.1,0,31-11,3.8-12.9-4.2C533.5,50.7,547.9,34.6,547.9,34.6Zm-9.8,200.7c-4.5,4.9-11,3.8-12.9-4.2-1.5-10.7,12.9-26.8,12.9-26.8S542.7,230.4,538.1,235.3Zm-30.2-58.7c-4.5,4.9-11,3.8-12.9-4.2-1.5-10.8,12.9-26.8,12.9-26.8S512.4,171.7,507.9,176.6Zm1.6,157.2c-4.5,4.9-11,3.8-12.9-4.2-1.5-10.7,12.9-26.8,12.9-26.8S514,328.9,509.5,333.8Zm-8.8-79s4.6,26.1,0,31-11,3.8-12.9-4.2C486.3,270.9,500.7,254.8,500.7,254.8Zm-49-118.2s4.6,26.1,0,31-11,3.8-12.9-4.2C437.3,152.7,451.7,136.6,451.7,136.6Zm0.8,98.2c-4.5,4.9-11,3.8-12.9-4.2-1.5-10.7,12.9-26.8,12.9-26.8S457.1,229.9,452.5,234.8ZM432.1,76.4s4.6,26.1,0,31-11,3.8-12.9-4.2C417.8,92.5,432.1,76.4,432.1,76.4ZM389.9,87.6s4.6,26.1,0,31-11,3.8-12.9-4.2C375.5,103.7,389.9,87.6,389.9,87.6ZM352.1,76.3s4.6,26.1,0,31-11,3.8-12.9-4.2C337.7,92.4,352.1,76.3,352.1,76.3ZM321.9,17.6s4.6,26.1,0,31-11,3.8-12.9-4.2C307.5,33.6,321.9,17.6,321.9,17.6Zm-20.1,136c-1.5-10.7,12.9-26.8,12.9-26.8s4.6,26.1,0,31S303.7,161.6,301.8,153.6Zm18.7,141.2s4.6,26.1,0,31-11,3.8-12.9-4.2C306.1,310.9,320.5,294.8,320.5,294.8Zm-19.8-40.2c-4.5,4.9-11,3.8-12.9-4.2-1.5-10.7,12.9-26.8,12.9-26.8S305.2,249.7,300.7,254.6Zm-7-188s3.53,20,1.31,28.3a79.78,79.78,0,0,1,5.49-7.1s4.6,26.1,0,31-11,3.8-12.9-4.2c-0.68-4.88,1.94-10.88,5-16-4.4,3.63-10,2.13-11.8-5.24C279.3,82.7,293.7,66.6,293.7,66.6ZM281.1,194.4c-4.5,4.9-11,3.8-12.9-4.2-1.4-10.7,12.9-26.8,12.9-26.8S285.7,189.5,281.1,194.4Zm-7-188s4.6,26.1,0,31-11,3.8-12.9-4.2C259.8,22.5,274.1,6.4,274.1,6.4ZM258.7,114.8s4.6,26.1,0,31-11,3.8-12.9-4.2C244.3,130.9,258.7,114.8,258.7,114.8ZM231.9,17.6s4.6,26.1,0,31-11,3.8-12.9-4.2C217.5,33.7,231.9,17.6,231.9,17.6Zm-18.2,62s2.64,15,1.92,24.37a78.61,78.61,0,0,1,5-6.37s4.6,26.1,0,31-11,3.8-12.9-4.2c-0.48-3.46.69-7.47,2.51-11.33-3.86,1.5-8-.59-9.41-6.67C199.3,95.7,213.7,79.6,213.7,79.6Zm7,188c-4.5,4.9-11,3.8-12.9-4.2-1.5-10.7,12.9-26.8,12.9-26.8S225.3,262.7,220.7,267.6ZM194.1,6.3s4.6,26.1,0,31-11,3.8-12.9-4.2C179.7,22.4,194.1,6.3,194.1,6.3ZM170.9,135.6c-4.5,4.9-11,3.8-12.9-4.2-1.5-10.8,12.9-26.8,12.9-26.8S175.5,130.7,170.9,135.6Zm-20.1,105c-1.5-10.7,12.9-26.8,12.9-26.8s4.6,26.1,0,31S152.7,248.6,150.8,240.6Zm-1.7,124.8c-4.5,4.9-11,3.8-12.9-4.2-1.4-10.7,12.9-26.8,12.9-26.8S153.7,360.5,149.1,365.4Zm19.4-106.6s4.6,26.1,0,31-11,3.8-12.9-4.2C154.1,274.9,168.5,258.8,168.5,258.8Zm-11.8-202s4.6,26.1,0,31-11,3.8-12.9-4.2C142.3,72.9,156.7,56.8,156.7,56.8Zm-22,67.8s3.16,17.93,1.62,26.85a79,79,0,0,1,5.18-6.65s4.6,26.1,0,31-11,3.8-12.9-4.2c-0.61-4.34,1.4-9.56,4-14.24-4.22,2.65-9.18.86-10.8-6C120.3,140.7,134.7,124.6,134.7,124.6ZM115.1,64.4s4.6,26.1,0,31-11,3.8-12.9-4.2C100.8,80.5,115.1,64.4,115.1,64.4ZM99.7,202.8c-4.5,4.9-11,3.8-12.9-4.2-1.5-10.7,12.9-26.8,12.9-26.8S104.3,197.9,99.7,202.8ZM88.6,268.6s4.6,26.1,0,31-11,3.8-12.9-4.2C74.2,284.7,88.6,268.6,88.6,268.6ZM67,258.4c-1.5-10.7,12.9-26.8,12.9-26.8s4.6,26.1,0,31S68.9,266.4,67,258.4ZM92.7,15.8s4.5,26.1,0,31-11,3.8-12.9-4.2C78.3,31.9,92.7,15.8,92.7,15.8ZM72.9,75.6s4.6,26.1,0,31-11,3.8-12.9-4.2C58.5,91.7,72.9,75.6,72.9,75.6Zm-18.2,62s2.44,13.86,2,23.27a78.57,78.57,0,0,1,4.92-6.27s4.6,26.1,0,31-11,3.8-12.9-4.2c-0.44-3.11.47-6.67,2-10.16-3.7,1.11-7.5-1-8.88-6.84C40.3,153.7,54.7,137.6,54.7,137.6ZM42.1,220.3s4.5,26.1,0,31-11,3.8-12.9-4.2C27.7,236.4,42.1,220.3,42.1,220.3Zm-3.2,86.3c-4.5,4.9-11,3.8-12.9-4.2-1.5-10.8,12.9-26.8,12.9-26.8S43.4,301.7,38.9,306.6ZM35.1,64.3s4.5,26.1,0,31-11,3.8-12.9-4.2C20.7,80.4,35.1,64.3,35.1,64.3ZM18.9,458.6c-4.5,4.9-11,3.8-12.9-4.2-1.5-10.8,12.9-26.8,12.9-26.8S23.4,453.7,18.9,458.6Zm12.8-42.8c-4.5,4.9-11,3.8-12.9-4.2-1.5-10.7,12.9-26.8,12.9-26.8S36.2,410.9,31.7,415.8ZM49.1,517.3c-4.5,4.9-11,3.8-12.9-4.2-1.5-10.7,12.9-26.8,12.9-26.8S53.6,512.4,49.1,517.3ZM48.8,320.4c-1.5-10.7,12.9-26.8,12.9-26.8s4.6,26.1,0,31S50.7,328.4,48.8,320.4ZM68.6,451.6c-4.5,4.9-11,3.8-12.9-4.2-1.5-10.7,12.9-26.8,12.9-26.8S73.2,446.7,68.6,451.6Zm0.5-86.3c-4.5,4.9-11,3.8-12.9-4.2-1.5-10.7,12.9-26.8,12.9-26.8S73.6,360.4,69.1,365.3ZM86.9,528.6c-4.5,4.9-11,3.8-12.9-4.2-1.5-10.7,12.9-26.8,12.9-26.8S91.4,523.7,86.9,528.6Zm1.8-90c-4.5,4.9-11,3.8-12.9-4.2-1.5-10.7,12.9-26.8,12.9-26.8S93.3,433.7,88.7,438.6Zm18,30.2c-4.5,4.9-11,3.8-12.9-4.2-1.5-10.7,12.9-26.8,12.9-26.8S111.2,463.9,106.7,468.8Zm0.2-92.2c-4.5,4.9-11,3.8-12.9-4.2-1.5-10.7,12.9-26.8,12.9-26.8S111.5,371.7,106.9,376.6Zm2.3-129.4c-1.4-10.7,12.9-26.8,12.9-26.8s4.6,26.1,0,31S111.1,255.2,109.2,247.2Zm17.5,38.6s4.5,26.1,0,31-11,3.8-12.9-4.2C112.3,301.9,126.7,285.8,126.7,285.8Zm2.4,231.6c-4.5,4.9-11,3.8-12.9-4.2-1.4-10.7,12.9-26.8,12.9-26.8S133.7,512.5,129.1,517.4Zm-0.3-210c-1.5-10.7,12.9-26.8,12.9-26.8s4.6,26.1,0,31S130.7,315.4,128.8,307.4Zm19.7,134.4c-4.5,4.9-11,3.8-12.9-4.2-1.5-10.7,12.9-26.8,12.9-26.8S153.1,436.9,148.5,441.8Zm14.4,67.8c-4.5,4.9-11,3.8-12.9-4.2-1.5-10.8,12.9-26.8,12.9-26.8S167.5,504.7,162.9,509.6Zm-7.1-88.2c-1.5-10.7,12.9-26.8,12.9-26.8s4.6,26.1,0,31S157.7,429.4,155.8,421.4Zm27.9,30.4c-4.5,4.9-11,3.8-12.9-4.2-1.5-10.7,12.9-26.8,12.9-26.8S188.3,446.9,183.7,451.8Zm7.2-109.2c-4.5,4.9-11,3.8-12.9-4.2-1.5-10.8,12.9-26.8,12.9-26.8S195.5,337.7,190.9,342.6Zm-2.7-152.5c-1.5-10.7,12.9-26.8,12.9-26.8s4.6,26.1,0,31S190.1,198.1,188.2,190.1Zm24.4,312.5c-4.5,4.9-11,3.8-12.9-4.2-1.5-10.7,12.9-26.8,12.9-26.8S217.2,497.7,212.6,502.6Zm8.5-101.3c-4.5,4.9-11,3.8-12.9-4.2-1.5-10.7,12.9-26.8,12.9-26.8S225.7,396.4,221.1,401.3Zm17.8-226.7s4.6,26.1,0,31-11,3.8-12.9-4.2C224.5,190.7,238.9,174.6,238.9,174.6Zm1.7,130s4.6,26.1,0,31-11,3.8-12.9-4.2C226.2,320.7,240.6,304.6,240.6,304.6ZM227.8,470.4c-1.5-10.7,12.9-26.8,12.9-26.8s4.6,26.1,0,31S229.7,478.4,227.8,470.4Zm22.9,49.4c-4.5,4.9-11,3.8-12.9-4.2-1.5-10.7,12.9-26.8,12.9-26.8S255.3,514.9,250.7,519.8Zm8.2-107.2c-4.5,4.9-11,3.8-12.9-4.2-1.5-10.7,12.9-26.8,12.9-26.8S263.5,407.7,258.9,412.6Zm-5.1-126c-1.5-10.7,12.9-26.8,12.9-26.8s4.6,26.1,0,31S255.7,294.6,253.8,286.6Zm12,62c-1.5-10.7,12.9-26.8,12.9-26.8s4.6,26.1,0,31S267.7,356.6,265.8,348.6Zm26.7,144.2c-4.5,4.9-11,3.8-12.9-4.2-1.5-10.7,12.9-26.8,12.9-26.8S297.1,487.9,292.5,492.8Zm8.6-91.4c-4.5,4.9-11,3.8-12.9-4.2-1.4-10.7,12.9-26.8,12.9-26.8S305.7,396.5,301.1,401.4Zm1.7-44.8c-1.5-10.7,12.9-26.8,12.9-26.8s4.6,26.1,0,31S304.7,364.6,302.8,356.6Zm17.9,105c-4.5,4.9-11,3.8-12.9-4.2-1.5-10.7,12.9-26.8,12.9-26.8S325.3,456.7,320.7,461.6Zm2.2-210c-4.5,4.9-11,3.8-12.9-4.2-1.5-10.8,12.9-26.8,12.9-26.8S327.5,246.7,322.9,251.6Zm18,276c-4.5,4.9-11,3.8-12.9-4.2-1.5-10.8,12.9-26.8,12.9-26.8S345.5,522.7,340.9,527.6Zm12.2-217.3c-4.5,4.9-11,3.8-12.9-4.2-1.5-10.7,12.9-26.8,12.9-26.8S357.7,305.4,353.1,310.3ZM371.6,10.6s4.5,26.1,0,31-11,3.8-12.9-4.2C357.2,26.7,371.6,10.6,371.6,10.6Zm0.1,139s4.6,26.1,0,31-11,3.8-12.9-4.2C357.3,165.7,371.7,149.6,371.7,149.6Zm0.9,64s4.6,26.1,0,31-11,3.8-12.9-4.2C358.2,229.7,372.6,213.6,372.6,213.6Zm0.1,246.2c-4.5,4.9-11,3.8-12.9-4.2-1.5-10.7,12.9-26.8,12.9-26.8S377.3,454.9,372.7,459.8Zm17.9,60.8c-4.5,4.9-11,3.8-12.9-4.2-1.5-10.7,12.9-26.8,12.9-26.8S395.1,515.7,390.6,520.6Zm0.3-199c-3.32,3.62-7.72,4-10.57.67,1,6.77,3.27,24.39-.43,28.33-2.14,2.33-4.73,3.29-7.06,2.81,0.72,4.4,4,25.8-.14,30.19-4.5,4.9-11,3.8-12.9-4.2-1.33-9.46,9.77-23.13,12.36-26.18-2.29-.77-4.25-3-5.16-6.82-1.29-9.29,9.19-22.43,12.14-25.92A13.22,13.22,0,0,1,378,317.4c-1.5-10.7,12.9-26.8,12.9-26.8S395.5,316.7,390.9,321.6ZM409.7,27.8s4.6,26.1,0,31-11,3.8-12.9-4.2C395.3,43.9,409.7,27.8,409.7,27.8Zm0.4,381.5c-4.5,4.9-11,3.8-12.9-4.2-1.5-10.7,12.9-26.8,12.9-26.8S414.7,404.4,410.1,409.3Zm0.6-147.5c-4.5,4.9-11,3.8-12.9-4.2-1.5-10.7,12.9-26.8,12.9-26.8S415.3,256.9,410.7,261.8Zm18,276c-4.5,4.9-11,3.8-12.9-4.2-1.5-10.7,12.9-26.8,12.9-26.8S433.3,532.9,428.7,537.8Zm1-55.2c-4.5,4.9-11,3.8-12.9-4.2-1.5-10.7,12.9-26.8,12.9-26.8S434.3,477.7,429.7,482.6Zm-0.06-169.75c0.44,2.64,4.2,26.12,0,30.75-4.5,4.9-11,3.8-12.9-4.2-1.36-9.72,10.39-23.89,12.56-26.41-3.76,1.24-7.66-.89-9.06-6.79-1.4-10.7,12.9-26.8,12.9-26.8s4.6,26.1,0,31A9.43,9.43,0,0,1,429.64,312.85ZM447.9,420.6c-4.5,4.9-11,3.8-12.9-4.2-1.5-10.7,12.9-26.8,12.9-26.8S452.5,415.7,447.9,420.6Zm4.8-50c-4.5,4.9-11,3.8-12.9-4.2-1.5-10.7,12.9-26.8,12.9-26.8S457.3,365.7,452.7,370.6Zm15-40.8s4.6,26.1,0,31-11,3.8-12.9-4.2C453.3,345.9,467.7,329.8,467.7,329.8Zm2.8,181c-4.5,4.9-11,3.8-12.9-4.2-1.5-10.7,12.9-26.8,12.9-26.8S475.1,505.9,470.5,510.8Zm2.2-406c-4.5,4.9-11,3.8-12.9-4.2-1.5-10.7,12.9-26.8,12.9-26.8S477.3,99.9,472.7,104.8Zm17.4,304.6c-4.5,4.9-11,3.8-12.9-4.2-1.4-10.7,12.9-26.8,12.9-26.8S494.7,404.5,490.1,409.4Zm17.6,143.4c-4.5,4.9-11,3.8-12.9-4.2-1.5-10.7,12.9-26.8,12.9-26.8S512.3,547.9,507.7,552.8Zm2-83.2c-4.5,4.9-11,3.8-12.9-4.2-1.5-10.7,12.9-26.8,12.9-26.8S514.3,464.7,509.7,469.6Zm0.4-415.3c-4.5,4.9-11,3.8-12.9-4.2-1.5-10.7,12.9-26.8,12.9-26.8S514.7,49.4,510.1,54.3Zm6.7,69.1c-1.5-10.7,12.9-26.8,12.9-26.8s4.6,26.1,0,31S518.7,131.4,516.8,123.4Zm16.9,371.4c-4.5,4.9-11,3.8-12.9-4.2-1.5-10.7,12.9-26.8,12.9-26.8S538.3,489.9,533.7,494.8Zm7.2-109.2c-4.5,4.9-11,3.8-12.9-4.2-1.5-10.8,12.9-26.8,12.9-26.8S545.4,380.7,540.9,385.6Zm16.7-247s4.6,26.1,0,31-11,3.8-12.9-4.2C543.2,154.7,557.6,138.6,557.6,138.6Zm0.1,170c-4.5,4.9-11,3.8-12.9-4.2-1.5-10.7,12.9-26.8,12.9-26.8S562.3,303.7,557.7,308.6Zm18.2-62c-4.5,4.9-11,3.8-12.9-4.2-1.5-10.7,12.9-26.8,12.9-26.8S580.5,241.7,575.9,246.6Zm1.3-196.4c-1.4-10.7,12.9-26.8,12.9-26.8s4.5,26.1,0,31S579.1,58.2,577.2,50.2Zm18.5,136.6c-4.5,4.9-11,3.8-12.9-4.2-1.5-10.7,12.9-26.8,12.9-26.8S600.3,181.9,595.7,186.8Zm14-72.2c-4.5,4.9-11,3.8-12.9-4.2-1.5-10.7,12.9-26.8,12.9-26.8S614.3,109.7,609.7,114.6Zm30-56.8c-4.5,4.9-11,3.8-12.9-4.2-1.5-10.7,12.9-26.8,12.9-26.8S644.3,52.9,639.7,57.8Zm26,33c-4.5,4.9-11,3.8-12.9-4.2-1.5-10.7,12.9-26.8,12.9-26.8S670.3,85.9,665.7,90.8Zm34-27.2c-4.5,4.9-11,3.8-12.9-4.2-1.5-10.7,12.9-26.8,12.9-26.8S704.2,58.7,699.7,63.6Zm38,17.2c-4.5,4.9-11,3.8-12.9-4.2-1.5-10.7,12.9-26.8,12.9-26.8S742.3,75.9,737.7,80.8Zm162-64s4.6,26.1,0,31-11,3.8-12.9-4.2C885.3,32.9,899.7,16.8,899.7,16.8Zm-0.2,147s4.6,26.1,0,31-11,3.8-12.9-4.2C885.1,179.9,899.5,163.8,899.5,163.8ZM879.9,76.6s4.6,26.1,0,31-11,3.8-12.9-4.2C865.5,92.7,879.9,76.6,879.9,76.6Zm0.2,193.8c-4.5,4.9-11,3.8-12.9-4.2-1.4-10.7,12.9-26.8,12.9-26.8S884.7,265.5,880.1,270.4Zm-35-221.1s4.5,26.1,0,31-11,3.8-12.9-4.2C830.7,65.4,845.1,49.3,845.1,49.3ZM776.7,67.6c-4.5,4.9-11,3.8-12.9-4.2-1.5-10.7,12.9-26.8,12.9-26.8S781.2,62.7,776.7,67.6Zm22,28.2c-4.5,4.9-11,3.8-12.9-4.2-1.5-10.7,12.9-26.8,12.9-26.8S803.3,90.9,798.7,95.8Zm13.2-58.2c-4.5,4.9-11,3.8-12.9-4.2-1.5-10.8,12.9-26.8,12.9-26.8S816.4,32.7,811.9,37.6Zm16,495c-4.5,4.9-11,3.8-12.9-4.2-1.5-10.8,12.9-26.8,12.9-26.8S832.5,527.7,827.9,532.6Zm8.2-104.2c-4.5,4.9-11,3.8-12.9-4.2-1.4-10.7,12.9-26.8,12.9-26.8S840.7,423.5,836.1,428.4Zm1.8-146.8c-4.5,4.9-11,3.8-12.9-4.2-1.5-10.7,12.9-26.8,12.9-26.8S842.5,276.7,837.9,281.6Zm17.6,40.2s4.5,26.1,0,31-11,3.8-12.9-4.2C841.1,337.9,855.5,321.8,855.5,321.8Zm0.2,166.8c-4.5,4.9-11,3.8-12.9-4.2-1.5-10.7,12.9-26.8,12.9-26.8S860.3,483.7,855.7,488.6Zm2-266.8c-4.5,4.9-11,3.8-12.9-4.2-1.5-10.7,12.9-26.8,12.9-26.8S862.3,216.9,857.7,221.8Zm4-52.2c-4.5,4.9-11,3.8-12.9-4.2-1.5-10.7,12.9-26.8,12.9-26.8S866.3,164.7,861.7,169.6Zm15.9,356c-4.5,4.9-11,3.8-12.9-4.2-1.5-10.7,12.9-26.8,12.9-26.8S882.2,520.7,877.6,525.6Zm14.3-121c-4.5,4.9-11,3.8-12.9-4.2-1.5-10.8,12.9-26.8,12.9-26.8S896.4,399.7,891.9,404.6Zm7.8-74c-4.5,4.9-11,3.8-12.9-4.2-1.5-10.7,12.9-26.8,12.9-26.8S904.3,325.7,899.7,330.6Zm-4.9-78c-1.5-10.7,12.9-26.8,12.9-26.8s4.6,26.1,0,31S896.7,260.6,894.8,252.6Zm20.1-136s4.5,26.1,0,31-11,3.8-12.9-4.2C900.5,132.6,914.9,116.6,914.9,116.6Zm0.8,426.2c-4.5,4.9-11,3.8-12.9-4.2-1.5-10.7,12.9-26.8,12.9-26.8S920.3,537.9,915.7,542.8Zm6.4-79.5c-4.5,4.9-11,3.8-12.9-4.2-1.5-10.7,12.9-26.8,12.9-26.8S926.6,458.4,922.1,463.3Zm0-366.9c-4.5,4.9-11,3.8-12.9-4.2-1.4-10.7,12.9-26.8,12.9-26.8S926.6,91.5,922.1,96.4Zm23,109.9c-4.5,4.9-11,3.8-12.9-4.2-1.5-10.7,12.9-26.8,12.9-26.8S949.7,201.4,945.1,206.3Zm-3.4-80.7s4.6,26.1,0,31-11,3.8-12.9-4.2C927.3,141.7,941.7,125.6,941.7,125.6Zm-0.1,272c-4.5,4.9-11,3.8-12.9-4.2-1.5-10.7,12.9-26.8,12.9-26.8S946.2,392.7,941.6,397.6Zm15.9,118.2c-4.5,4.9-11,3.8-12.9-4.2-1.5-10.7,12.9-26.8,12.9-26.8S962.1,510.9,957.5,515.8Z" transform="translate(0.5 0.5)"/><path class="cls-32" d="M4.9,5.6A78.16,78.16,0,0,0-.4,12.39V39.5a8.42,8.42,0,0,0,5.3-2.9C9.4,31.7,4.9,5.6,4.9,5.6Z" transform="translate(0.5 0.5)"/><path class="cls-32" d="M92.7,46.8c4.5-4.9,0-31,0-31S78.3,31.9,79.8,42.6C81.7,50.6,88.2,51.7,92.7,46.8Z" transform="translate(0.5 0.5)"/><path class="cls-32" d="M121.6,15.6c1.9,8,8.4,9.1,12.9,4.2,2.48-2.64,2.28-11.45,1.58-19H125.91C123.16,5.62,121,11.09,121.6,15.6Z" transform="translate(0.5 0.5)"/><path class="cls-32" d="M41.7,25.4c1.9,8,8.4,9.1,12.9,4.2,3.7-4,1.31-22.42.35-28.8H52.76C48.93,5.57,40.54,17.1,41.7,25.4Z" transform="translate(0.5 0.5)"/><path class="cls-32" d="M115.1,95.4c4.6-4.9,0-31,0-31s-14.3,16.1-12.9,26.8C104.1,99.2,110.6,100.3,115.1,95.4Z" transform="translate(0.5 0.5)"/><path class="cls-32" d="M35.1,95.3c4.5-4.9,0-31,0-31S20.7,80.4,22.2,91.1C24.1,99.1,30.6,100.2,35.1,95.3Z" transform="translate(0.5 0.5)"/><path class="cls-32" d="M72.9,106.6c4.6-4.9,0-31,0-31S58.5,91.7,60,102.4C61.9,110.4,68.4,111.5,72.9,106.6Z" transform="translate(0.5 0.5)"/><path class="cls-32" d="M132.6,157.36a67.93,67.93,0,0,1,3.72-5.9c1.54-8.93-1.62-26.85-1.62-26.85s-14.4,16.1-12.9,26.8C123.42,158.22,128.38,160,132.6,157.36Z" transform="translate(0.5 0.5)"/><path class="cls-32" d="M-0.4,131v8.37A61.94,61.94,0,0,0-.4,131Z" transform="translate(0.5 0.5)"/><path class="cls-32" d="M50.68,171.24a59,59,0,0,1,6-10.37c0.46-9.42-2-23.27-2-23.27s-14.4,16.1-12.9,26.8C43.18,170.2,47,172.36,50.68,171.24Z" transform="translate(0.5 0.5)"/><path class="cls-32" d="M11.9,192.6c4.5-4.9,0-31,0-31S2.31,172.26-.4,182v8.25C2,196.53,7.79,197.08,11.9,192.6Z" transform="translate(0.5 0.5)"/><path class="cls-32" d="M86.8,198.6c1.9,8,8.4,9.1,12.9,4.2s0-31,0-31S85.3,187.9,86.8,198.6Z" transform="translate(0.5 0.5)"/><path class="cls-32" d="M128.6,171.6c1.9,8,8.4,9.1,12.9,4.2s0-31,0-31a79,79,0,0,0-5.18,6.65,67.93,67.93,0,0,0-3.72,5.9C130,162,128,167.26,128.6,171.6Z" transform="translate(0.5 0.5)"/><path class="cls-32" d="M48.7,181.4c1.9,8,8.4,9.1,12.9,4.2s0-31,0-31a78.57,78.57,0,0,0-4.92,6.27,59,59,0,0,0-6,10.37C49.17,174.73,48.26,178.29,48.7,181.4Z" transform="translate(0.5 0.5)"/><path class="cls-32" d="M122.1,251.4c4.6-4.9,0-31,0-31s-14.3,16.1-12.9,26.8C111.1,255.2,117.6,256.3,122.1,251.4Z" transform="translate(0.5 0.5)"/><path class="cls-32" d="M29.2,247.1c1.9,8,8.4,9.1,12.9,4.2s0-31,0-31S27.7,236.4,29.2,247.1Z" transform="translate(0.5 0.5)"/><path class="cls-32" d="M79.9,231.6S65.5,247.7,67,258.4c1.9,8,8.4,9.1,12.9,4.2S79.9,231.6,79.9,231.6Z" transform="translate(0.5 0.5)"/><path class="cls-32" d="M141.7,311.6c4.6-4.9,0-31,0-31s-14.4,16.1-12.9,26.8C130.7,315.4,137.2,316.5,141.7,311.6Z" transform="translate(0.5 0.5)"/><path class="cls-32" d="M4.7,270.8a78.56,78.56,0,0,0-5.1,6.53v27.34a8.51,8.51,0,0,0,5.1-2.87C9.2,296.9,4.7,270.8,4.7,270.8Z" transform="translate(0.5 0.5)"/><path class="cls-32" d="M61.7,324.6c4.6-4.9,0-31,0-31s-14.4,16.1-12.9,26.8C50.7,328.4,57.2,329.5,61.7,324.6Z" transform="translate(0.5 0.5)"/><path class="cls-32" d="M26,302.4c1.9,8,8.4,9.1,12.9,4.2s0-31,0-31S24.5,291.6,26,302.4Z" transform="translate(0.5 0.5)"/><path class="cls-32" d="M126.7,316.8c4.5-4.9,0-31,0-31s-14.4,16.1-12.9,26.8C115.7,320.6,122.2,321.7,126.7,316.8Z" transform="translate(0.5 0.5)"/><path class="cls-32" d="M168.5,289.8c4.6-4.9,0-31,0-31s-14.4,16.1-12.9,26.8C157.5,293.6,164,294.7,168.5,289.8Z" transform="translate(0.5 0.5)"/><path class="cls-32" d="M88.6,299.6c4.6-4.9,0-31,0-31s-14.4,16.1-12.9,26.8C77.6,303.4,84.1,304.5,88.6,299.6Z" transform="translate(0.5 0.5)"/><path class="cls-32" d="M136.2,361.2c1.9,8,8.4,9.1,12.9,4.2s0-31,0-31S134.8,350.5,136.2,361.2Z" transform="translate(0.5 0.5)"/><path class="cls-32" d="M56.2,361.1c1.9,8,8.4,9.1,12.9,4.2s0-31,0-31S54.7,350.4,56.2,361.1Z" transform="translate(0.5 0.5)"/><path class="cls-32" d="M94,372.4c1.9,8,8.4,9.1,12.9,4.2s0-31,0-31S92.5,361.7,94,372.4Z" transform="translate(0.5 0.5)"/><path class="cls-32" d="M168.7,394.6s-14.4,16.1-12.9,26.8c1.9,8,8.4,9.1,12.9,4.2S168.7,394.6,168.7,394.6Z" transform="translate(0.5 0.5)"/><path class="cls-32" d="M18.8,411.6c1.9,8,8.4,9.1,12.9,4.2s0-31,0-31S17.3,400.9,18.8,411.6Z" transform="translate(0.5 0.5)"/><path class="cls-32" d="M75.8,434.4c1.9,8,8.4,9.1,12.9,4.2s0-31,0-31S74.3,423.7,75.8,434.4Z" transform="translate(0.5 0.5)"/><path class="cls-32" d="M274.1,37.4c4.6-4.9,0-31,0-31s-14.3,16.1-12.9,26.8C263.1,41.2,269.6,42.3,274.1,37.4Z" transform="translate(0.5 0.5)"/><path class="cls-32" d="M194.1,37.3c4.6-4.9,0-31,0-31s-14.4,16.1-12.9,26.8C183.1,41.1,189.6,42.2,194.1,37.3Z" transform="translate(0.5 0.5)"/><path class="cls-32" d="M231.9,48.6c4.6-4.9,0-31,0-31S217.5,33.7,219,44.4C220.9,52.4,227.4,53.5,231.9,48.6Z" transform="translate(0.5 0.5)"/><path class="cls-32" d="M292.6,98.64c0.79-1.32,1.61-2.58,2.41-3.74,2.22-8.26-1.31-28.3-1.31-28.3s-14.4,16.1-12.9,26.8C282.55,100.77,288.2,102.27,292.6,98.64Z" transform="translate(0.5 0.5)"/><path class="cls-32" d="M156.7,87.8c4.6-4.9,0-31,0-31s-14.4,16.1-12.9,26.8C145.7,91.6,152.2,92.7,156.7,87.8Z" transform="translate(0.5 0.5)"/><path class="cls-32" d="M210.21,113.07a61.69,61.69,0,0,1,5.41-9.1c0.72-9.39-1.92-24.37-1.92-24.37s-14.4,16.1-12.9,26.8C202.24,112.48,206.34,114.56,210.21,113.07Z" transform="translate(0.5 0.5)"/><path class="cls-32" d="M158,131.4c1.9,8,8.4,9.1,12.9,4.2s0-31,0-31S156.5,120.6,158,131.4Z" transform="translate(0.5 0.5)"/><path class="cls-32" d="M258.7,145.8c4.6-4.9,0-31,0-31s-14.4,16.1-12.9,26.8C247.7,149.6,254.2,150.7,258.7,145.8Z" transform="translate(0.5 0.5)"/><path class="cls-32" d="M287.6,114.6c1.9,8,8.4,9.1,12.9,4.2s0-31,0-31A79.78,79.78,0,0,0,295,94.9c-0.8,1.16-1.62,2.42-2.41,3.74C289.54,103.72,286.92,109.72,287.6,114.6Z" transform="translate(0.5 0.5)"/><path class="cls-32" d="M207.7,124.4c1.9,8,8.4,9.1,12.9,4.2s0-31,0-31a78.61,78.61,0,0,0-5,6.37,61.69,61.69,0,0,0-5.41,9.1C208.39,116.93,207.22,120.94,207.7,124.4Z" transform="translate(0.5 0.5)"/><path class="cls-32" d="M268.2,190.2c1.9,8,8.4,9.1,12.9,4.2s0-31,0-31S266.8,179.5,268.2,190.2Z" transform="translate(0.5 0.5)"/><path class="cls-32" d="M201.1,163.3s-14.4,16.1-12.9,26.8c1.9,8,8.4,9.1,12.9,4.2S201.1,163.3,201.1,163.3Z" transform="translate(0.5 0.5)"/><path class="cls-32" d="M238.9,205.6c4.6-4.9,0-31,0-31s-14.4,16.1-12.9,26.8C227.9,209.4,234.4,210.5,238.9,205.6Z" transform="translate(0.5 0.5)"/><path class="cls-32" d="M287.8,250.4c1.9,8,8.4,9.1,12.9,4.2s0-31,0-31S286.3,239.7,287.8,250.4Z" transform="translate(0.5 0.5)"/><path class="cls-32" d="M163.7,244.8c4.6-4.9,0-31,0-31s-14.4,16.1-12.9,26.8C152.7,248.6,159.2,249.7,163.7,244.8Z" transform="translate(0.5 0.5)"/><path class="cls-32" d="M207.8,263.4c1.9,8,8.4,9.1,12.9,4.2s0-31,0-31S206.3,252.7,207.8,263.4Z" transform="translate(0.5 0.5)"/><path class="cls-32" d="M178,338.4c1.9,8,8.4,9.1,12.9,4.2s0-31,0-31S176.5,327.6,178,338.4Z" transform="translate(0.5 0.5)"/><path class="cls-32" d="M278.7,321.8s-14.4,16.1-12.9,26.8c1.9,8,8.4,9.1,12.9,4.2S278.7,321.8,278.7,321.8Z" transform="translate(0.5 0.5)"/><path class="cls-32" d="M320.5,325.8c4.6-4.9,0-31,0-31s-14.4,16.1-12.9,26.8C309.5,329.6,316,330.7,320.5,325.8Z" transform="translate(0.5 0.5)"/><path class="cls-32" d="M240.6,335.6c4.6-4.9,0-31,0-31s-14.4,16.1-12.9,26.8C229.6,339.4,236.1,340.5,240.6,335.6Z" transform="translate(0.5 0.5)"/><path class="cls-32" d="M288.2,397.2c1.9,8,8.4,9.1,12.9,4.2s0-31,0-31S286.8,386.5,288.2,397.2Z" transform="translate(0.5 0.5)"/><path class="cls-32" d="M208.2,397.1c1.9,8,8.4,9.1,12.9,4.2s0-31,0-31S206.7,386.4,208.2,397.1Z" transform="translate(0.5 0.5)"/><path class="cls-32" d="M246,408.4c1.9,8,8.4,9.1,12.9,4.2s0-31,0-31S244.5,397.7,246,408.4Z" transform="translate(0.5 0.5)"/><path class="cls-32" d="M307.8,457.4c1.9,8,8.4,9.1,12.9,4.2s0-31,0-31S306.3,446.7,307.8,457.4Z" transform="translate(0.5 0.5)"/><path class="cls-32" d="M170.8,447.6c1.9,8,8.4,9.1,12.9,4.2s0-31,0-31S169.3,436.9,170.8,447.6Z" transform="translate(0.5 0.5)"/><path class="cls-32" d="M240.7,443.6s-14.4,16.1-12.9,26.8c1.9,8,8.4,9.1,12.9,4.2S240.7,443.6,240.7,443.6Z" transform="translate(0.5 0.5)"/><path class="cls-32" d="M321.9,48.6c4.6-4.9,0-31,0-31s-14.4,16-12.9,26.8C310.9,52.4,317.4,53.5,321.9,48.6Z" transform="translate(0.5 0.5)"/><path class="cls-32" d="M409.7,58.8c4.6-4.9,0-31,0-31s-14.4,16.1-12.9,26.8C398.7,62.6,405.2,63.7,409.7,58.8Z" transform="translate(0.5 0.5)"/><path class="cls-32" d="M438.6,27.6c1.9,8,8.4,9.1,12.9,4.2s0-31,0-31S437.1,16.9,438.6,27.6Z" transform="translate(0.5 0.5)"/><path class="cls-32" d="M371.6,41.6c4.5-4.9,0-31,0-31s-14.4,16.1-12.9,26.8C360.6,45.4,367.1,46.5,371.6,41.6Z" transform="translate(0.5 0.5)"/><path class="cls-32" d="M432.1,107.4c4.6-4.9,0-31,0-31s-14.3,16.1-12.9,26.8C421.1,111.2,427.6,112.3,432.1,107.4Z" transform="translate(0.5 0.5)"/><path class="cls-32" d="M352.1,107.3c4.6-4.9,0-31,0-31s-14.4,16.1-12.9,26.8C341.1,111.1,347.6,112.2,352.1,107.3Z" transform="translate(0.5 0.5)"/><path class="cls-32" d="M389.9,118.6c4.6-4.9,0-31,0-31s-14.4,16.1-12.9,26.8C378.9,122.4,385.4,123.5,389.9,118.6Z" transform="translate(0.5 0.5)"/><path class="cls-32" d="M451.7,167.6c4.6-4.9,0-31,0-31s-14.4,16.1-12.9,26.8C440.7,171.4,447.2,172.5,451.7,167.6Z" transform="translate(0.5 0.5)"/><path class="cls-32" d="M314.7,126.8s-14.4,16.1-12.9,26.8c1.9,8,8.4,9.1,12.9,4.2S314.7,126.8,314.7,126.8Z" transform="translate(0.5 0.5)"/><path class="cls-32" d="M371.7,180.6c4.6-4.9,0-31,0-31s-14.4,16.1-12.9,26.8C360.7,184.4,367.2,185.5,371.7,180.6Z" transform="translate(0.5 0.5)"/><path class="cls-32" d="M497.2,50.1c1.9,8,8.4,9.1,12.9,4.2s0-31,0-31S495.7,39.4,497.2,50.1Z" transform="translate(0.5 0.5)"/><path class="cls-32" d="M547.9,65.6c4.6-4.9,0-31,0-31S533.5,50.7,535,61.4C536.9,69.4,543.4,70.5,547.9,65.6Z" transform="translate(0.5 0.5)"/><path class="cls-32" d="M459.8,100.6c1.9,8,8.4,9.1,12.9,4.2s0-31,0-31S458.3,89.9,459.8,100.6Z" transform="translate(0.5 0.5)"/><path class="cls-32" d="M529.7,127.6c4.6-4.9,0-31,0-31s-14.4,16.1-12.9,26.8C518.7,131.4,525.2,132.5,529.7,127.6Z" transform="translate(0.5 0.5)"/><path class="cls-32" d="M310,247.4c1.9,8,8.4,9.1,12.9,4.2s0-31,0-31S308.5,236.6,310,247.4Z" transform="translate(0.5 0.5)"/><path class="cls-32" d="M397.8,257.6c1.9,8,8.4,9.1,12.9,4.2s0-31,0-31S396.3,246.9,397.8,257.6Z" transform="translate(0.5 0.5)"/><path class="cls-32" d="M439.6,230.6c1.9,8,8.4,9.1,12.9,4.2s0-31,0-31S438.1,219.9,439.6,230.6Z" transform="translate(0.5 0.5)"/><path class="cls-32" d="M372.6,244.6c4.6-4.9,0-31,0-31s-14.4,16.1-12.9,26.8C361.6,248.4,368.1,249.5,372.6,244.6Z" transform="translate(0.5 0.5)"/><path class="cls-32" d="M433.1,279.4s-14.3,16.1-12.9,26.8c1.4,5.9,5.3,8,9.06,6.79l0.34-.39,0,0.25a9.43,9.43,0,0,0,3.46-2.45C437.7,305.5,433.1,279.4,433.1,279.4Z" transform="translate(0.5 0.5)"/><path class="cls-32" d="M340.2,306.1c1.9,8,8.4,9.1,12.9,4.2s0-31,0-31S338.7,295.4,340.2,306.1Z" transform="translate(0.5 0.5)"/><path class="cls-32" d="M378,317.4a13.22,13.22,0,0,0,1.14,3.08c0.48-.56.76-0.88,0.76-0.88s0.18,1,.43,2.67c2.85,3.28,7.25,2.94,10.57-.67,4.6-4.9,0-31,0-31S376.5,306.7,378,317.4Z" transform="translate(0.5 0.5)"/><path class="cls-32" d="M439.8,366.4c1.9,8,8.4,9.1,12.9,4.2s0-31,0-31S438.3,355.7,439.8,366.4Z" transform="translate(0.5 0.5)"/><path class="cls-32" d="M315.7,360.8c4.6-4.9,0-31,0-31s-14.4,16.1-12.9,26.8C304.7,364.6,311.2,365.7,315.7,360.8Z" transform="translate(0.5 0.5)"/><path class="cls-32" d="M359.8,379.4c1.9,8,8.4,9.1,12.9,4.2,4.12-4.39.86-25.79,0.14-30.19a5.77,5.77,0,0,1-.67-0.18C369.57,356.27,358.47,369.94,359.8,379.4Z" transform="translate(0.5 0.5)"/><path class="cls-32" d="M379.14,320.48C376.19,324,365.71,337.11,367,346.4c0.91,3.82,2.87,6.05,5.16,6.82a5.77,5.77,0,0,0,.67.18c2.33,0.48,4.92-.47,7.06-2.81,3.7-3.94,1.45-21.55.43-28.33-0.25-1.66-.43-2.67-0.43-2.67S379.61,319.92,379.14,320.48Z" transform="translate(0.5 0.5)"/><path class="cls-32" d="M467.7,360.8c4.6-4.9,0-31,0-31s-14.4,16.1-12.9,26.8C456.7,364.6,463.2,365.7,467.7,360.8Z" transform="translate(0.5 0.5)"/><path class="cls-32" d="M496.6,329.6c1.9,8,8.4,9.1,12.9,4.2s0-31,0-31S495.1,318.9,496.6,329.6Z" transform="translate(0.5 0.5)"/><path class="cls-32" d="M429.26,313c-2.17,2.52-13.92,16.69-12.56,26.41,1.9,8,8.4,9.1,12.9,4.2,4.25-4.62.48-28.11,0-30.75l0-.25Z" transform="translate(0.5 0.5)"/><path class="cls-32" d="M477.2,405.2c1.9,8,8.4,9.1,12.9,4.2s0-31,0-31S475.8,394.5,477.2,405.2Z" transform="translate(0.5 0.5)"/><path class="cls-32" d="M397.2,405.1c1.9,8,8.4,9.1,12.9,4.2s0-31,0-31S395.7,394.4,397.2,405.1Z" transform="translate(0.5 0.5)"/><path class="cls-32" d="M435,416.4c1.9,8,8.4,9.1,12.9,4.2s0-31,0-31S433.5,405.7,435,416.4Z" transform="translate(0.5 0.5)"/><path class="cls-32" d="M496.8,465.4c1.9,8,8.4,9.1,12.9,4.2s0-31,0-31S495.3,454.7,496.8,465.4Z" transform="translate(0.5 0.5)"/><path class="cls-32" d="M359.8,455.6c1.9,8,8.4,9.1,12.9,4.2s0-31,0-31S358.3,444.9,359.8,455.6Z" transform="translate(0.5 0.5)"/><path class="cls-32" d="M416.8,478.4c1.9,8,8.4,9.1,12.9,4.2s0-31,0-31S415.3,467.7,416.8,478.4Z" transform="translate(0.5 0.5)"/><path class="cls-32" d="M495,172.4c1.9,8,8.4,9.1,12.9,4.2s0-31,0-31S493.5,161.6,495,172.4Z" transform="translate(0.5 0.5)"/><path class="cls-32" d="M525.2,231.1c1.9,8,8.4,9.1,12.9,4.2s0-31,0-31S523.7,220.4,525.2,231.1Z" transform="translate(0.5 0.5)"/><path class="cls-32" d="M500.7,285.8c4.6-4.9,0-31,0-31s-14.4,16.1-12.9,26.8C489.7,289.6,496.2,290.7,500.7,285.8Z" transform="translate(0.5 0.5)"/><path class="cls-32" d="M520.8,490.6c1.9,8,8.4,9.1,12.9,4.2s0-31,0-31S519.3,479.9,520.8,490.6Z" transform="translate(0.5 0.5)"/><path class="cls-32" d="M266.7,259.8s-14.4,16.1-12.9,26.8c1.9,8,8.4,9.1,12.9,4.2S266.7,259.8,266.7,259.8Z" transform="translate(0.5 0.5)"/><path class="cls-32" d="M6,454.4c1.9,8,8.4,9.1,12.9,4.2s0-31,0-31S4.5,443.6,6,454.4Z" transform="translate(0.5 0.5)"/><path class="cls-32" d="M93.8,464.6c1.9,8,8.4,9.1,12.9,4.2s0-31,0-31S92.3,453.9,93.8,464.6Z" transform="translate(0.5 0.5)"/><path class="cls-32" d="M148.5,410.8s-14.4,16.1-12.9,26.8c1.9,8,8.4,9.1,12.9,4.2S148.5,410.8,148.5,410.8Z" transform="translate(0.5 0.5)"/><path class="cls-32" d="M55.7,447.4c1.9,8,8.4,9.1,12.9,4.2s0-31,0-31S54.2,436.7,55.7,447.4Z" transform="translate(0.5 0.5)"/><path class="cls-32" d="M116.2,513.2c1.9,8,8.4,9.1,12.9,4.2s0-31,0-31S114.8,502.5,116.2,513.2Z" transform="translate(0.5 0.5)"/><path class="cls-32" d="M36.2,513.1c1.9,8,8.4,9.1,12.9,4.2s0-31,0-31S34.7,502.4,36.2,513.1Z" transform="translate(0.5 0.5)"/><path class="cls-32" d="M74,524.4c1.9,8,8.4,9.1,12.9,4.2s0-31,0-31S72.5,513.7,74,524.4Z" transform="translate(0.5 0.5)"/><path class="cls-32" d="M139.34,560H150.4c-0.58-7-1.7-13.4-1.7-13.4A77.84,77.84,0,0,0,139.34,560Z" transform="translate(0.5 0.5)"/><path class="cls-32" d="M11.7,536.8S2.55,547-.4,556.61V560H13.69C14.13,550.59,11.7,536.8,11.7,536.8Z" transform="translate(0.5 0.5)"/><path class="cls-32" d="M68.35,560h0.42l-0.07-.4Z" transform="translate(0.5 0.5)"/><path class="cls-32" d="M150,505.4c1.9,8,8.4,9.1,12.9,4.2s0-31,0-31S148.5,494.6,150,505.4Z" transform="translate(0.5 0.5)"/><path class="cls-32" d="M237.8,515.6c1.9,8,8.4,9.1,12.9,4.2s0-31,0-31S236.3,504.9,237.8,515.6Z" transform="translate(0.5 0.5)"/><path class="cls-32" d="M279.6,488.6c1.9,8,8.4,9.1,12.9,4.2s0-31,0-31S278.1,477.9,279.6,488.6Z" transform="translate(0.5 0.5)"/><path class="cls-32" d="M199.7,498.4c1.9,8,8.4,9.1,12.9,4.2s0-31,0-31S198.2,487.7,199.7,498.4Z" transform="translate(0.5 0.5)"/><path class="cls-32" d="M273.1,537.4s-11,12.35-12.75,22.6h14.76C275.43,550.61,273.1,537.4,273.1,537.4Z" transform="translate(0.5 0.5)"/><path class="cls-32" d="M193.1,537.3S182,549.73,180.31,560h14.8C195.44,550.61,193.1,537.3,193.1,537.3Z" transform="translate(0.5 0.5)"/><path class="cls-32" d="M222.66,560h9.76c-0.61-6.2-1.52-11.4-1.52-11.4A79.8,79.8,0,0,0,222.66,560Z" transform="translate(0.5 0.5)"/><path class="cls-32" d="M328,523.4c1.9,8,8.4,9.1,12.9,4.2s0-31,0-31S326.5,512.6,328,523.4Z" transform="translate(0.5 0.5)"/><path class="cls-32" d="M415.8,533.6c1.9,8,8.4,9.1,12.9,4.2s0-31,0-31S414.3,522.9,415.8,533.6Z" transform="translate(0.5 0.5)"/><path class="cls-32" d="M457.6,506.6c1.9,8,8.4,9.1,12.9,4.2s0-31,0-31S456.1,495.9,457.6,506.6Z" transform="translate(0.5 0.5)"/><path class="cls-32" d="M377.7,516.4c1.9,8,8.4,9.1,12.9,4.2s0-31,0-31S376.2,505.7,377.7,516.4Z" transform="translate(0.5 0.5)"/><path class="cls-32" d="M460.1,538.4S449.83,550,447.55,560h14.59C462.27,550.7,460.1,538.4,460.1,538.4Z" transform="translate(0.5 0.5)"/><path class="cls-32" d="M361.1,537.3S350,549.73,348.31,560h14.8C363.44,550.61,361.1,537.3,361.1,537.3Z" transform="translate(0.5 0.5)"/><path class="cls-32" d="M494.8,548.6c1.9,8,8.4,9.1,12.9,4.2s0-31,0-31S493.3,537.9,494.8,548.6Z" transform="translate(0.5 0.5)"/><path class="cls-32" d="M528,381.4c1.9,8,8.4,9.1,12.9,4.2s0-31,0-31S526.5,370.6,528,381.4Z" transform="translate(0.5 0.5)"/><path class="cls-32" d="M567.7,5.8c0.9-1,1.45-2.76,1.75-5H554.73c0,0.27,0,.54.07,0.8C556.7,9.6,563.2,10.7,567.7,5.8Z" transform="translate(0.5 0.5)"/><path class="cls-32" d="M590.1,54.4c4.5-4.9,0-31,0-31s-14.3,16.1-12.9,26.8C579.1,58.2,585.6,59.3,590.1,54.4Z" transform="translate(0.5 0.5)"/><path class="cls-32" d="M744.2,3.2c1.9,8,8.4,9.1,12.9,4.2,1.09-1.18,1.65-3.61,1.87-6.6H744.14A12.5,12.5,0,0,0,744.2,3.2Z" transform="translate(0.5 0.5)"/><path class="cls-32" d="M664.2,3.1c1.9,8,8.4,9.1,12.9,4.2,1.07-1.17,1.63-3.56,1.86-6.5H664.11A12.24,12.24,0,0,0,664.2,3.1Z" transform="translate(0.5 0.5)"/><path class="cls-32" d="M702,14.4c1.9,8,8.4,9.1,12.9,4.2,2.35-2.5,2.3-10.54,1.69-17.8H705.65C703.22,5.31,701.42,10.26,702,14.4Z" transform="translate(0.5 0.5)"/><path class="cls-32" d="M626.8,53.6c1.9,8,8.4,9.1,12.9,4.2s0-31,0-31S625.3,42.9,626.8,53.6Z" transform="translate(0.5 0.5)"/><path class="cls-32" d="M799,33.4c1.9,8,8.4,9.1,12.9,4.2s0-31,0-31S797.5,22.6,799,33.4Z" transform="translate(0.5 0.5)"/><path class="cls-32" d="M899.7,47.8c4.6-4.9,0-31,0-31s-14.4,16.1-12.9,26.8C888.7,51.6,895.2,52.7,899.7,47.8Z" transform="translate(0.5 0.5)"/><path class="cls-32" d="M928.6,16.6c1.9,8,8.4,9.1,12.9,4.2C944,18,943.71,8.56,943,.8H933.5C930.48,5.85,927.92,11.77,928.6,16.6Z" transform="translate(0.5 0.5)"/><path class="cls-32" d="M848.7,26.4c1.9,8,8.4,9.1,12.9,4.2,4-4.27,1-24.63.2-29.8h-1.22C857.32,4.72,847.44,17.45,848.7,26.4Z" transform="translate(0.5 0.5)"/><path class="cls-32" d="M763.8,63.4c1.9,8,8.4,9.1,12.9,4.2s0-31,0-31S762.3,52.7,763.8,63.4Z" transform="translate(0.5 0.5)"/><path class="cls-32" d="M686.8,59.4c1.9,8,8.4,9.1,12.9,4.2s0-31,0-31S685.3,48.7,686.8,59.4Z" transform="translate(0.5 0.5)"/><path class="cls-32" d="M909.2,92.2c1.9,8,8.4,9.1,12.9,4.2s0-31,0-31S907.8,81.5,909.2,92.2Z" transform="translate(0.5 0.5)"/><path class="cls-32" d="M879.9,107.6c4.6-4.9,0-31,0-31S865.5,92.7,867,103.4C868.9,111.4,875.4,112.5,879.9,107.6Z" transform="translate(0.5 0.5)"/><path class="cls-32" d="M941.7,156.6c4.6-4.9,0-31,0-31s-14.4,16.1-12.9,26.8C930.7,160.4,937.2,161.5,941.7,156.6Z" transform="translate(0.5 0.5)"/><path class="cls-32" d="M848.8,165.4c1.9,8,8.4,9.1,12.9,4.2s0-31,0-31S847.3,154.7,848.8,165.4Z" transform="translate(0.5 0.5)"/><path class="cls-32" d="M844.8,217.6c1.9,8,8.4,9.1,12.9,4.2s0-31,0-31S843.3,206.9,844.8,217.6Z" transform="translate(0.5 0.5)"/><path class="cls-32" d="M899.5,194.8c4.6-4.9,0-31,0-31s-14.4,16.1-12.9,26.8C888.5,198.6,895,199.7,899.5,194.8Z" transform="translate(0.5 0.5)"/><path class="cls-32" d="M886.8,326.4c1.9,8,8.4,9.1,12.9,4.2s0-31,0-31S885.3,315.7,886.8,326.4Z" transform="translate(0.5 0.5)"/><path class="cls-32" d="M914.9,147.6c4.5-4.9,0-31,0-31s-14.4,16-12.9,26.8C903.9,151.4,910.4,152.5,914.9,147.6Z" transform="translate(0.5 0.5)"/><path class="cls-32" d="M951.7,136.4c1.31,5.5,4.79,7.74,8.3,7v-28C955.93,121.09,950.77,129.78,951.7,136.4Z" transform="translate(0.5 0.5)"/><path class="cls-32" d="M932.2,202.1c1.9,8,8.4,9.1,12.9,4.2s0-31,0-31S930.7,191.4,932.2,202.1Z" transform="translate(0.5 0.5)"/><path class="cls-32" d="M907.7,225.8s-14.4,16.1-12.9,26.8c1.9,8,8.4,9.1,12.9,4.2S907.7,225.8,907.7,225.8Z" transform="translate(0.5 0.5)"/><path class="cls-32" d="M951.8,275.4c1.29,5.45,4.72,7.69,8.2,7V254.57C955.95,260.24,950.88,268.83,951.8,275.4Z" transform="translate(0.5 0.5)"/><path class="cls-32" d="M879,400.4c1.9,8,8.4,9.1,12.9,4.2s0-31,0-31S877.5,389.6,879,400.4Z" transform="translate(0.5 0.5)"/><path class="cls-32" d="M928.7,393.4c1.9,8,8.4,9.1,12.9,4.2s0-31,0-31S927.2,382.7,928.7,393.4Z" transform="translate(0.5 0.5)"/><path class="cls-32" d="M909.2,459.1c1.9,8,8.4,9.1,12.9,4.2s0-31,0-31S907.7,448.4,909.2,459.1Z" transform="translate(0.5 0.5)"/><path class="cls-32" d="M947,470.4c1.9,8,8.4,9.1,12.9,4.2l0.1-.13V444.19l-0.1-.59S945.5,459.7,947,470.4Z" transform="translate(0.5 0.5)"/><path class="cls-32" d="M902.8,538.6c1.9,8,8.4,9.1,12.9,4.2s0-31,0-31S901.3,527.9,902.8,538.6Z" transform="translate(0.5 0.5)"/><path class="cls-32" d="M944.6,511.6c1.9,8,8.4,9.1,12.9,4.2s0-31,0-31S943.1,500.9,944.6,511.6Z" transform="translate(0.5 0.5)"/><path class="cls-32" d="M864.7,521.4c1.9,8,8.4,9.1,12.9,4.2s0-31,0-31S863.2,510.7,864.7,521.4Z" transform="translate(0.5 0.5)"/><path class="cls-32" d="M815,528.4c1.9,8,8.4,9.1,12.9,4.2s0-31,0-31S813.5,517.6,815,528.4Z" transform="translate(0.5 0.5)"/><path class="cls-32" d="M825,277.4c1.9,8,8.4,9.1,12.9,4.2s0-31,0-31S823.5,266.7,825,277.4Z" transform="translate(0.5 0.5)"/><path class="cls-32" d="M855.5,352.8c4.5-4.9,0-31,0-31s-14.4,16.1-12.9,26.8C844.5,356.6,851,357.7,855.5,352.8Z" transform="translate(0.5 0.5)"/><path class="cls-32" d="M823.2,424.2c1.9,8,8.4,9.1,12.9,4.2s0-31,0-31S821.8,413.5,823.2,424.2Z" transform="translate(0.5 0.5)"/><path class="cls-32" d="M842.8,484.4c1.9,8,8.4,9.1,12.9,4.2s0-31,0-31S841.3,473.7,842.8,484.4Z" transform="translate(0.5 0.5)"/><path class="cls-32" d="M596.8,110.4c1.9,8,8.4,9.1,12.9,4.2s0-31,0-31S595.3,99.7,596.8,110.4Z" transform="translate(0.5 0.5)"/><path class="cls-32" d="M557.6,169.6c4.6-4.9,0-31,0-31s-14.4,16.1-12.9,26.8C546.6,173.4,553.1,174.5,557.6,169.6Z" transform="translate(0.5 0.5)"/><path class="cls-32" d="M845.1,80.3c4.5-4.9,0-31,0-31s-14.4,16.1-12.9,26.8C834.1,84.1,840.6,85.2,845.1,80.3Z" transform="translate(0.5 0.5)"/><path class="cls-32" d="M652.8,86.6c1.9,8,8.4,9.1,12.9,4.2s0-31,0-31S651.3,75.9,652.8,86.6Z" transform="translate(0.5 0.5)"/><path class="cls-32" d="M724.8,76.6c1.9,8,8.4,9.1,12.9,4.2s0-31,0-31S723.3,65.9,724.8,76.6Z" transform="translate(0.5 0.5)"/><path class="cls-32" d="M785.8,91.6c1.9,8,8.4,9.1,12.9,4.2s0-31,0-31S784.3,80.9,785.8,91.6Z" transform="translate(0.5 0.5)"/><path class="cls-32" d="M582.8,182.6c1.9,8,8.4,9.1,12.9,4.2s0-31,0-31S581.3,171.9,582.8,182.6Z" transform="translate(0.5 0.5)"/><path class="cls-32" d="M563,242.4c1.9,8,8.4,9.1,12.9,4.2s0-31,0-31S561.5,231.7,563,242.4Z" transform="translate(0.5 0.5)"/><path class="cls-32" d="M544.8,304.4c1.9,8,8.4,9.1,12.9,4.2s0-31,0-31S543.3,293.7,544.8,304.4Z" transform="translate(0.5 0.5)"/></svg>